<?xml version="1.0" encoding="utf-8"?>
<!-- Generator: Adobe Illustrator 24.2.1, SVG Export Plug-In . SVG Version: 6.00 Build 0)  -->
<svg version="1.1" id="Layer_3" xmlns="http://www.w3.org/2000/svg" xmlns:xlink="http://www.w3.org/1999/xlink" x="0px" y="0px"
	 viewBox="0 0 1400 980" style="enable-background:new 0 0 1400 980;" xml:space="preserve">
<style type="text/css">
	.st0{fill:#D1D3D4;}
</style>
<g>
	<g>
		<path class="st0" d="M219.3,280.5c2.2-1.9,3.4-4.9,2.8-8.1c-1.3-7-8.5-9.5-14.7-10c-0.4,0-0.7,0-1,0.1c0.8-2.7,0.5-5.8,0.1-8.4
			c-2.9-18.6-20-29.8-37.6-31.8c-2-0.2-3.3,1.2-2.9,3.2c0.7,3.4,1.8,6.6,3.6,9.6c0.9,1.5,3.7,4.3,1.2,6.2c-1.1,0.8-4.2,0.7-5.6,0.8
			c-4.7,0.5-12.6-1.5-14.5,4.3c-0.4,1.4-0.7,2.7-0.7,4.1c-3.1-1.4-6.9-0.8-9.7,1.4c-3.3,2.6-4.3,6.7-4.1,10.8
			c-3.5-0.5-7.2,0.6-10.2,2.6c-11.9,8.1-6.3,23.5,3,31c-0.3,6.1-0.4,12.2,0,18.2c0.3,5.3,0.4,11.5,3.5,16.1c2.7,4.1,7.4,6.1,12,7.6
			c6.7,2.2,13.7,3.9,20.7,5.4c9.1,2,22.7,7,29.4-2.1c6.9-9.5,11.4-21.6,14.8-32.9c8.1,5.2,19.4,0.8,21.4-9.2
			C232.4,290.2,226.7,283.8,219.3,280.5z M155.8,248.7c1.4-1.8,2-1.3,4.3-1.3c4.2-0.1,9.6-0.1,13.5-1.9c2.8-1.3,4.2-4.1,3.4-7.1
			c-0.6-2.2-2.2-4-3.3-5.9c-0.9-1.5-1.5-3-2.1-4.7c12.3,2.4,23.9,9.3,28.5,21.6c0.9,2.5,2,5.8,1.7,8.5c-0.6,5.3-5.1,5.6-9.5,5.9
			c-8.4,0.7-15.2-2.1-22.4-6c-0.9-0.5-1.8-0.4-2.5,0.1c-0.7-0.4-1.6-0.5-2.5,0c-3.7,2-7.9-0.2-9.3-4
			C154.9,252,154.7,250.3,155.8,248.7z M142.8,256.1c1.5-1.6,4.2-2.1,6-0.6c0.7,0.7,1.6,0.8,2.3,0.5c2.7,5.9,9.4,9.7,16.2,6.1
			c0,0,0,0,0.1,0.1c9.4,5,17.7,7.6,28.4,6.2c3.2-0.4,7.2-0.5,9.3-3.4c0,0,0,0,0,0c0.2,1.1,1,2.2,2.5,2.4c3.3,0.3,7,1.1,8.9,4.1
			c1.4,2.3,0.7,6.6-2.8,5.9c-1-0.2-1.7,0.1-2.2,0.7c-0.8-0.1-1.7-0.2-2.5-0.3c-8.1-0.7-16.1,0-24.1-1.1c-8.4-1.1-16.8-2.8-25.1-4.3
			c-4-0.7-8.6-0.9-12.2-2.8c-2.3-1.2-4-3.3-6-4.9c0-0.2,0-0.3-0.1-0.5C140.8,261.7,140.7,258.2,142.8,256.1z M135.4,325.6
			c-1.7-4.6-1.6-10.4-1.8-15.3c-0.1-3.6-0.1-7.3,0-10.9c2.4,1.8,5.1,3.2,8.2,3.5c1.6,0.2,3.3,0.1,4.8-0.3c0.3,10-0.5,19.9-2.3,29.7
			c0,0.2,0,0.4,0,0.5C140.6,331.7,136.9,329.7,135.4,325.6z M149.1,334.4c0.1-0.2,0.3-0.5,0.3-0.8c2-10.9,2.8-21.8,2.4-32.9
			c0-0.2,0-0.4-0.1-0.5c0.8-0.5,1.7-0.8,2.6-0.4c1.3,0.5,2.5,2.9,3.9,3.7c1.6,0.9,3.4,1.3,5.2,1.4c0.7,0,1.5-0.1,2.1-0.2
			c-0.9,11.1-2.9,21.9-6.1,32.6c-3.3-0.8-6.6-1.7-9.9-2.6C149.4,334.5,149.3,334.5,149.1,334.4z M164.4,338.3
			c3.4-11.8,5.5-23.8,6.3-36c0.4-0.3,0.8-0.6,1.1-1c1.3,1.4,2.2,4.4,3.4,5.5c1.9,1.8,4.6,2.9,7.2,3c-0.8,9.8-2.1,19.6-6.1,28.7
			c-1.1-0.1-2.2,0.6-2.6,1.7C170.6,339.7,167.5,339,164.4,338.3z M192.9,334.1c-1.2,2.2-2.5,5.3-4.8,6.6c-2.2,1.4-5.1,1-7.6,0.7
			c4.7-10.3,6.1-21.3,7-32.5c1.1-0.5,2-1.2,2.8-2.1c1.4,2.7,3.7,4.9,6.9,5.6c1.9,0.4,3.8,0.2,5.5-0.5
			C200.1,319.6,196.9,327,192.9,334.1z M210.9,303.6c-0.8-0.7-1.8-0.8-2.6-0.4c-0.2-0.1-0.5-0.1-0.7-0.1c-1.3-1.2-3.8-1.1-4.2,1.1
			c-0.6,3.5-4.3,4.3-6.9,2.4c-1.9-1.4-2.6-3.6-2.9-5.9c-0.3-2.8-4.1-3.2-4.9-0.4c-0.4,1.2-0.9,2.1-1.5,2.8c-1.3-1.2-4-0.5-4.3,1.7
			c-2.2-0.2-4.5-1.7-5.9-4c-1.4-2.4-2.3-4.1-5.1-5c-1.1-0.3-2.2,0.4-2.8,1.3c-3.4,5-8.2,2.3-11.4-0.9c-1.5-1.5-3-2.5-5.3-2.1
			c-3.2,0.6-4.5,3.8-8,4.1c-4.2,0.5-7.7-2.1-10.5-5c0,0,0,0,0,0c0.1-1.5-0.9-2.2-2.1-2.3c-0.7-0.8-1.5-0.9-2.2-0.6
			c-3.3-3.3-5.8-7.5-5.7-12.3c0.1-6.1,7-12.9,13.3-9.9c2.7,1.3,4.3,4.3,6.9,5.8c2.1,1.2,4.4,1.7,6.7,2.1c7.2,1.4,14.4,2.6,21.7,3.8
			c6.3,1.1,12.7,2.2,19.1,2.6c6.9,0.4,13.9-0.5,20.7,0.9c6.4,1.3,13.4,5.4,13.5,12.8C225.9,304,217.1,309,210.9,303.6z"/>
		<path class="st0" d="M137,277.6c-3.1-0.7-4.3,4.2-1.1,4.9C139,283.2,140.1,278.3,137,277.6z"/>
		<path class="st0" d="M156.8,283.5c-3.1-0.7-4.3,4.2-1.1,4.9C158.9,289.1,160,284.2,156.8,283.5z"/>
		<path class="st0" d="M185.2,285.2c-3.1-0.7-4.3,4.2-1.1,4.9C187.2,290.7,188.3,285.9,185.2,285.2z"/>
		<path class="st0" d="M209.7,288.7c-3.1-0.7-4.3,4.2-1.1,4.9C211.7,294.3,212.8,289.4,209.7,288.7z"/>
	</g>
	<g>
		<path class="st0" d="M651.6,73.6c1.1-2.7,0.8-5.9-1.1-8.5c-4.3-5.7-11.8-4.7-17.6-2.4c-0.4,0.2-0.7,0.3-0.9,0.6
			c-0.5-2.7-2.2-5.4-3.7-7.5c-10.9-15.3-31.2-17.6-47.9-11.6c-1.9,0.7-2.4,2.6-1.2,4.2c2.1,2.8,4.6,5.1,7.6,7c1.4,0.9,5.2,2.2,3.9,5
			c-0.6,1.2-3.4,2.5-4.7,3.3c-4,2.5-11.9,4.2-11,10.3c0.2,1.4,0.6,2.7,1.2,3.9c-3.4,0.2-6.6,2.3-8.1,5.6c-1.8,3.8-0.8,8,1.2,11.4
			c-3.4,1.1-6.2,3.8-7.9,6.9c-7,12.6,4.8,23.8,16.6,26.4c2.4,5.6,5.1,11,8.2,16.3c2.7,4.6,5.5,10.1,10.3,12.9
			c4.3,2.5,9.4,2.1,14.1,1.4c7-1,14-2.7,20.9-4.4c9-2.3,23.4-3.9,25.3-15.1c1.9-11.6,0.5-24.4-1.5-36.1c9.6,1.1,17.7-8,15-17.8
			C667.6,76.4,659.7,73.3,651.6,73.6z M580.6,73.7c0.4-2.2,1.2-2,3.2-3.1c3.7-2,8.5-4.4,11.2-7.7c1.9-2.4,1.9-5.6-0.2-7.9
			c-1.5-1.7-3.8-2.6-5.6-3.8c-1.5-0.9-2.7-2-3.9-3.2c12.1-3.4,25.5-2.4,35.1,6.6c2,1.8,4.4,4.3,5.3,6.8c1.8,5-2.1,7.3-5.9,9.6
			c-7.2,4.4-14.5,4.9-22.8,4.7c-1,0-1.8,0.5-2.2,1.2c-0.8-0.1-1.7,0.2-2.3,1.1c-2.4,3.5-7.2,3.4-10.1,0.6
			C581.2,77,580.2,75.6,580.6,73.7z M572.3,86.1c0.7-2.1,2.8-3.8,5.1-3.2c1,0.3,1.7,0,2.3-0.6c5.1,4.1,12.8,4.4,17.2-1.8
			c0,0,0.1,0,0.1,0c10.6,0.3,19.2-1.1,28.2-7.1c2.7-1.8,6.2-3.7,6.8-7.2c0,0,0,0,0,0c0.7,0.9,1.9,1.5,3.3,1c3-1.2,6.8-2.1,9.8-0.3
			c2.2,1.4,3.6,5.6,0.2,6.6c-0.9,0.3-1.5,0.9-1.7,1.6c-0.8,0.3-1.6,0.5-2.4,0.8c-7.5,3-14.4,7.2-22,9.9c-8,2.8-16.3,5-24.4,7.4
			c-3.9,1.2-8.1,3-12.2,3c-2.6,0-5-1.1-7.5-1.7c-0.1-0.1-0.2-0.3-0.3-0.4C572.9,92,571.3,88.9,572.3,86.1z M596.8,151.6
			c-3.6-3.4-6.1-8.6-8.4-12.8c-1.8-3.2-3.4-6.4-4.9-9.7c3,0.6,6,0.5,9-0.5c1.5-0.6,3-1.4,4.2-2.4c4.7,8.8,8.5,18,11.3,27.6
			c0.1,0.2,0.1,0.4,0.2,0.5C604.1,154.6,600,154.5,596.8,151.6z M612.9,153.3c0-0.3,0-0.6-0.1-0.9c-3.1-10.6-7.3-20.8-12.6-30.5
			c-0.1-0.2-0.2-0.3-0.3-0.5c0.5-0.8,1.2-1.5,2.1-1.6c1.3-0.1,3.5,1.5,5.1,1.5c1.8,0.1,3.7-0.3,5.3-1.1c0.7-0.3,1.3-0.7,1.8-1.1
			c4.2,10.3,7.2,20.9,9.2,31.9c-3.3,0.8-6.7,1.5-10,2.1C613.3,153.2,613.1,153.2,612.9,153.3z M628.4,149.9
			c-2.2-12.1-5.7-23.7-10.4-35c0.2-0.4,0.4-0.9,0.6-1.4c1.8,0.7,3.9,2.9,5.5,3.4c2.5,0.8,5.4,0.6,7.8-0.5c3.7,9.1,6.9,18.5,7.4,28.4
			c-1,0.4-1.7,1.5-1.6,2.7C634.5,148.4,631.4,149.2,628.4,149.9z M652,133.4c-0.1,2.5,0.1,5.8-1.3,8.1c-1.4,2.2-4.1,3.2-6.5,4
			c-0.4-11.3-4.1-21.8-8.3-32.2c0.7-0.9,1.2-2,1.6-3.1c2.5,1.8,5.5,2.8,8.7,2c1.9-0.5,3.5-1.5,4.7-2.9
			C651.9,117.2,652.3,125.3,652,133.4z M654.3,98c-1.1-0.3-2,0.1-2.5,0.8c-0.2,0.1-0.5,0.1-0.7,0.2c-1.7-0.5-3.8,0.7-3.2,2.9
			c1,3.4-1.9,5.7-5.1,5.2c-2.3-0.4-4-2.1-5.2-4c-1.6-2.4-5.1-1-4.6,1.8c0.2,1.2,0.1,2.3-0.1,3.2c-1.6-0.5-3.8,1.3-3.1,3.5
			c-2.1,0.8-4.8,0.5-7-1c-2.4-1.5-3.9-2.7-6.8-2.1c-1.2,0.2-1.8,1.3-1.9,2.4c-0.8,6-6.4,5.7-10.6,4.3c-2-0.7-3.8-0.9-5.6,0.5
			c-2.6,1.9-2.4,5.4-5.3,7.3c-3.5,2.3-7.8,1.6-11.6,0.2c0,0,0,0,0,0c-0.6-1.4-1.8-1.6-2.9-1.1c-1-0.4-1.7-0.1-2.3,0.5
			c-4.4-1.5-8.5-4.1-10.6-8.5c-2.6-5.5,0.4-14.7,7.5-14.8c3,0,5.8,1.9,8.8,2.1c2.4,0.2,4.7-0.5,7-1.1c7.1-2,14.1-4.2,21.1-6.3
			c6.2-1.8,12.3-3.7,18.2-6.2c6.3-2.7,12.2-6.7,18.9-8.5c6.3-1.7,14.4-1.2,17.8,5.4C668,91.7,662.3,100.2,654.3,98z"/>
		<path class="st0" d="M576.7,107.9c-3.1,0.8-1.9,5.6,1.2,4.9C581,112,579.8,107.1,576.7,107.9z"/>
		<path class="st0" d="M597.1,104.3c-3.1,0.8-1.9,5.6,1.2,4.9C601.4,108.4,600.2,103.5,597.1,104.3z"/>
		<path class="st0" d="M623.1,93.1c-3.1,0.8-1.9,5.6,1.2,4.9C627.5,97.2,626.3,92.3,623.1,93.1z"/>
		<path class="st0" d="M646.6,85.3c-3.1,0.8-1.9,5.6,1.2,4.9C650.9,89.4,649.8,84.5,646.6,85.3z"/>
	</g>
	<g>
		<path class="st0" d="M117.8,618.8c1.1-2.7,0.8-5.9-1.1-8.5c-4.3-5.7-11.8-4.7-17.6-2.4c-0.4,0.2-0.7,0.3-0.9,0.6
			c-0.5-2.7-2.2-5.4-3.7-7.5c-10.9-15.3-31.2-17.6-47.9-11.6c-1.9,0.7-2.4,2.6-1.2,4.2c2.1,2.8,4.6,5.1,7.6,7c1.4,0.9,5.2,2.2,3.9,5
			c-0.6,1.2-3.4,2.5-4.7,3.3c-4,2.5-11.9,4.2-11,10.3c0.2,1.4,0.6,2.7,1.2,3.9c-3.4,0.2-6.6,2.3-8.1,5.6c-1.8,3.8-0.8,8,1.2,11.4
			c-3.4,1.1-6.2,3.8-7.9,6.9c-7,12.6,4.8,23.8,16.6,26.4c2.4,5.6,5.1,11,8.2,16.3c2.7,4.6,5.5,10.1,10.3,12.9
			c4.3,2.5,9.4,2.1,14.1,1.4c7-1,14-2.7,20.9-4.4c9-2.3,23.4-3.9,25.3-15.1c1.9-11.6,0.5-24.4-1.5-36.1c9.6,1.1,17.7-8,15-17.8
			C133.8,621.6,125.9,618.4,117.8,618.8z M46.8,618.8c0.4-2.2,1.2-2,3.2-3.1c3.7-2,8.5-4.4,11.2-7.7c1.9-2.4,1.9-5.6-0.2-7.9
			c-1.5-1.7-3.8-2.6-5.6-3.8c-1.5-0.9-2.7-2-3.9-3.2c12.1-3.4,25.5-2.4,35.1,6.6c2,1.8,4.4,4.3,5.3,6.8c1.8,5-2.1,7.3-5.9,9.6
			c-7.2,4.4-14.5,4.9-22.8,4.7c-1,0-1.8,0.5-2.2,1.2c-0.8-0.1-1.7,0.2-2.3,1.1c-2.4,3.5-7.2,3.4-10.1,0.6
			C47.4,622.2,46.5,620.7,46.8,618.8z M38.5,631.2c0.7-2.1,2.8-3.8,5.1-3.2c1,0.3,1.7,0,2.3-0.6c5.1,4.1,12.8,4.4,17.2-1.8
			c0,0,0.1,0,0.1,0c10.6,0.3,19.2-1.1,28.2-7.1c2.7-1.8,6.2-3.7,6.8-7.2c0,0,0,0,0,0c0.7,0.9,1.9,1.5,3.3,1c3-1.2,6.8-2.1,9.8-0.3
			c2.2,1.4,3.6,5.6,0.2,6.6c-0.9,0.3-1.5,0.9-1.7,1.6c-0.8,0.3-1.6,0.5-2.4,0.8c-7.5,3-14.4,7.2-22,9.9c-8,2.8-16.3,5-24.4,7.4
			c-3.9,1.2-8.1,3-12.2,3c-2.6,0-5-1.1-7.5-1.7c-0.1-0.1-0.2-0.3-0.3-0.4C39.1,637.1,37.6,634.1,38.5,631.2z M63.1,696.7
			c-3.6-3.4-6.1-8.6-8.4-12.8c-1.8-3.2-3.4-6.4-4.9-9.7c3,0.6,6,0.5,9-0.5c1.5-0.6,3-1.4,4.2-2.4c4.7,8.8,8.5,18,11.3,27.6
			c0.1,0.2,0.1,0.4,0.2,0.5C70.3,699.8,66.2,699.6,63.1,696.7z M79.2,698.4c0-0.3,0-0.6-0.1-0.9c-3.1-10.6-7.3-20.8-12.6-30.5
			c-0.1-0.2-0.2-0.3-0.3-0.5c0.5-0.8,1.2-1.5,2.1-1.6c1.3-0.1,3.5,1.5,5.1,1.5c1.8,0.1,3.7-0.3,5.3-1.1c0.7-0.3,1.3-0.7,1.8-1.1
			c4.2,10.3,7.2,20.9,9.2,31.9c-3.3,0.8-6.7,1.5-10,2.1C79.5,698.3,79.3,698.4,79.2,698.4z M94.6,695.1c-2.2-12.1-5.7-23.7-10.4-35
			c0.2-0.4,0.4-0.9,0.6-1.4c1.8,0.7,3.9,2.9,5.5,3.4c2.5,0.8,5.4,0.6,7.8-0.5c3.7,9.1,6.9,18.5,7.4,28.4c-1,0.4-1.7,1.5-1.6,2.7
			C100.7,693.5,97.7,694.3,94.6,695.1z M118.2,678.5c-0.1,2.5,0.1,5.8-1.3,8.1c-1.4,2.2-4.1,3.2-6.5,4c-0.4-11.3-4.1-21.8-8.3-32.2
			c0.7-0.9,1.2-2,1.6-3.1c2.5,1.8,5.5,2.8,8.7,2c1.9-0.5,3.5-1.5,4.7-2.9C118.2,662.3,118.6,670.4,118.2,678.5z M120.6,643.2
			c-1.1-0.3-2,0.1-2.5,0.8c-0.2,0.1-0.5,0.1-0.7,0.2c-1.7-0.5-3.8,0.7-3.2,2.9c1,3.4-1.9,5.7-5.1,5.2c-2.3-0.4-4-2.1-5.2-4
			c-1.6-2.4-5.1-1-4.6,1.8c0.2,1.2,0.1,2.3-0.1,3.2c-1.6-0.5-3.8,1.3-3.1,3.5c-2.1,0.8-4.8,0.5-7-1c-2.4-1.5-3.9-2.7-6.8-2.1
			c-1.2,0.2-1.8,1.3-1.9,2.4c-0.8,6-6.4,5.7-10.6,4.3c-2-0.7-3.8-0.9-5.6,0.5c-2.6,1.9-2.4,5.4-5.3,7.3c-3.5,2.3-7.8,1.6-11.6,0.2
			c0,0,0,0,0,0c-0.6-1.4-1.8-1.6-2.9-1.1c-1-0.4-1.7-0.1-2.3,0.5c-4.4-1.5-8.5-4.1-10.6-8.5c-2.6-5.5,0.4-14.7,7.5-14.8
			c3,0,5.8,1.9,8.8,2.1c2.4,0.2,4.7-0.5,7-1.1c7.1-2,14.1-4.2,21.1-6.3c6.2-1.8,12.3-3.7,18.2-6.2c6.3-2.7,12.2-6.7,18.9-8.5
			c6.3-1.7,14.4-1.2,17.8,5.4C134.3,636.8,128.6,645.3,120.6,643.2z"/>
		<path class="st0" d="M42.9,653c-3.1,0.8-1.9,5.6,1.2,4.9C47.2,657.1,46,652.3,42.9,653z"/>
		<path class="st0" d="M63.3,649.4c-3.1,0.8-1.9,5.6,1.2,4.9C67.6,653.5,66.4,648.6,63.3,649.4z"/>
		<path class="st0" d="M89.4,638.2c-3.1,0.8-1.9,5.6,1.2,4.9C93.7,642.3,92.5,637.4,89.4,638.2z"/>
		<path class="st0" d="M112.9,630.4c-3.1,0.8-1.9,5.6,1.2,4.9C117.2,634.5,116,629.6,112.9,630.4z"/>
	</g>
	<g>
		<path class="st0" d="M994.7,522.3c1.1-2.7,0.8-5.9-1.1-8.5c-4.3-5.7-11.8-4.7-17.6-2.4c-0.4,0.2-0.7,0.3-0.9,0.6
			c-0.5-2.7-2.2-5.4-3.7-7.5c-10.9-15.3-31.2-17.6-47.9-11.6c-1.9,0.7-2.4,2.6-1.2,4.2c2.1,2.8,4.6,5.1,7.6,7c1.4,0.9,5.2,2.2,3.9,5
			c-0.6,1.2-3.4,2.5-4.7,3.3c-4,2.5-11.9,4.2-11,10.3c0.2,1.4,0.6,2.7,1.2,3.9c-3.4,0.2-6.6,2.3-8.1,5.6c-1.8,3.8-0.8,8,1.2,11.4
			c-3.4,1.1-6.2,3.8-7.9,6.9c-7,12.6,4.8,23.8,16.6,26.4c2.4,5.6,5.1,11,8.2,16.3c2.7,4.6,5.5,10.1,10.3,12.9
			c4.3,2.5,9.4,2.1,14.1,1.4c7-1,14-2.7,20.9-4.4c9-2.3,23.4-3.9,25.3-15.1c1.9-11.6,0.5-24.4-1.5-36.1c9.6,1.1,17.7-8,15-17.8
			C1010.7,525.1,1002.8,521.9,994.7,522.3z M923.8,522.3c0.4-2.2,1.2-2,3.2-3.1c3.7-2,8.5-4.4,11.2-7.7c1.9-2.4,1.9-5.6-0.2-7.9
			c-1.5-1.7-3.8-2.6-5.6-3.8c-1.5-0.9-2.7-2-3.9-3.2c12.1-3.4,25.5-2.4,35.1,6.6c2,1.8,4.4,4.3,5.3,6.8c1.8,5-2.1,7.3-5.9,9.6
			c-7.2,4.4-14.5,4.9-22.8,4.7c-1,0-1.8,0.5-2.2,1.2c-0.8-0.1-1.7,0.2-2.3,1.1c-2.4,3.5-7.2,3.4-10.1,0.6
			C924.3,525.6,923.4,524.2,923.8,522.3z M915.4,534.7c0.7-2.1,2.8-3.8,5.1-3.2c1,0.3,1.7,0,2.3-0.6c5.1,4.1,12.8,4.4,17.2-1.8
			c0,0,0.1,0,0.1,0c10.6,0.3,19.2-1.1,28.2-7.1c2.7-1.8,6.2-3.7,6.8-7.2c0,0,0,0,0,0c0.7,0.9,1.9,1.5,3.3,1c3-1.2,6.8-2.1,9.8-0.3
			c2.2,1.4,3.6,5.6,0.2,6.6c-0.9,0.3-1.5,0.9-1.7,1.6c-0.8,0.3-1.6,0.5-2.4,0.8c-7.5,3-14.4,7.2-22,9.9c-8,2.8-16.3,5-24.4,7.4
			c-3.9,1.2-8.1,3-12.2,3c-2.6,0-5-1.1-7.5-1.7c-0.1-0.1-0.2-0.3-0.3-0.4C916,540.6,914.5,537.6,915.4,534.7z M940,600.2
			c-3.6-3.4-6.1-8.6-8.4-12.8c-1.8-3.2-3.4-6.4-4.9-9.7c3,0.6,6,0.5,9-0.5c1.5-0.6,3-1.4,4.2-2.4c4.7,8.8,8.5,18,11.3,27.6
			c0.1,0.2,0.1,0.4,0.2,0.5C947.3,603.3,943.1,603.1,940,600.2z M956.1,601.9c0-0.3,0-0.6-0.1-0.9c-3.1-10.6-7.3-20.8-12.6-30.5
			c-0.1-0.2-0.2-0.3-0.3-0.5c0.5-0.8,1.2-1.5,2.1-1.6c1.3-0.1,3.5,1.5,5.1,1.5c1.8,0.1,3.7-0.3,5.3-1.1c0.7-0.3,1.3-0.7,1.8-1.1
			c4.2,10.3,7.2,20.9,9.2,31.9c-3.3,0.8-6.7,1.5-10,2.1C956.4,601.8,956.3,601.9,956.1,601.9z M971.5,598.5
			c-2.2-12.1-5.7-23.7-10.4-35c0.2-0.4,0.4-0.9,0.6-1.4c1.8,0.7,3.9,2.9,5.5,3.4c2.5,0.8,5.4,0.6,7.8-0.5c3.7,9.1,6.9,18.5,7.4,28.4
			c-1,0.4-1.7,1.5-1.6,2.7C977.7,597,974.6,597.8,971.5,598.5z M995.2,582c-0.1,2.5,0.1,5.8-1.3,8.1c-1.4,2.2-4.1,3.2-6.5,4
			c-0.4-11.3-4.1-21.8-8.3-32.2c0.7-0.9,1.2-2,1.6-3.1c2.5,1.8,5.5,2.8,8.7,2c1.9-0.5,3.5-1.5,4.7-2.9
			C995.1,565.8,995.5,573.9,995.2,582z M997.5,546.7c-1.1-0.3-2,0.1-2.5,0.8c-0.2,0.1-0.5,0.1-0.7,0.2c-1.7-0.5-3.8,0.7-3.2,2.9
			c1,3.4-1.9,5.7-5.1,5.2c-2.3-0.4-4-2.1-5.2-4c-1.6-2.4-5.1-1-4.6,1.8c0.2,1.2,0.1,2.3-0.1,3.2c-1.6-0.5-3.8,1.3-3.1,3.5
			c-2.1,0.8-4.8,0.5-7-1c-2.4-1.5-3.9-2.7-6.8-2.1c-1.2,0.2-1.8,1.3-1.9,2.4c-0.8,6-6.4,5.7-10.6,4.3c-2-0.7-3.8-0.9-5.6,0.5
			c-2.6,1.9-2.4,5.4-5.3,7.3c-3.5,2.3-7.8,1.6-11.6,0.2c0,0,0,0,0,0c-0.6-1.4-1.8-1.6-2.9-1.1c-1-0.4-1.7-0.1-2.3,0.5
			c-4.4-1.5-8.5-4.1-10.6-8.5c-2.6-5.5,0.4-14.7,7.5-14.8c3,0,5.8,1.9,8.8,2.1c2.4,0.2,4.7-0.5,7-1.1c7.1-2,14.1-4.2,21.1-6.3
			c6.2-1.8,12.3-3.7,18.2-6.2c6.3-2.7,12.2-6.7,18.9-8.5c6.3-1.7,14.4-1.2,17.8,5.4C1011.2,540.3,1005.5,548.8,997.5,546.7z"/>
		<path class="st0" d="M919.8,556.5c-3.1,0.8-1.9,5.6,1.2,4.9C924.1,560.6,922.9,555.8,919.8,556.5z"/>
		<path class="st0" d="M940.2,552.9c-3.1,0.8-1.9,5.6,1.2,4.9C944.5,557,943.3,552.1,940.2,552.9z"/>
		<path class="st0" d="M966.3,541.7c-3.1,0.8-1.9,5.6,1.2,4.9C970.6,545.8,969.4,540.9,966.3,541.7z"/>
		<path class="st0" d="M989.8,533.9c-3.1,0.8-1.9,5.6,1.2,4.9C994.1,538,992.9,533.1,989.8,533.9z"/>
	</g>
	<g>
		<path class="st0" d="M548.9,247.7c-1.2-1-2.4-1.4-3.9-1.4c-1,0-3.6,1.2-4.5,0.6c-1.1-0.7-2.1-0.5-2.9,0.1c0-0.3,0-0.5,0-0.8
			c-0.3-5.8-6.5-10.2-11.1-12.7c-10-5.4-22.9-5.8-33.1-0.6c-6.1,3.1-10.3,8.2-14.7,13.3c-5.2,6.2-12.8,13.9-21.7,10.1
			c-1.6-0.7-3.1,0.5-3.4,2.1c-1.9,10,2.1,19,8.9,24.5c-5.8,2.5-9.5,8.6-8.3,15.1c1.5,8.1,10.1,11.2,17.3,12.3
			c4.3,11.2,9.7,22.3,20.5,28.4c12.6,7.1,24.1,1.3,36.1-4.2c6.6-3,14.4-5.5,19.9-10.5c4.1-3.7,6.8-8.8,8.2-14.1
			c3.1-12.2-0.8-24.1-5.4-35.4c4.5-3.9,5.3-10.4,3.6-16.3C553.3,254.7,551.8,250.1,548.9,247.7z M481.6,250.5
			c4.5-5.2,8.6-10.6,15-13.5c5.2-2.4,11.1-3.1,16.8-2.4c5.7,0.7,11.2,3,15.5,6.8c7.4,6.5-0.7,15.1-5.9,20.2
			c-9.1,8.9-20.8,14.4-32.4,19.4c-0.6-0.3-1.3-0.4-2.1,0.1c-14.7,8-31.3-3.1-30.4-19C467.4,264,475.7,257.3,481.6,250.5z
			 M493.1,333.5c-8.4-5.4-12.9-14.5-16.5-23.7c1.2,0.3,2.4,0.5,3.7,0.5c2.2,0,4.3-0.5,6.3-1.4c6.2,8,10,17,11.5,27
			C496.4,335.3,494.8,334.5,493.1,333.5z M496.2,298.5c2.6,1,5.5,2,8.4,2.5c0.1,0.3,0.2,0.7,0.4,1c6.2,9.9,12.5,20.6,10.3,32.7
			c-4.1,1.5-8.2,2.5-12.3,2.3c0.1-0.3,0.1-0.7,0.1-1.1c-1.5-10.8-5.6-20.8-12.2-29.5C493.4,304.2,495.2,301.5,496.2,298.5z
			 M526.1,329.9c-1.8,0.8-3.5,1.6-5.3,2.4c1.1-11.3-4.4-21.6-10.3-31.2c1-0.1,2-0.3,2.9-0.6c2-0.7,3.6-1.8,4.8-3.6
			c1-1.6,1.1-3.5,1.6-5.2c8.2,8.8,17.6,20,12.7,32.7c-0.4,1.1-0.1,2,0.5,2.6C530.6,328,528.2,328.9,526.1,329.9z M543.7,321.1
			c-1.8,1.5-4,2.7-6.2,3.8c4.7-14.3-5.1-26.9-14.5-37c2.2-0.6,5,0.1,7.4-0.1c2.1-0.2,4.1-0.8,6-1.7c3,4.3,5.7,8.7,8.1,13.3
			c2.3,4.5,4.5,9.1,3.4,14.3c-0.2,0.8,0,1.4,0.4,1.8C547.1,317.7,545.6,319.5,543.7,321.1z M552.1,303.8
			c-2.2-7.3-7.2-14.4-11.4-20.2c2.3-1.8,4.2-4.1,5.6-6.7C549.9,285.4,553,294.5,552.1,303.8z M548.6,269.5c-1-1.4-2.9-1.1-3.9,0.1
			c-0.6,0.2-1.2,0.7-1.4,1.5c-1.1,3.8-3.3,6.9-6.4,9.1c-0.7,0.1-1.3,0.5-1.7,1c-0.8,0.4-1.7,0.8-2.7,1.1c-4.4,1.3-9.6-1.1-13.6,1.4
			c-3.4,2.2-2.8,5.6-4.3,8.8c-3.3,6.8-13.9,2.5-19.2,0.3c-1.5-0.7-3.1,0.5-3.4,2.1c-0.8,5.3-5.2,9.7-10.6,10.4
			c-2.4,0.3-4.6-0.3-6.9-0.8c-0.2-0.5-0.3-0.9-0.5-1.4c-0.9-2.5-4.3-1.5-4.7,0.7c-0.6,0-1.1,0.1-1.7,0.2c-0.3,0.1-0.5,0.2-0.7,0.3
			c-2.9-0.9-5.5-2.3-7-5c-2.5-4.5,0.3-10.8,5.3-12.1c0.8-0.2,1.3-0.7,1.7-1.3c6.5,3.4,14.6,4,22.2,0.5c0.5,0.2,1.1,0.2,1.8-0.1
			c13.7-5.8,27.8-12.4,38-23.6c2.8-3.1,6.6-7.6,8.1-12.2c0.2,0.2,0.3,0.4,0.6,0.5c3.9,2.4,6.9-1.3,10,3.5
			C550.1,258.5,551.6,265.4,548.6,269.5z"/>
		<path class="st0" d="M483.3,271.4c0.8-0.7,1.5-1.4,2.3-2.1c0.4,0.4,0.9,0.9,1.3,1.3c1,1,2.4,1.3,3.5,0.3c1-0.8,1.3-2.6,0.3-3.5
			c-0.5-0.5-1-1-1.6-1.5c0.2-0.2,0.5-0.4,0.7-0.7c2.3-2.2-0.8-6.1-3.2-3.9c-0.4,0.3-0.7,0.7-1.1,1c-0.5-0.5-1-1-1.5-1.5
			c-1-1-2.4-1.3-3.5-0.3c-1,0.8-1.3,2.6-0.3,3.5c0.6,0.6,1.1,1.1,1.7,1.7c-0.6,0.6-1.3,1.2-1.9,1.8
			C477.8,269.7,480.9,273.6,483.3,271.4z"/>
		<path class="st0" d="M508.8,251.7c-0.4,1.2-0.7,2.3-1.2,3.4c-1.2,3,3.5,4.8,4.7,1.8c0.4-0.9,0.7-1.9,1-2.9
			c0.6,0.4,1.2,0.7,1.8,1.1c2.7,1.8,5.6-2.3,2.9-4.1c-1.1-0.7-2.2-1.4-3.3-2c0.4-1.7,0.7-3.4,1-5.2c0.4-3.2-4.5-3.7-5-0.6
			c-0.1,0.6-0.2,1.2-0.3,1.7c-0.6-0.6-1.5-0.8-2.5-0.4c-0.4,0.2-0.7,0.5-1,0.8c-0.4-0.2-0.9-0.3-1.3-0.5c-3-1-4.9,3.6-1.8,4.7
			C505.5,250.3,507.2,251,508.8,251.7z"/>
		<path class="st0" d="M536,262.2c-0.2,0.1-0.4,0.2-0.6,0.3c-1.2,0.5-1.9,2.1-1.3,3.3c0.6,1.2,2,1.8,3.3,1.3
			c0.2-0.1,0.4-0.2,0.6-0.3c1.2-0.5,1.9-2.1,1.3-3.3C538.7,262.2,537.3,261.6,536,262.2z"/>
		<path class="st0" d="M471,293.2c-2.9,1.3-0.9,5.9,2,4.6C476,296.5,474,291.9,471,293.2z"/>
		<path class="st0" d="M506.1,283.5c-2.9,1.3-0.9,5.9,2,4.6C511,286.7,509,282.2,506.1,283.5z"/>
	</g>
	<path class="st0" d="M598,686.8c0.6-4.2-0.2-7.9-1.7-11.4c2-1.9,0-5.7-2.4-4.3c-3.3-4.7-8.1-8.7-12.8-12.1
		c-5.4-3.9-11.1-7.7-16.8-11.3c1.2-0.6,2.1-1.6,2.8-3.1c2.5-5.8,0.2-12.7-4.9-16.3c-4.3-3-12.8-5.4-16,0.2c-1.5,2.6-1.8,5.6-1.3,8.5
		c-1.8-0.8-3.5-1.7-5.3-2.4c-10.8-4.7-24.9-6.6-34.4,1.9c-8.6,7.6-8.9,21.6-1.5,30.1c-0.3,0.7-0.6,1.4-0.8,2.1c-0.3,1,0,1.8,0.6,2.4
		c-1.4,7.6-3.3,15-5.8,22.3c-1.2,3.4-2.5,6.8-4,10.1c-1.3,3-3.5,6.2-4.1,9.5c-1.1,5.4,3.6,7.9,7.5,10.5c7,4.8,14.1,9.6,21.1,14.4
		c3.3,2.2,6.5,4.4,9.8,6.6c2.8,1.9,6,4.9,9.2,6.1c5.2,2,8.8-4.1,11.9-7.3c11.7-12.2,23.5-24.4,35.2-36.7c0.4-0.5,0.7-1,0.8-1.5
		C591.9,701.8,596.9,694.8,598,686.8z M549.7,634c0.2-2.3,0.4-3.7,3.4-3.8c1.9-0.1,4.1,0.9,5.6,1.9c3.1,2.1,5,5.8,4,9.5
		c-1,3.9-6.9,0.2-8.7-1.4c-1-0.9-2.1-0.7-2.8,0c-0.1-0.1-0.2-0.1-0.3-0.2C549.9,638.3,549.5,636.2,549.7,634z M547.3,643.9
		c0.5,0.8,1.1,1.6,1.7,2.4c0.9,1.1,2.2,1,3.1,0.5c1.6,0.9,3.2,1.9,4.7,2.8c6.5,3.8,12.8,7.8,19,12.1c5.2,3.6,10.8,7.4,14.3,12.8
		c-1.9,2.1-3.4,4.4-5.5,6.5c-5,4.8-7.7,0.5-10-4c-1.3-2.7-2.9-5.6-5.9-6.8c-4.6-1.9-9.2,0.6-13.7-2.6c-3.8-2.7-4.2-7.9-8-10.4
		c-3.9-2.5-9.1-1.5-13.5-1.8c-5.3-0.4-10.5-1.7-15.4-3.6c-3.4-1.4-7.6-3.3-6-7.5c0.8-2.2,2.7-4.1,4.3-5.7c0.7-0.7,0.9-1.6,0.7-2.3
		C527.6,633.9,537.9,638.6,547.3,643.9z M508.9,640.1c-3.1,5.5-2.9,11.3,4.7,14.9c5.7,2.7,11.8,4.3,18.1,5c3.1,0.3,7-0.4,10,0.4
		c4.6,1.2,5.1,5.8,7.9,8.8c3.5,3.8,8.4,5.6,13.5,5.5c4.4-0.2,5.2,0.6,7.1,4.4c1,2,1.8,4,3.2,5.7c2.5,3.1,6.2,4.2,9.9,2.9
		c4.3-1.6,6.3-5.4,9-8.6c2.7,9.1-2.5,19.4-11.7,22.5c-2.3-0.6-4.7-0.6-7.3-0.6c-2.9,0.1-6.9,0.6-9.3-1.5c-4.1-3.7,2.6-10.9-2.8-15
		c-1.7-1.2-3.6-1.1-5.5-0.6c-2.4,0.7-6.6,4.8-8.9,4.6c-1.3-0.8-2.5-1.6-3.8-2.4c0-0.9,0.1-1.8,0.3-2.7c0.2-1.3,0.5-2.6,0.5-4
		c0-2.5-0.7-4.4-2.4-6.2c-1.2-1.2-3-1.1-4,0.3c-3.4,4.5-9.5,6.7-14.9,4.6c-5.8-2.2-7-6.9-8.4-12.2c-0.6-2.4-2.4-4.1-5-4
		c-1,0-1.8,0.3-2.6,0.7C501,655.3,502.6,645.6,508.9,640.1z M513.5,728.8c-2.2-1.5-4.4-3-6.6-4.5c9.8-11.6,15.7-25.7,17.1-40.7
		c4.7,0.8,9.4-0.5,13.2-3.2c-0.1,0.2-0.2,0.4-0.2,0.7C533.4,698.9,525.5,715.3,513.5,728.8z M538.9,679.2c0,0.1,0,0.1,0,0.2
		c-0.1,0-0.2,0-0.3,0C538.7,679.4,538.8,679.3,538.9,679.2z M494.2,714c-0.1-1.8,2.5-5.5,3.3-7.2c5.3-11.8,8.9-24.2,11-37
		c0.1-0.5,0-1-0.2-1.4c0.3-0.2,0.7-0.2,1.1,0.4c0.3,0.4,0.4,1.8,0.6,2.4c0.5,1.7,1.3,3.3,2.3,4.7c1.7,2.6,4.1,4.7,6.8,6.1
		c-1.2,14.7-6.9,28.3-16.4,39.5c-0.2-0.2-0.5-0.3-0.7-0.5C499.8,719.5,494.4,717.2,494.2,714z M519.1,732.7c-0.5-0.3-1-0.7-1.5-1
		c10.2-11.7,17.6-25.3,22-40.1c0.3,0.4,0.7,0.8,1.1,1.2c1.9,1.6,4.3,1.6,6.6,1c1.6-0.4,3-1.3,4.5-2.1c1-0.5,2-1.1,3-1.6
		c0.4-0.4,0.8-0.7,1.1-0.8c-1,9.7-3.9,19.1-8.8,27.6c-5,8.6-12,15.1-18.8,22.1c-0.1-0.1-0.2-0.1-0.2-0.2
		C525,736.7,522.1,734.7,519.1,732.7z M551.6,733.3c-2.5,2.6-5,5.2-7.5,7.8c-1.1,1.2-2.1,2.5-3.4,3.5c-1.9,1.5-1.8,1.1-3.8,0.2
		c-1.6-0.7-3.1-1.8-4.7-2.9c7.3-7.5,14.6-14.4,19.7-23.8c3-5.5,5.2-11.2,6.8-17.2c0.7,1.2,1.8,2.3,3.1,3.1c4.7,2.9,9.9,1.6,14.9,2.1
		c0.1,0.2,0.3,0.4,0.4,0.5C568.7,715.4,560.1,724.4,551.6,733.3z"/>
	<path class="st0" d="M717.7,867.1c-0.6-4.2-2.4-7.6-4.8-10.5c1.4-2.4-1.5-5.5-3.5-3.4c-4.5-3.6-10.2-6.2-15.7-8.1
		c-6.3-2.2-12.7-4.4-19.3-6.2c1-0.9,1.6-2.1,1.8-3.7c0.8-6.3-3.3-12.3-9.2-14.4c-4.9-1.8-13.8-1.7-15.3,4.5
		c-0.7,2.9-0.2,5.9,1.1,8.5c-1.9-0.3-3.9-0.6-5.8-0.9c-11.7-1.6-25.7,0.5-32.6,11.2c-6.2,9.7-2.6,23.2,6.8,29.4
		c-0.1,0.8-0.1,1.5-0.1,2.3c0,1,0.5,1.8,1.2,2.2c0.8,7.6,1,15.3,0.5,23c-0.2,3.6-0.6,7.2-1,10.8c-0.4,3.3-1.7,6.9-1.4,10.3
		c0.5,5.5,5.6,6.6,10.1,8.1c8.1,2.7,16.2,5.4,24.3,8c3.7,1.2,7.5,2.5,11.2,3.7c3.2,1.1,7.2,3.1,10.5,3.4c5.5,0.5,7.3-6.3,9.4-10.3
		c7.9-15,15.9-29.9,23.8-44.9c0.3-0.6,0.4-1.1,0.3-1.6C715.9,883.2,718.8,875,717.7,867.1z M656.7,829.6c-0.4-2.3-0.6-3.6,2.2-4.6
		c1.8-0.6,4.2-0.2,5.9,0.3c3.6,1.1,6.4,4.2,6.5,8.1c0.1,4-6.6,2.1-8.8,1c-1.2-0.6-2.2-0.1-2.7,0.8c-0.1,0-0.2-0.1-0.3-0.1
		C658.1,833.6,657.1,831.7,656.7,829.6z M657.1,839.7c0.7,0.7,1.5,1.3,2.3,1.8c1.2,0.8,2.4,0.4,3.1-0.4c1.8,0.5,3.5,0.9,5.2,1.4
		c7.3,1.9,14.5,4,21.6,6.4c6,2,12.4,4.2,17.3,8.4c-1.2,2.5-2,5.2-3.5,7.7c-3.5,6-7.3,2.6-10.7-1.2c-2-2.3-4.3-4.6-7.5-4.9
		c-5-0.5-8.7,3.1-13.9,1.3c-4.4-1.6-6.2-6.5-10.6-7.8c-4.4-1.4-9.1,1.1-13.4,1.9c-5.2,1-10.6,1.3-15.8,0.7c-3.6-0.4-8.2-1.1-7.8-5.6
		c0.2-2.3,1.5-4.6,2.6-6.6c0.5-0.9,0.4-1.7,0-2.4C635.4,835.5,646.7,837.2,657.1,839.7z M619.2,846.6c-1.5,6.1,0.3,11.7,8.6,13.1
		c6.2,1,12.6,0.9,18.8-0.1c3.1-0.5,6.6-2.3,9.7-2.4c4.8-0.1,6.5,4.2,10,6.3c4.4,2.7,9.6,3.1,14.5,1.5c4.2-1.4,5.2-0.8,8.1,2.2
		c1.5,1.6,2.8,3.4,4.6,4.7c3.2,2.3,7.1,2.4,10.4,0c3.7-2.7,4.6-6.9,6.3-10.7c5.1,8,2.9,19.3-5,24.9c-2.4,0-4.7,0.7-7.2,1.5
		c-2.7,0.9-6.5,2.4-9.3,1.1c-5-2.4-0.5-11.2-6.8-13.6c-2-0.7-3.8-0.1-5.4,1c-2.1,1.3-5,6.4-7.3,6.8c-1.4-0.4-2.9-0.8-4.3-1.2
		c-0.2-0.9-0.4-1.7-0.4-2.6c-0.2-1.3-0.2-2.6-0.6-4c-0.7-2.4-1.9-4.1-4-5.4c-1.5-0.9-3.1-0.2-3.7,1.3c-2.1,5.2-7.3,9-13.1,8.6
		c-6.2-0.5-8.6-4.7-11.4-9.4c-1.3-2.1-3.4-3.3-5.9-2.5c-0.9,0.3-1.7,0.8-2.3,1.4C615.8,863.4,614.6,853.6,619.2,846.6z M647.9,930.7
		c-2.5-0.8-5-1.7-7.6-2.5c6.2-13.8,8-29,5.3-43.9c4.7-0.5,8.9-3,11.8-6.7c0,0.2-0.1,0.4,0,0.7C658.9,896.4,655.7,914.4,647.9,930.7z
		 M658.7,876c0,0.1,0.1,0.1,0.1,0.2c-0.1,0-0.2,0.1-0.3,0.1C658.6,876.2,658.6,876.1,658.7,876z M625.3,921.7
		c-0.6-1.7,0.9-6,1.2-7.8c1.9-12.8,1.9-25.8,0.5-38.6c-0.1-0.5-0.3-1-0.5-1.3c0.2-0.3,0.6-0.3,1.2,0.1c0.4,0.3,0.9,1.7,1.2,2.2
		c1,1.5,2.1,2.8,3.5,3.9c2.4,2,5.2,3.4,8.2,4c2.9,14.5,1.1,29.1-4.9,42.5c-0.3-0.1-0.6-0.2-0.9-0.3
		C632.1,925.5,626.3,924.7,625.3,921.7z M654.3,932.8c-0.6-0.2-1.1-0.4-1.7-0.6c6.5-14.1,10-29.2,10.1-44.6c0.4,0.3,0.9,0.6,1.4,0.8
		c2.3,1,4.6,0.4,6.6-0.9c1.4-0.9,2.6-2.1,3.7-3.3c0.8-0.8,1.6-1.6,2.4-2.3c0.3-0.5,0.6-0.9,0.9-1.1c1.7,9.6,1.5,19.4-0.9,28.9
		c-2.4,9.7-7.4,17.8-12,26.4c-0.1,0-0.2-0.1-0.3-0.1C661.2,935.1,657.7,934,654.3,932.8z M685.7,924.5c-1.7,3.2-3.4,6.3-5,9.5
		c-0.8,1.4-1.4,3-2.3,4.3c-1.4,2-1.5,1.6-3.6,1.3c-1.7-0.3-3.5-0.8-5.3-1.5c5-9.2,10.1-17.9,12.5-28.3c1.4-6.1,1.9-12.2,1.8-18.4
		c1.1,1,2.4,1.7,3.8,2.1c5.3,1.5,10-1.2,14.9-2.1c0.2,0.2,0.4,0.3,0.6,0.4C697.3,902.7,691.5,913.6,685.7,924.5z"/>
	<path class="st0" d="M1179.9,653.3c0.6-4.2-0.2-7.9-1.7-11.4c2-1.9,0-5.7-2.4-4.3c-3.3-4.7-8.1-8.7-12.8-12.1
		c-5.4-3.9-11.1-7.7-16.8-11.3c1.2-0.6,2.1-1.6,2.8-3.1c2.5-5.8,0.2-12.7-4.9-16.3c-4.3-3-12.8-5.4-16,0.2c-1.5,2.6-1.8,5.6-1.3,8.5
		c-1.8-0.8-3.5-1.7-5.3-2.4c-10.8-4.7-24.9-6.6-34.4,1.9c-8.6,7.6-8.9,21.6-1.5,30.1c-0.3,0.7-0.6,1.4-0.8,2.1c-0.3,1,0,1.8,0.6,2.4
		c-1.4,7.6-3.3,15-5.8,22.3c-1.2,3.4-2.5,6.8-4,10.1c-1.3,3-3.5,6.2-4.1,9.5c-1.1,5.4,3.6,7.9,7.5,10.5c7,4.8,14.1,9.6,21.1,14.4
		c3.3,2.2,6.5,4.4,9.8,6.6c2.8,1.9,6,4.9,9.2,6.1c5.2,2,8.8-4.1,11.9-7.3c11.7-12.2,23.5-24.4,35.2-36.7c0.4-0.5,0.7-1,0.8-1.5
		C1173.7,668.4,1178.8,661.3,1179.9,653.3z M1131.6,600.6c0.2-2.3,0.4-3.7,3.4-3.8c1.9-0.1,4.1,0.9,5.6,1.9c3.1,2.1,5,5.8,4,9.5
		c-1,3.9-6.9,0.2-8.7-1.4c-1-0.9-2.1-0.7-2.8,0c-0.1-0.1-0.2-0.1-0.3-0.2C1131.8,604.8,1131.4,602.8,1131.6,600.6z M1129.2,610.5
		c0.5,0.8,1.1,1.6,1.7,2.4c0.9,1.1,2.2,1,3.1,0.5c1.6,0.9,3.2,1.9,4.7,2.8c6.5,3.8,12.8,7.8,19,12.1c5.2,3.6,10.8,7.4,14.3,12.8
		c-1.9,2.1-3.4,4.4-5.5,6.5c-5,4.8-7.7,0.5-10-4c-1.3-2.7-2.9-5.6-5.9-6.8c-4.6-1.9-9.2,0.6-13.7-2.6c-3.8-2.7-4.2-7.9-8-10.4
		c-3.9-2.5-9.1-1.5-13.5-1.8c-5.3-0.4-10.5-1.7-15.4-3.6c-3.4-1.4-7.6-3.3-6-7.5c0.8-2.2,2.7-4.1,4.3-5.7c0.7-0.7,0.9-1.6,0.7-2.3
		C1109.5,600.5,1119.8,605.2,1129.2,610.5z M1090.8,606.7c-3.1,5.5-2.9,11.3,4.7,14.9c5.7,2.7,11.8,4.3,18.1,5c3.1,0.3,7-0.4,10,0.4
		c4.6,1.2,5.1,5.8,7.9,8.8c3.5,3.8,8.4,5.6,13.5,5.5c4.4-0.2,5.2,0.6,7.1,4.4c1,2,1.8,4,3.2,5.7c2.5,3.1,6.2,4.2,9.9,2.9
		c4.3-1.6,6.3-5.4,9-8.6c2.7,9.1-2.5,19.4-11.7,22.5c-2.3-0.6-4.7-0.6-7.3-0.6c-2.9,0.1-6.9,0.6-9.3-1.5c-4.1-3.7,2.6-10.9-2.8-15
		c-1.7-1.2-3.6-1.1-5.5-0.6c-2.4,0.7-6.6,4.8-8.9,4.6c-1.3-0.8-2.5-1.6-3.8-2.4c0-0.9,0.1-1.8,0.3-2.7c0.2-1.3,0.5-2.6,0.5-4
		c0-2.5-0.7-4.4-2.4-6.2c-1.2-1.2-3-1.1-4,0.3c-3.4,4.5-9.5,6.7-14.9,4.6c-5.8-2.2-7-6.9-8.4-12.2c-0.6-2.4-2.4-4.1-5-4
		c-1,0-1.8,0.3-2.6,0.7C1082.9,621.9,1084.5,612.2,1090.8,606.7z M1095.4,695.4c-2.2-1.5-4.4-3-6.6-4.5
		c9.8-11.6,15.7-25.7,17.1-40.7c4.7,0.8,9.4-0.5,13.2-3.2c-0.1,0.2-0.2,0.4-0.2,0.7C1115.3,665.5,1107.3,681.9,1095.4,695.4z
		 M1120.7,645.8c0,0.1,0,0.1,0,0.2c-0.1,0-0.2,0-0.3,0C1120.6,646,1120.7,645.9,1120.7,645.8z M1076.1,680.6
		c-0.1-1.8,2.5-5.5,3.3-7.2c5.3-11.8,8.9-24.2,11-37c0.1-0.5,0-1-0.2-1.4c0.3-0.2,0.7-0.2,1.1,0.4c0.3,0.4,0.4,1.8,0.6,2.4
		c0.5,1.7,1.3,3.3,2.3,4.7c1.7,2.6,4.1,4.7,6.8,6.1c-1.2,14.7-6.9,28.3-16.4,39.5c-0.2-0.2-0.5-0.3-0.7-0.5
		C1081.6,686.1,1076.3,683.8,1076.1,680.6z M1101,699.2c-0.5-0.3-1-0.7-1.5-1c10.2-11.7,17.6-25.3,22-40.1c0.3,0.4,0.7,0.8,1.1,1.2
		c1.9,1.6,4.3,1.6,6.6,1c1.6-0.4,3-1.3,4.5-2.1c1-0.5,2-1.1,3-1.6c0.4-0.4,0.8-0.7,1.1-0.8c-1,9.7-3.9,19.1-8.8,27.6
		c-5,8.6-12,15.1-18.8,22.1c-0.1-0.1-0.2-0.1-0.2-0.2C1106.9,703.3,1103.9,701.3,1101,699.2z M1133.5,699.9c-2.5,2.6-5,5.2-7.5,7.8
		c-1.1,1.2-2.1,2.5-3.4,3.5c-1.9,1.5-1.8,1.1-3.8,0.2c-1.6-0.7-3.1-1.8-4.7-2.9c7.3-7.5,14.6-14.4,19.7-23.8
		c3-5.5,5.2-11.2,6.8-17.2c0.7,1.2,1.8,2.3,3.1,3.1c4.7,2.9,9.9,1.6,14.9,2.1c0.1,0.2,0.3,0.4,0.4,0.5
		C1150.6,682,1142,690.9,1133.5,699.9z"/>
	<path class="st0" d="M162.4,42.9c-2.4-3.4-5.5-5.7-9-7.2c0.2-2.7-3.9-4.2-4.7-1.5c-5.7-1.2-11.9-0.9-17.6-0.1
		c-6.6,0.8-13.3,1.9-20,3.2c0.5-1.2,0.5-2.6-0.1-4.2c-2.2-6-8.5-9.4-14.7-8.7c-5.2,0.7-13.1,4.7-11.6,11c0.7,2.9,2.5,5.3,4.8,7.1
		c-1.9,0.6-3.7,1.2-5.6,1.8c-11.1,3.9-22.7,12.1-24,24.8c-1.1,11.5,8.2,21.9,19.3,23.2c0.3,0.7,0.6,1.4,0.9,2.1
		c0.5,0.9,1.3,1.3,2.1,1.4c4.1,6.5,7.8,13.2,10.9,20.3c1.5,3.3,2.8,6.7,4,10.1c1.1,3.1,1.7,6.9,3.4,9.8c2.9,4.7,8,3.3,12.6,2.6
		c8.4-1.3,16.8-2.5,25.3-3.8c3.9-0.6,7.8-1.2,11.7-1.8c3.3-0.5,7.8-0.5,10.9-1.8c5.1-2.1,3.7-9,3.8-13.4c0.3-17,0.6-33.9,0.9-50.9
		c0-0.6-0.2-1.2-0.4-1.6C168.1,58.1,167,49.5,162.4,42.9z M91.1,37c-1.4-1.8-2.2-3-0.1-5.1c1.3-1.3,3.7-2.1,5.4-2.4
		c3.7-0.6,7.6,0.9,9.4,4.3c1.9,3.6-4.9,4.8-7.4,4.9c-1.3,0-2,0.9-2,1.9c-0.1,0-0.2,0.1-0.3,0.1C94.2,39.9,92.4,38.7,91.1,37z
		 M96,45.9c1,0.3,1.9,0.5,2.9,0.6c1.4,0.2,2.3-0.7,2.6-1.8c1.8-0.4,3.6-0.8,5.3-1.1c7.3-1.6,14.7-3,22.1-4.1
		c6.3-0.9,13-1.9,19.2-0.3c0.1,2.8,0.6,5.5,0.4,8.5c-0.4,7-5.4,5.6-10.1,3.8c-2.8-1.1-5.9-2.1-8.9-1c-4.7,1.8-6.3,6.7-11.8,7.4
		c-4.6,0.6-8.4-3-13-2.2c-4.6,0.8-7.6,5.1-11.1,7.8c-4.2,3.3-8.8,5.9-13.8,7.8c-3.4,1.3-7.8,2.7-9.5-1.5c-0.9-2.2-0.8-4.8-0.7-7.1
		c0-1-0.4-1.7-1.1-2.2C74.8,51.9,85.6,48.3,96,45.9z M65.3,69.2c1.4,6.1,5.5,10.3,13.6,7.8c6-1.9,11.6-4.9,16.7-8.6
		c2.5-1.9,4.9-5,7.6-6.5c4.2-2.3,7.7,0.8,11.8,1.1c5.1,0.4,10-1.6,13.6-5.2c3.1-3.1,4.3-3.1,8.2-1.7c2.1,0.8,4,1.7,6.2,2.1
		c3.9,0.6,7.4-1.1,9.2-4.7c2.1-4.1,1-8.2,0.8-12.4c8.2,4.8,11.3,15.9,6.8,24.5c-2.1,1.1-3.9,2.7-5.7,4.5c-2.1,2-4.7,5.1-7.8,5.2
		c-5.5,0.1-5.5-9.8-12.3-9.1c-2.1,0.2-3.4,1.6-4.4,3.3c-1.3,2.1-1.6,8-3.4,9.4c-1.5,0.3-2.9,0.6-4.4,0.8c-0.6-0.7-1.1-1.4-1.6-2.2
		c-0.8-1.1-1.4-2.2-2.3-3.2c-1.7-1.8-3.5-2.8-6-3c-1.7-0.1-2.9,1.2-2.7,2.9c0.5,5.6-2.4,11.4-7.8,13.5c-5.7,2.3-9.8-0.3-14.5-3.2
		c-2.1-1.3-4.5-1.4-6.4,0.4c-0.7,0.7-1.2,1.4-1.4,2.2C69.9,85.7,64.4,77.5,65.3,69.2z M129,131.2c-2.6,0.4-5.2,0.8-7.9,1.2
		c-0.7-15.1-6-29.5-15.1-41.5c4-2.6,6.6-6.7,7.6-11.3c0.1,0.2,0.1,0.4,0.3,0.7C123.2,95.6,128.5,113.1,129,131.2z M113.9,77.5
		c0,0,0.1,0.1,0.1,0.1c-0.1,0.1-0.1,0.1-0.2,0.2C113.8,77.8,113.8,77.7,113.9,77.5z M104.7,133.4c-1.3-1.3-1.9-5.8-2.5-7.5
		c-4.1-12.3-10-23.8-17-34.7c-0.3-0.5-0.7-0.7-1.1-0.9c0.1-0.4,0.4-0.6,1.1-0.5c0.5,0.1,1.5,1.1,2,1.4c1.5,0.9,3.1,1.5,4.9,1.9
		c3,0.7,6.2,0.7,9.2-0.2c9.1,11.6,14.1,25.4,14.8,40.1c-0.3,0-0.6,0.1-0.9,0.1C112.5,133.6,107,135.6,104.7,133.4z M135.7,130.2
		c-0.6,0.1-1.2,0.2-1.8,0.3c-0.5-15.5-4.3-30.6-11.1-44.4c0.5,0.1,1.1,0.2,1.6,0.1c2.5-0.2,4.2-1.7,5.5-3.8c0.9-1.4,1.3-3,1.9-4.6
		c0.4-1.1,0.7-2.1,1.1-3.2c0-0.6,0.1-1,0.3-1.3c5.8,7.8,10.1,16.7,12.3,26.2c2.2,9.7,1.5,19.2,1.2,29c-0.1,0-0.2,0-0.3,0
		C142.8,129.1,139.2,129.6,135.7,130.2z M159.9,108.5c-0.1,3.6-0.1,7.2-0.2,10.8c0,1.6,0.1,3.3-0.1,4.9c-0.4,2.4-0.6,2.1-2.6,2.7
		c-1.6,0.6-3.5,0.8-5.4,1c0.3-10.5,0.9-20.5-1.7-30.9c-1.5-6-3.8-11.8-6.7-17.2c1.4,0.4,2.9,0.4,4.4,0.2c5.4-1,8.4-5.6,12.4-8.6
		c0.2,0.1,0.5,0.1,0.7,0.1C160.4,83.8,160.1,96.2,159.9,108.5z"/>
	<path class="st0" d="M910.4,325.2c0.6-4.2-0.2-7.9-1.7-11.4c2-1.9,0-5.7-2.4-4.3c-3.3-4.7-8.1-8.7-12.8-12.1
		c-5.4-3.9-11.1-7.7-16.8-11.3c1.2-0.6,2.1-1.6,2.8-3.1c2.5-5.8,0.2-12.7-4.9-16.3c-4.3-3-12.8-5.4-16,0.2c-1.5,2.6-1.8,5.6-1.3,8.5
		c-1.8-0.8-3.5-1.7-5.3-2.4c-10.8-4.7-24.9-6.6-34.4,1.9c-8.6,7.6-8.9,21.6-1.5,30.1c-0.3,0.7-0.6,1.4-0.8,2.1c-0.3,1,0,1.8,0.6,2.4
		c-1.4,7.6-3.3,15-5.8,22.3c-1.2,3.4-2.5,6.8-4,10.1c-1.3,3-3.5,6.2-4.1,9.5c-1.1,5.4,3.6,7.9,7.5,10.5c7,4.8,14.1,9.6,21.1,14.4
		c3.3,2.2,6.5,4.4,9.8,6.6c2.8,1.9,6,4.9,9.2,6.1c5.2,2,8.8-4.1,11.9-7.3c11.7-12.2,23.5-24.4,35.2-36.7c0.4-0.5,0.7-1,0.8-1.5
		C904.2,340.2,909.3,333.2,910.4,325.2z M862,272.4c0.2-2.3,0.4-3.7,3.4-3.8c1.9-0.1,4.1,0.9,5.6,1.9c3.1,2.1,5,5.8,4,9.5
		c-1,3.9-6.9,0.2-8.7-1.4c-1-0.9-2.1-0.7-2.8,0c-0.1-0.1-0.2-0.1-0.3-0.2C862.3,276.7,861.8,274.6,862,272.4z M859.7,282.3
		c0.5,0.8,1.1,1.6,1.7,2.4c0.9,1.1,2.2,1,3.1,0.5c1.6,0.9,3.2,1.9,4.7,2.8c6.5,3.8,12.8,7.8,19,12.1c5.2,3.6,10.8,7.4,14.3,12.8
		c-1.9,2.1-3.4,4.4-5.5,6.5c-5,4.8-7.7,0.5-10-4c-1.3-2.7-2.9-5.6-5.9-6.8c-4.6-1.9-9.2,0.6-13.7-2.6c-3.8-2.7-4.2-7.9-8-10.4
		c-3.9-2.5-9.1-1.5-13.5-1.8c-5.3-0.4-10.5-1.7-15.4-3.6c-3.4-1.4-7.6-3.3-6-7.5c0.8-2.2,2.7-4.1,4.3-5.7c0.7-0.7,0.9-1.6,0.7-2.3
		C839.9,272.3,850.3,277,859.7,282.3z M821.3,278.5c-3.1,5.5-2.9,11.3,4.7,14.9c5.7,2.7,11.8,4.3,18.1,5c3.1,0.3,7-0.4,10,0.4
		c4.6,1.2,5.1,5.8,7.9,8.8c3.5,3.8,8.4,5.6,13.5,5.5c4.4-0.2,5.2,0.6,7.1,4.4c1,2,1.8,4,3.2,5.7c2.5,3.1,6.2,4.2,9.9,2.9
		c4.3-1.6,6.3-5.4,9-8.6c2.7,9.1-2.5,19.4-11.7,22.5c-2.3-0.6-4.7-0.6-7.3-0.6c-2.9,0.1-6.9,0.6-9.3-1.5c-4.1-3.7,2.6-10.9-2.8-15
		c-1.7-1.2-3.6-1.1-5.5-0.6c-2.4,0.7-6.6,4.8-8.9,4.6c-1.3-0.8-2.5-1.6-3.8-2.4c0-0.9,0.1-1.8,0.3-2.7c0.2-1.3,0.5-2.6,0.5-4
		c0-2.5-0.7-4.4-2.4-6.2c-1.2-1.2-3-1.1-4,0.3c-3.4,4.5-9.5,6.7-14.9,4.6c-5.8-2.2-7-6.9-8.4-12.2c-0.6-2.4-2.4-4.1-5-4
		c-1,0-1.8,0.3-2.6,0.7C813.4,293.7,815,284,821.3,278.5z M825.8,367.3c-2.2-1.5-4.4-3-6.6-4.5c9.8-11.6,15.7-25.7,17.1-40.7
		c4.7,0.8,9.4-0.5,13.2-3.2c-0.1,0.2-0.2,0.4-0.2,0.7C845.8,337.3,837.8,353.7,825.8,367.3z M851.2,317.6c0,0.1,0,0.1,0,0.2
		c-0.1,0-0.2,0-0.3,0C851,317.8,851.1,317.7,851.2,317.6z M806.6,352.4c-0.1-1.8,2.5-5.5,3.3-7.2c5.3-11.8,8.9-24.2,11-37
		c0.1-0.5,0-1-0.2-1.4c0.3-0.2,0.7-0.2,1.1,0.4c0.3,0.4,0.4,1.8,0.6,2.4c0.5,1.7,1.3,3.3,2.3,4.7c1.7,2.6,4.1,4.7,6.8,6.1
		c-1.2,14.7-6.9,28.3-16.4,39.5c-0.2-0.2-0.5-0.3-0.7-0.5C812.1,357.9,806.7,355.6,806.6,352.4z M831.4,371.1c-0.5-0.3-1-0.7-1.5-1
		c10.2-11.7,17.6-25.3,22-40.1c0.3,0.4,0.7,0.8,1.1,1.2c1.9,1.6,4.3,1.6,6.6,1c1.6-0.4,3-1.3,4.5-2.1c1-0.5,2-1.1,3-1.6
		c0.4-0.4,0.8-0.7,1.1-0.8c-1,9.7-3.9,19.1-8.8,27.6c-5,8.6-12,15.1-18.8,22.1c-0.1-0.1-0.2-0.1-0.2-0.2
		C837.4,375.1,834.4,373.1,831.4,371.1z M863.9,371.7c-2.5,2.6-5,5.2-7.5,7.8c-1.1,1.2-2.1,2.5-3.4,3.5c-1.9,1.5-1.8,1.1-3.8,0.2
		c-1.6-0.7-3.1-1.8-4.7-2.9c7.3-7.5,14.6-14.4,19.7-23.8c3-5.5,5.2-11.2,6.8-17.2c0.7,1.2,1.8,2.3,3.1,3.1c4.7,2.9,9.9,1.6,14.9,2.1
		c0.1,0.2,0.3,0.4,0.4,0.5C881.1,353.9,872.5,362.8,863.9,371.7z"/>
	<path class="st0" d="M185,851.3c-2.2-3.6-5.2-6-8.6-7.6c0.4-2.7-3.6-4.4-4.6-1.7c-5.6-1.5-11.8-1.5-17.6-1.1
		c-6.7,0.5-13.4,1.2-20.2,2.1c0.5-1.2,0.6-2.6,0.2-4.2c-1.8-6.1-8-9.9-14.2-9.4c-5.2,0.4-13.3,4-12.2,10.3c0.5,2.9,2.2,5.4,4.4,7.4
		c-1.9,0.5-3.8,1-5.7,1.5c-11.3,3.3-23.3,10.8-25.3,23.5c-1.8,11.4,7,22.3,18.1,24.1c0.2,0.7,0.5,1.4,0.8,2.1c0.4,1,1.2,1.4,2,1.5
		c3.8,6.7,7.1,13.6,9.8,20.8c1.3,3.4,2.4,6.8,3.4,10.3c0.9,3.2,1.3,7,2.9,9.9c2.6,4.8,7.8,3.8,12.5,3.3c8.5-0.8,17-1.6,25.4-2.5
		c3.9-0.4,7.8-0.8,11.7-1.2c3.4-0.3,7.8-0.1,11-1.2c5.2-1.8,4.1-8.8,4.5-13.2c1.2-16.9,2.4-33.8,3.6-50.7c0-0.6-0.1-1.2-0.4-1.6
		C189.9,866.8,189.3,858.2,185,851.3z M114.1,841.8c-1.3-1.9-2-3.1,0.2-5.1c1.4-1.2,3.8-1.9,5.6-2.1c3.7-0.4,7.5,1.3,9.2,4.8
		c1.7,3.7-5.2,4.5-7.6,4.5c-1.3,0-2,0.8-2.1,1.8c-0.1,0-0.2,0-0.3,0.1C117.1,844.8,115.4,843.5,114.1,841.8z M118.6,850.8
		c0.9,0.3,1.9,0.6,2.8,0.7c1.4,0.2,2.3-0.6,2.7-1.6c1.8-0.3,3.6-0.6,5.4-0.9c7.4-1.2,14.8-2.2,22.3-2.9c6.3-0.6,13.1-1.2,19.2,0.7
		c-0.1,2.8,0.3,5.5-0.1,8.5c-0.7,6.9-5.7,5.3-10.2,3.3c-2.8-1.2-5.8-2.4-8.9-1.5c-4.7,1.5-6.6,6.4-12.2,6.8
		c-4.7,0.4-8.3-3.4-12.9-2.9c-4.6,0.5-7.9,4.7-11.5,7.2c-4.3,3-9.1,5.4-14.2,7.1c-3.5,1.1-7.9,2.3-9.4-2c-0.8-2.2-0.5-4.8-0.3-7.1
		c0.1-1-0.3-1.8-1-2.3C97.1,855.8,108,852.8,118.6,850.8z M86.7,872.5c1.1,6.2,5,10.6,13.1,8.5c6.1-1.6,11.9-4.2,17.1-7.7
		c2.6-1.7,5.1-4.8,7.9-6.1c4.3-2.1,7.6,1.2,11.7,1.7c5.1,0.7,10.1-1.1,13.9-4.5c3.3-2.9,4.4-2.9,8.3-1.2c2,0.9,3.9,2,6.1,2.4
		c3.9,0.8,7.5-0.7,9.5-4.2c2.3-3.9,1.4-8.2,1.4-12.4c7.9,5.3,10.5,16.5,5.5,24.8c-2.2,1-4,2.5-6,4.2c-2.2,1.9-4.9,4.9-8.1,4.7
		c-5.5-0.2-5-10.1-11.8-9.7c-2.1,0.1-3.5,1.5-4.6,3.1c-1.4,2-2,7.9-3.9,9.2c-1.5,0.2-3,0.4-4.5,0.6c-0.6-0.7-1.1-1.4-1.5-2.2
		c-0.7-1.1-1.3-2.3-2.2-3.4c-1.6-1.9-3.4-3-5.8-3.3c-1.7-0.2-2.9,1.1-2.9,2.7c0.2,5.6-3,11.2-8.5,13.1c-5.9,2-9.8-0.8-14.3-4
		c-2-1.4-4.5-1.6-6.4,0.1c-0.7,0.6-1.2,1.4-1.5,2.2C90.4,889.2,85.4,880.8,86.7,872.5z M147,937.8c-2.6,0.3-5.3,0.5-7.9,0.8
		c0.1-15.2-4.4-29.8-12.9-42.3c4.1-2.4,6.9-6.4,8.1-10.9c0,0.2,0.1,0.4,0.2,0.7C143.2,902,147.5,919.7,147,937.8z M134.8,883.4
		c0,0,0.1,0.1,0.1,0.1c-0.1,0.1-0.1,0.1-0.2,0.2C134.7,883.6,134.7,883.5,134.8,883.4z M122.7,938.7c-1.2-1.3-1.6-5.8-2.1-7.7
		c-3.5-12.5-8.7-24.3-15.2-35.5c-0.3-0.5-0.6-0.8-1-0.9c0.1-0.4,0.4-0.6,1.1-0.4c0.5,0.1,1.5,1.2,2,1.5c1.5,1,3.1,1.7,4.8,2.2
		c3,0.9,6.1,1,9.2,0.3c8.5,12.1,12.8,26.1,12.7,40.9c-0.3,0-0.6,0.1-0.9,0.1C130.5,939.4,124.9,941.1,122.7,938.7z M153.7,937.1
		c-0.6,0.1-1.2,0.1-1.8,0.2c0.3-15.5-2.6-30.7-8.8-44.9c0.5,0.1,1,0.2,1.6,0.2c2.5,0,4.3-1.5,5.7-3.5c0.9-1.4,1.5-3,2.1-4.5
		c0.4-1,0.8-2.1,1.3-3.1c0-0.6,0.2-1,0.4-1.3c5.4,8.1,9.2,17.2,10.9,26.8c1.7,9.8,0.4,19.2-0.3,29c-0.1,0-0.2,0-0.3,0
		C160.9,936.4,157.3,936.8,153.7,937.1z M179.1,916.8c-0.3,3.6-0.5,7.2-0.8,10.7c-0.1,1.6,0,3.3-0.3,4.9c-0.5,2.4-0.7,2-2.7,2.6
		c-1.7,0.5-3.6,0.6-5.4,0.8c0.8-10.4,2-20.4-0.1-30.9c-1.2-6.1-3.2-12-5.8-17.5c1.4,0.5,2.8,0.6,4.3,0.4c5.5-0.7,8.7-5.1,12.8-8
		c0.2,0.1,0.5,0.1,0.7,0.1C180.9,892.1,180,904.5,179.1,916.8z"/>
	<g>
		<path class="st0" d="M386.1,652.4c-15.5-16-40.5-10.7-58.4-22.3c-2.7-1.8-5.1,2.6-2.4,4.4c0.3,0.2,0.6,0.4,1,0.6
			c0,0-0.1,0.1-0.1,0.1c-12,13.4-23.5,27.3-34.4,41.6c-9.4,12.3-18.6,24.7-23.7,39.4c-1.1,3,3.8,4.3,4.8,1.2c0-0.1,0.1-0.2,0.1-0.3
			c0,0.9,0.5,1.8,1.2,2.3c-0.2,0.6-0.2,1.3,0.2,2c6.4,11.7,11.7,23.8,15.7,36.5c0.1,0.3,0.2,0.6,0.4,0.8c0.3,1.3,1.4,2.5,3.1,2.2
			c27.7-5.5,55.5-11.1,82-21.1c0.3,0.9,1,1.7,2.3,1.8c7.5,0.3,11.6-6.1,12.8-12.8c1.5-8.6,1.9-17.5,2.2-26.2
			c0.4-9.2,0.4-18.5-0.2-27.7c-0.5-7.3-1.9-14.1-5.9-20.1C386.9,654.1,386.8,653.2,386.1,652.4z M297.6,677.2
			c10.2-13.2,20.9-26.1,32.1-38.5c0.4-0.4,0.6-0.9,0.6-1.4c15.6,7.1,35.3,5.3,48.9,15.8c-35.1,20.7-70.1,41.4-105.2,62.2
			c-0.3,0.2-0.5,0.4-0.7,0.6C278.8,701.5,288.4,689.2,297.6,677.2z M387.9,697.1c0,0.1,0,0.3,0,0.4c-6.4,0-12.5,3.1-15.6,9.1
			c-0.9,1.8-1.1,5.2-2.4,6.5c-2.8,2.8-7.6,0.3-10.7-0.6c-3.1-1-7.2-3.4-9.3,0.3c-0.8,1.5-0.3,3.1-1.6,4.5c-1.6,1.9-6.4,3.4-8.7,4.6
			c-5.5,2.9-11,5.8-16.5,8.7c-10.5,5.5-21.1,11.1-31.6,16.6c-1.4-3.9-3-7.7-4.6-11.4c7.4-7.5,18.5-8.7,27.9-12.3
			c4-1.5,7.8-3.3,11-6.1c1.7-1.5,3.1-3.1,4.2-5c2-3.1,2.8-6.2,7.1-4.8c3.7,1.3,6.6,2.3,10.4,0.6c3.7-1.6,5.2-4.3,6.7-7.9
			c2.4-5.8,11.9-8.9,17.4-11.9c5.5-3,11-6,16.5-8.9C388.4,685.7,388,691.8,387.9,697.1z M377.7,736.6
			C377.7,736.6,377.7,736.6,377.7,736.6c-0.3-1.3-1.4-2.4-3-1.8c-25.9,9.9-53.1,15.5-80.3,20.9c-0.4-1.2-0.8-2.5-1.2-3.7
			c10.2-5.4,20.5-10.8,30.7-16.1c5.2-2.7,10.5-5.5,15.7-8.2c4-2.1,11-4.2,13.7-7.9c0.7-1,0.5-2.5,1-3.4c0,0,0-0.1,0-0.1
			c0.1,0.1,0.4,0.2,0.7,0.2c1.6,0.4,3.1,1,4.7,1.4c3.3,1,7.4,2.9,10.8,1.3c3.7-1.7,4.3-5.8,5.7-9.1c1.9-4.7,6.5-7.6,11.4-7.5
			c-0.2,5-0.5,10-1,15C386.2,723.5,386.6,736.9,377.7,736.6z M387.8,674c-6.2,3.4-12.4,6.8-18.6,10.1c-5.4,2.9-12.5,5.5-17.2,9.6
			c-3.8,3.2-1.8,9.3-8,10.4c-4.6,0.8-7.7-4.2-12.5-1.7c-4,2.2-5.1,7.5-8.3,10.6c-3.9,3.8-9.3,5.6-14.4,7.2
			c-8.5,2.7-17.4,4.7-24.1,10.7c-1.9-4.1-4-8.1-6.1-12.1c-0.1-0.2-0.2-0.3-0.3-0.4c34.6-20.5,69.3-40.9,103.9-61.4
			C385.6,661.8,387.2,667.8,387.8,674z"/>
		<path class="st0" d="M330.2,673.7c4.9,0.7,12.4,0.9,12.7-5.6c0.3-5-3.5-9.5-8.1-11.2c-5.7-2.1-11.8-0.1-16.8,2.9
			c-2,1.2-1.2,3.7,0.4,4.5c0,0.3,0,0.7,0.2,1.1C320.6,670.5,325,673,330.2,673.7z M337.5,665.5c1.8,3.9-3.4,3.6-6,3.3
			c-3.2-0.3-6.8-1.4-8-4.7c-0.2-0.5-0.4-0.8-0.8-1.1C327.7,660.7,334.7,659.5,337.5,665.5z"/>
		<path class="st0" d="M349.8,656.5c2.8-1.6,0.2-5.9-2.5-4.3C344.4,653.8,347,658.1,349.8,656.5z"/>
		<path class="st0" d="M306.4,683.3c2.8-1.6,0.2-5.9-2.5-4.3C301,680.7,303.6,685,306.4,683.3z"/>
		<path class="st0" d="M337.1,648.9c2.8-1.6,0.2-5.9-2.5-4.3C331.8,646.2,334.3,650.5,337.1,648.9z"/>
	</g>
	<g>
		<path class="st0" d="M842.2,707.3c4.1-21.9-14.7-39.3-15.6-60.5c-0.1-3.2-5.1-2.7-5,0.5c0,0.4,0,0.7,0.1,1.1c0,0-0.1,0-0.1,0
			c-17.9-2-35.8-3.4-53.8-4c-15.4-0.5-30.9-0.9-45.9,3.4c-3.1,0.9-1.3,5.6,1.8,4.7c0.1,0,0.2,0,0.3-0.1c-0.7,0.5-1.2,1.4-1.2,2.3
			c-0.6,0.2-1.2,0.6-1.5,1.3c-5.8,12-12.7,23.3-20.7,33.9c-0.2,0.3-0.3,0.5-0.4,0.8c-0.9,1-1.2,2.6,0,3.7
			c20.5,19.5,41.1,38.9,64.7,54.7c-0.6,0.8-0.8,1.9-0.1,2.9c4.1,6.3,11.7,5.9,17.8,3c7.9-3.7,15.4-8.6,22.6-13.3
			c7.7-5,15.3-10.3,22.4-16.2c5.6-4.6,10.4-9.7,13-16.4C841.3,709,842,708.4,842.2,707.3z M770.9,649.4c16.7,0.7,33.4,2,50,3.9
			c0.6,0.1,1.1,0,1.5-0.3c3.2,16.8,16.1,31.9,15.4,49c-37.2-16.6-74.3-33.2-111.5-49.9c-0.3-0.1-0.6-0.2-0.9-0.2
			C740.2,648.1,755.7,648.8,770.9,649.4z M806.8,734.6c-0.1,0.1-0.2,0.1-0.3,0.2c-3.7-5.2-9.8-8.4-16.4-7.5c-2,0.3-4.9,2.1-6.7,1.8
			c-3.9-0.7-4.6-6-5.7-9.1c-1-3.1-1.4-7.8-5.6-7.3c-1.7,0.2-2.7,1.5-4.6,1.3c-2.5-0.2-6.5-3.3-8.8-4.5c-5.6-2.8-11.1-5.6-16.7-8.5
			c-10.6-5.4-21.2-10.8-31.8-16.2c2.3-3.4,4.5-6.9,6.6-10.4c10.4,1.7,17.8,10,26.1,15.7c3.5,2.4,7.2,4.5,11.4,5.5
			c2.1,0.5,4.3,0.7,6.5,0.6c3.7-0.2,6.7-1.3,8,3c1.1,3.8,1.9,6.7,5.6,8.9c3.5,2.1,6.6,1.8,10.3,0.9c6.2-1.4,14.2,4.6,19.8,7.3
			c5.6,2.8,11.2,5.5,16.8,8.3C816.4,728.4,811.2,731.6,806.8,734.6z M768.7,749.1C768.7,749.1,768.7,749.1,768.7,749.1
			c0.9-1,1.2-2.5-0.2-3.5c-23.1-15.5-43.4-34.4-63.5-53.5c0.8-1,1.5-2.1,2.3-3.1c10.3,5.2,20.6,10.5,30.9,15.7
			c5.3,2.7,10.5,5.3,15.8,8c4,2,9.8,6.6,14.4,6.6c1.2,0,2.3-1.1,3.3-1.1c0,0,0.1,0,0.1,0c0,0.2,0.1,0.4,0.2,0.7
			c0.6,1.5,1,3.1,1.5,4.6c1.1,3.3,1.9,7.7,5.2,9.6c3.5,2,7.2,0.2,10.7-0.6c4.9-1.1,9.9,0.9,12.7,5c-4.2,2.7-8.5,5.4-12.8,7.9
			C784.3,748.6,773.5,756.6,768.7,749.1z M825.6,721.2c-6.3-3.1-12.7-6.2-19-9.3c-5.5-2.7-11.8-7-17.8-8.5c-4.8-1.2-8.6,4-13.1-0.5
			c-3.3-3.3-1-8.7-5.9-11.2c-4.1-2-9.1,0.2-13.4-0.6c-5.4-1-9.9-4.3-14.2-7.5c-7.1-5.4-13.9-11.5-22.7-13.5c2.2-3.9,4.3-7.9,6.3-12
			c0.1-0.2,0.1-0.3,0.2-0.5c36.7,16.4,73.4,32.8,110.2,49.3C834.2,712.4,830.3,717.1,825.6,721.2z"/>
		<path class="st0" d="M792.5,674c2.3,4.3,6.4,10.7,11.9,7.2c4.2-2.7,5.7-8.4,4.5-13c-1.5-5.9-6.8-9.7-12.1-12
			c-2.1-0.9-3.8,1.2-3.4,2.9c-0.3,0.2-0.6,0.4-0.8,0.8C789.6,664.3,790.1,669.3,792.5,674z M803.4,675.2c-2.2,3.7-4.9-0.7-6.2-3
			c-1.6-2.8-2.8-6.4-0.8-9.3c0.3-0.4,0.4-0.8,0.4-1.2C801.7,664.5,806.7,669.5,803.4,675.2z"/>
		<path class="st0" d="M817.9,680c2.9,1.3,5-3.2,2-4.6C817,674.1,814.9,678.7,817.9,680z"/>
		<path class="st0" d="M770.9,660.1c2.9,1.3,5-3.2,2-4.6C770,654.2,768,658.8,770.9,660.1z"/>
		<path class="st0" d="M816.8,665.3c2.9,1.3,5-3.2,2-4.6C815.9,659.4,813.8,664,816.8,665.3z"/>
	</g>
	<g>
		<path class="st0" d="M1167,345.9c-9.7-20.1-35-23-48.3-39.7c-2-2.5-5.7,0.9-3.7,3.4c0.2,0.3,0.5,0.6,0.7,0.9c0,0-0.1,0-0.1,0.1
			c-15.6,8.9-30.9,18.4-45.8,28.5c-12.8,8.7-25.5,17.5-35,29.8c-2,2.5,2.2,5.2,4.2,2.7c0.1-0.1,0.1-0.1,0.2-0.2
			c-0.3,0.8-0.1,1.8,0.4,2.5c-0.4,0.5-0.6,1.2-0.5,2c2.4,13.1,3.5,26.3,3.3,39.6c0,0.3,0.1,0.6,0.1,0.9c-0.2,1.3,0.5,2.8,2.2,3
			c28,3.6,56.2,7.1,84.5,6c0,1,0.4,2,1.6,2.4c7,2.7,12.9-2.1,16.1-8c4.2-7.6,7.4-16,10.4-24.1c3.3-8.6,6.3-17.4,8.6-26.3
			c1.8-7,2.7-14,0.8-20.9C1167.3,347.8,1167.5,346.9,1167,345.9z M1075.3,341.3c13.9-9.3,28.1-18.1,42.6-26.3c0.5-0.3,0.8-0.7,1-1.1
			c12.5,11.7,31.8,16.2,41.4,30.5c-39.8,8.5-79.6,17-119.5,25.6c-0.3,0.1-0.6,0.2-0.8,0.3C1049.7,358.4,1062.7,349.8,1075.3,341.3z
			 M1154.6,388.9c0,0.1-0.1,0.3-0.1,0.4c-6-2.1-12.9-1-17.6,3.6c-1.4,1.4-2.7,4.6-4.4,5.4c-3.6,1.7-7.3-2.1-9.9-4
			c-2.7-1.9-5.7-5.5-8.9-2.6c-1.3,1.2-1.3,2.8-2.9,3.8c-2.1,1.3-7.2,1.2-9.7,1.6c-6.2,1-12.3,2-18.5,3c-11.7,1.9-23.5,3.8-35.2,5.7
			c-0.1-4.1-0.4-8.2-0.8-12.3c9.4-4.7,20.3-2.4,30.4-2.8c4.2-0.2,8.5-0.7,12.4-2.3c2-0.8,3.9-2,5.6-3.4c2.8-2.3,4.7-5,8.2-2.3
			c3.1,2.4,5.5,4.3,9.7,3.9c4.1-0.4,6.4-2.4,8.9-5.3c4.2-4.8,14.2-4.6,20.3-5.7c6.1-1.1,12.3-2.2,18.4-3.3
			C1158.7,378.2,1156.3,383.9,1154.6,388.9z M1132.4,423.1C1132.4,423.1,1132.4,423.1,1132.4,423.1c0.2-1.3-0.5-2.7-2.3-2.7
			c-27.7,1.1-55.3-2.2-82.8-5.7c0-1.3,0-2.6,0-3.9c11.4-1.9,22.8-3.7,34.2-5.6c5.8-0.9,11.7-1.9,17.5-2.8c4.5-0.7,11.8-0.4,15.5-3.1
			c1-0.7,1.2-2.3,2-2.9c0,0,0.1,0,0.1-0.1c0.1,0.1,0.3,0.3,0.6,0.5c1.4,0.8,2.7,1.9,4,2.8c2.8,2,6.1,5.1,9.9,4.6
			c4.1-0.4,5.9-4.1,8.3-6.9c3.3-3.8,8.5-5.2,13.2-3.5c-1.8,4.7-3.7,9.4-5.7,14C1144.6,413.4,1140.7,426.3,1132.4,423.1z M1161.8,367
			c-7,1.2-13.9,2.5-20.9,3.7c-6.1,1.1-13.7,1.3-19.4,3.6c-4.6,1.9-4.6,8.3-10.9,7.3c-4.6-0.7-6-6.4-11.3-5.5
			c-4.5,0.8-7.2,5.5-11.2,7.4c-4.9,2.3-10.6,2.4-15.9,2.3c-8.9-0.2-18-1-26.3,2.5c-0.5-4.5-1.2-8.9-2-13.4c0-0.2-0.1-0.3-0.1-0.5
			c39.3-8.4,78.7-16.8,118-25.2C1163.6,354.7,1163.2,360.9,1161.8,367z"/>
		<path class="st0" d="M1107.3,348.4c4.4,2.2,11.5,4.8,13.8-1.2c1.8-4.7-0.4-10.1-4.1-13.2c-4.7-3.8-11.2-3.8-16.8-2.6
			c-2.3,0.5-2.3,3.2-1.1,4.4c-0.1,0.3-0.2,0.7-0.2,1.1C1099.2,342.3,1102.5,346,1107.3,348.4z M1116.8,342.9
			c0.4,4.3-4.4,2.3-6.7,1.3c-2.9-1.3-6-3.5-6.1-7c0-0.5-0.2-0.9-0.4-1.3C1109,335.3,1116.1,336.4,1116.8,342.9z"/>
		<path class="st0" d="M1131.3,338.3c3.1-0.7,2.1-5.6-1-4.9C1127.1,334.1,1128.1,339,1131.3,338.3z"/>
		<path class="st0" d="M1081.6,349.9c3.1-0.7,2.1-5.6-1-4.9C1077.4,345.7,1078.5,350.6,1081.6,349.9z"/>
		<path class="st0" d="M1121.7,327c3.1-0.7,2.1-5.6-1-4.9C1117.5,322.8,1118.6,327.7,1121.7,327z"/>
	</g>
	<g>
		<path class="st0" d="M877.1,96.4c-12.1-18.7-37.7-18.4-53-33.2c-2.3-2.2-5.5,1.6-3.2,3.8c0.3,0.3,0.5,0.5,0.8,0.8
			c0,0-0.1,0-0.1,0.1c-14.4,10.8-28.4,22.2-41.8,34.1c-11.6,10.2-23,20.6-30.9,34.1c-1.6,2.8,2.9,4.9,4.5,2.2c0-0.1,0.1-0.2,0.1-0.2
			c-0.2,0.9,0.1,1.8,0.7,2.5c-0.3,0.5-0.5,1.2-0.2,2c4,12.7,6.8,25.6,8.3,38.9c0,0.3,0.1,0.6,0.2,0.8c0,1.3,0.9,2.7,2.6,2.7
			c28.3,0,56.6-0.1,84.6-4.8c0.1,1,0.7,1.9,1.9,2.2c7.3,1.7,12.5-3.7,15-10c3.2-8.1,5.3-16.8,7.3-25.2c2.1-8.9,4-18,5.2-27.2
			c0.9-7.2,0.9-14.3-1.8-20.9C877.6,98.2,877.7,97.3,877.1,96.4z M785.5,103.5c12.6-11,25.6-21.5,38.9-31.6c0.5-0.4,0.8-0.8,0.9-1.2
			c13.9,10,33.6,12,44.9,25c-38.4,13.5-76.8,27-115.2,40.6c-0.3,0.1-0.6,0.3-0.8,0.4C762.4,123.7,774.1,113.5,785.5,103.5z
			 M870.2,140.6c0,0.1-0.1,0.3-0.1,0.4c-6.3-1.3-12.9,0.6-17,5.9c-1.2,1.6-2.1,4.9-3.7,5.9c-3.3,2.2-7.5-1.2-10.4-2.7
			c-2.9-1.5-6.4-4.7-9.1-1.5c-1.1,1.3-0.9,2.9-2.4,4.1c-2,1.6-7,2.1-9.4,2.8c-6,1.8-11.9,3.5-17.9,5.3c-11.4,3.4-22.8,6.8-34.2,10.2
			c-0.7-4.1-1.4-8.1-2.3-12.1c8.7-5.9,19.8-5,29.8-6.6c4.2-0.7,8.3-1.7,12-3.9c1.9-1.1,3.6-2.5,5.1-4.1c2.5-2.7,4-5.6,7.9-3.3
			c3.4,2,6,3.5,10.1,2.6c4-0.9,6-3.2,8.1-6.4c3.5-5.3,13.4-6.4,19.4-8.3c6-1.9,11.9-3.7,17.9-5.6
			C872.9,129.5,871.4,135.4,870.2,140.6z M852.6,177.3C852.6,177.3,852.5,177.3,852.6,177.3c0-1.4-0.9-2.7-2.6-2.4
			c-27.4,4.7-55.1,4.9-82.8,4.9c-0.2-1.3-0.3-2.6-0.5-3.8c11.1-3.3,22.2-6.6,33.3-9.9c5.7-1.7,11.3-3.4,17-5
			c4.3-1.3,11.6-1.9,15-5.1c0.9-0.8,0.9-2.4,1.7-3.1c0,0,0-0.1,0.1-0.1c0.1,0.1,0.3,0.2,0.7,0.4c1.5,0.7,2.9,1.5,4.3,2.3
			c3.1,1.6,6.7,4.2,10.4,3.3c4-1,5.3-4.8,7.4-7.9c2.8-4.2,7.8-6.2,12.7-5.2c-1.2,4.9-2.5,9.7-3.9,14.6
			C863.5,166.2,861.2,179.4,852.6,177.3z M874.6,117.9c-6.7,2.1-13.5,4.2-20.2,6.3c-5.9,1.8-13.4,3-18.8,6c-4.3,2.5-3.5,8.8-9.9,8.6
			c-4.7-0.1-6.8-5.6-11.9-4.1c-4.4,1.3-6.4,6.4-10.2,8.8c-4.6,3-10.2,3.7-15.5,4.3c-8.8,1-18,1.3-25.8,5.8c-1.1-4.4-2.3-8.7-3.7-13
			c-0.1-0.2-0.1-0.3-0.2-0.4c37.9-13.4,75.9-26.7,113.8-40.1C874.8,105.5,875.2,111.7,874.6,117.9z"/>
		<path class="st0" d="M818.2,106.4c4.6,1.6,12,3.3,13.6-3c1.2-4.9-1.6-10-5.7-12.5c-5.2-3.2-11.6-2.4-17-0.4
			c-2.2,0.8-1.9,3.4-0.5,4.5c-0.1,0.3-0.1,0.7-0.1,1.1C809.3,101.4,813.2,104.7,818.2,106.4z M826.9,99.8c1,4.2-4,2.9-6.5,2.1
			c-3.1-0.9-6.4-2.7-7-6.2c-0.1-0.5-0.3-0.9-0.5-1.2C818.2,93.2,825.4,93.4,826.9,99.8z"/>
		<path class="st0" d="M840.7,93.4c3-1.1,1.4-5.8-1.7-4.7C836,89.7,837.6,94.4,840.7,93.4z"/>
		<path class="st0" d="M792.9,111.2c3-1.1,1.4-5.8-1.7-4.7C788.2,107.6,789.9,112.3,792.9,111.2z"/>
		<path class="st0" d="M829.8,83.4c3-1.1,1.4-5.8-1.7-4.7C825.1,79.8,826.7,84.5,829.8,83.4z"/>
	</g>
	<g>
		<path class="st0" d="M404.3,121.3C401.9,99.1,379,87.9,372,67.8c-1.1-3-5.7-1.1-4.6,1.9c0.1,0.4,0.3,0.7,0.4,1.1c0,0-0.1,0-0.1,0
			c-17.7,3.2-35.3,7-52.7,11.6c-14.9,3.9-29.9,8.1-43,16.5c-2.7,1.7,0.4,5.7,3.1,4c0.1,0,0.2-0.1,0.2-0.1c-0.6,0.7-0.7,1.7-0.5,2.5
			c-0.5,0.3-1,0.9-1.1,1.7c-2.1,13.1-5.5,26-10.1,38.4c-0.1,0.3-0.2,0.6-0.2,0.9c-0.6,1.2-0.4,2.8,1.1,3.6
			c25.2,12.7,50.6,25.4,77.7,33.8c-0.4,0.9-0.2,2,0.7,2.8c5.7,4.8,12.9,2.3,17.9-2.2c6.5-5.8,12.3-12.6,17.9-19.3
			c5.9-7,11.7-14.3,16.8-21.9c4-6,7.2-12.3,7.8-19.5C404,123.2,404.5,122.4,404.3,121.3z M319.4,86.4c16.2-4.1,32.5-7.7,49-10.6
			c0.6-0.1,1-0.4,1.4-0.7c7.9,15.2,24.6,25.9,28.9,42.5c-40.4-5.2-80.8-10.5-121.1-15.7c-0.3,0-0.6,0-0.9,0
			C289.6,94,304.7,90.2,319.4,86.4z M378.3,157.7c-0.1,0.1-0.2,0.2-0.3,0.3c-5-4-11.8-5.2-17.8-2.4c-1.8,0.8-4.1,3.4-5.9,3.6
			c-3.9,0.4-6.2-4.4-8-7.1c-1.9-2.7-3.6-7.1-7.5-5.4c-1.6,0.7-2.1,2.2-4,2.6c-2.5,0.5-7.1-1.3-9.7-1.7c-6.1-1.1-12.3-2.2-18.4-3.3
			c-11.7-2.1-23.4-4.2-35.1-6.3c1.2-3.9,2.4-7.9,3.4-11.8c10.4-1.3,19.9,4.5,29.6,7.5c4,1.3,8.2,2.2,12.5,2c2.2-0.1,4.3-0.6,6.4-1.3
			c3.5-1.2,6.1-3.2,8.5,0.6c2.1,3.3,3.8,5.8,7.9,6.9c3.9,1,6.8-0.2,10.1-2.1c5.5-3.1,14.9,0.3,21,1.4c6.2,1,12.3,2,18.5,3.1
			C385.7,148.9,381.6,153.5,378.3,157.7z M346,182.5C346,182.5,346,182.5,346,182.5c0.6-1.2,0.4-2.8-1.2-3.3
			c-26.5-8.2-51.4-20.5-76.2-33c0.4-1.2,0.9-2.4,1.3-3.7c11.4,2.1,22.8,4.1,34.1,6.2c5.8,1,11.6,2.1,17.4,3.1
			c4.4,0.8,11.3,3.5,15.7,2.2c1.2-0.3,1.9-1.7,2.9-2c0,0,0.1,0,0.1,0c0.1,0.1,0.2,0.4,0.4,0.6c1,1.3,1.9,2.7,2.8,4
			c2,2.9,4,6.8,7.7,7.7c4,0.9,6.9-1.9,10.1-3.7c4.4-2.5,9.8-2,13.6,1.1c-3.2,3.8-6.6,7.6-10,11.3C360.7,177.5,352.7,188.2,346,182.5
			z M392.4,139.4c-7-1.2-13.9-2.3-20.9-3.5c-6.1-1-13.3-3.4-19.5-3c-5,0.3-7.1,6.3-12.7,3.2c-4.1-2.2-3.5-8.1-8.8-9
			c-4.5-0.8-8.6,2.8-13,3.3c-5.4,0.6-10.8-1.3-15.8-3.1c-8.3-3.1-16.6-7-25.6-6.4c1-4.4,1.9-8.8,2.6-13.3c0-0.2,0-0.3,0-0.5
			c39.9,5.2,79.8,10.3,119.7,15.5C398.2,128.4,395.7,134.1,392.4,139.4z"/>
		<path class="st0" d="M347.2,103.7c3.4,3.5,9.2,8.4,13.5,3.5c3.3-3.8,3-9.6,0.5-13.8c-3.2-5.2-9.3-7.3-15-8
			c-2.3-0.3-3.3,2.2-2.4,3.8c-0.2,0.2-0.4,0.6-0.6,1C341.6,95.3,343.5,99.9,347.2,103.7z M358,101.7c-1,4.2-4.9,0.7-6.8-1.1
			c-2.3-2.2-4.5-5.3-3.5-8.6c0.1-0.5,0.1-0.9,0.1-1.3C353.2,91.9,359.5,95.3,358,101.7z"/>
		<path class="st0" d="M373.2,102.2c3.2,0.4,3.8-4.5,0.6-5C370.6,96.8,370,101.8,373.2,102.2z"/>
		<path class="st0" d="M322.5,96.6c3.2,0.4,3.8-4.5,0.6-5C319.9,91.3,319.3,96.2,322.5,96.6z"/>
		<path class="st0" d="M367.9,88.4c3.2,0.4,3.8-4.5,0.6-5C365.4,83,364.7,88,367.9,88.4z"/>
	</g>
	<g>
		<path class="st0" d="M1369.7,127.7c-9.8-20-35.2-22.8-48.6-39.3c-2-2.5-5.7,0.9-3.7,3.4c0.2,0.3,0.5,0.6,0.7,0.9
			c0,0-0.1,0-0.1,0.1c-15.6,9-30.8,18.6-45.6,28.8c-12.7,8.8-25.3,17.7-34.8,30.1c-2,2.6,2.3,5.2,4.2,2.7c0.1-0.1,0.1-0.1,0.2-0.2
			c-0.3,0.8-0.1,1.8,0.4,2.5c-0.4,0.5-0.6,1.2-0.5,2c2.5,13.1,3.7,26.3,3.6,39.6c0,0.3,0.1,0.6,0.1,0.9c-0.2,1.3,0.6,2.8,2.2,3
			c28.1,3.4,56.2,6.7,84.5,5.4c0,1,0.5,2,1.6,2.4c7,2.6,12.9-2.2,16.1-8.2c4.1-7.7,7.2-16,10.2-24.2c3.2-8.6,6.2-17.4,8.4-26.4
			c1.7-7.1,2.6-14,0.7-20.9C1370,129.5,1370.2,128.6,1369.7,127.7z M1278,123.7c13.8-9.4,28-18.3,42.5-26.7c0.5-0.3,0.8-0.7,1-1.1
			c12.6,11.6,31.9,16,41.6,30.2c-39.8,8.8-79.5,17.6-119.3,26.4c-0.3,0.1-0.6,0.2-0.8,0.3C1252.5,141,1265.5,132.2,1278,123.7z
			 M1357.6,170.7c0,0.1-0.1,0.3-0.1,0.4c-6.1-2-12.9-0.9-17.6,3.8c-1.4,1.4-2.6,4.6-4.3,5.4c-3.6,1.7-7.3-2.1-10-3.9
			c-2.7-1.9-5.8-5.4-8.9-2.5c-1.3,1.2-1.3,2.8-2.9,3.8c-2.1,1.3-7.1,1.2-9.7,1.6c-6.1,1-12.3,2.1-18.4,3.1c-11.7,2-23.5,4-35.2,6
			c-0.2-4.1-0.5-8.2-0.9-12.3c9.4-4.8,20.2-2.5,30.4-3c4.2-0.2,8.5-0.7,12.4-2.4c2-0.9,3.9-2,5.6-3.4c2.8-2.4,4.6-5.1,8.2-2.3
			c3.1,2.4,5.5,4.2,9.7,3.8c4.1-0.4,6.3-2.5,8.8-5.4c4.1-4.8,14.1-4.8,20.3-5.9c6.1-1.1,12.3-2.3,18.4-3.4
			C1361.6,160,1359.3,165.7,1357.6,170.7z M1335.7,205.1C1335.7,205.1,1335.6,205.1,1335.7,205.1c0.2-1.3-0.6-2.7-2.3-2.7
			c-27.7,1.3-55.3-1.8-82.8-5.1c0-1.3,0-2.6,0-3.9c11.4-1.9,22.8-3.9,34.2-5.8c5.8-1,11.6-2,17.5-3c4.5-0.8,11.8-0.5,15.5-3.3
			c1-0.7,1.2-2.3,2-2.9c0,0,0.1,0,0.1-0.1c0.1,0.1,0.3,0.3,0.6,0.5c1.4,0.8,2.7,1.9,4,2.8c2.9,2,6.1,5,9.9,4.6
			c4.1-0.5,5.9-4.1,8.2-6.9c3.3-3.8,8.5-5.2,13.2-3.6c-1.7,4.7-3.6,9.4-5.6,14C1347.8,195.3,1344,208.2,1335.7,205.1z M1364.7,148.8
			c-7,1.3-13.9,2.6-20.9,3.8c-6.1,1.1-13.6,1.4-19.3,3.8c-4.6,1.9-4.6,8.3-10.8,7.4c-4.6-0.7-6-6.4-11.4-5.5
			c-4.5,0.8-7.2,5.6-11.1,7.5c-4.9,2.4-10.6,2.5-15.9,2.4c-8.9-0.1-18-0.9-26.3,2.7c-0.6-4.5-1.2-8.9-2.1-13.4
			c0-0.2-0.1-0.3-0.1-0.5c39.3-8.7,78.5-17.4,117.8-26.1C1366.4,136.5,1366,142.6,1364.7,148.8z"/>
		<path class="st0" d="M1310,130.5c4.4,2.1,11.5,4.7,13.8-1.3c1.8-4.7-0.4-10.1-4.2-13.1c-4.7-3.8-11.2-3.7-16.9-2.4
			c-2.3,0.5-2.3,3.2-1,4.4c-0.1,0.3-0.2,0.7-0.2,1.1C1301.8,124.5,1305.3,128.2,1310,130.5z M1319.5,125c0.5,4.3-4.4,2.4-6.7,1.3
			c-2.9-1.3-6-3.5-6.2-7c0-0.5-0.2-0.9-0.4-1.3C1311.7,117.4,1318.8,118.5,1319.5,125z"/>
		<path class="st0" d="M1333.9,120.3c3.1-0.7,2.1-5.6-1.1-4.9C1329.7,116.1,1330.8,121,1333.9,120.3z"/>
		<path class="st0" d="M1284.4,132.3c3.1-0.7,2.1-5.6-1.1-4.9C1280.1,128.1,1281.2,133,1284.4,132.3z"/>
		<path class="st0" d="M1324.3,109.1c3.1-0.7,2.1-5.6-1.1-4.9C1320.1,104.9,1321.2,109.8,1324.3,109.1z"/>
	</g>
	<g>
		<path class="st0" d="M1366.8,536.6c-15.3-16.2-40.4-11.2-58.1-23c-2.7-1.8-5.2,2.6-2.5,4.3c0.3,0.2,0.6,0.4,1,0.6
			c0,0-0.1,0.1-0.1,0.1c-12.2,13.3-23.8,27-34.9,41.2c-9.5,12.1-18.9,24.5-24.2,39.1c-1.1,3,3.7,4.3,4.8,1.3c0-0.1,0.1-0.2,0.1-0.3
			c0,0.9,0.4,1.8,1.2,2.3c-0.2,0.6-0.2,1.3,0.2,2c6.3,11.7,11.4,24,15.2,36.7c0.1,0.3,0.2,0.6,0.4,0.8c0.2,1.3,1.4,2.5,3,2.2
			c27.8-5.1,55.7-10.4,82.3-20.1c0.3,0.9,1,1.7,2.3,1.8c7.5,0.4,11.6-6,12.9-12.6c1.6-8.5,2.1-17.5,2.6-26.1
			c0.5-9.2,0.7-18.5,0.1-27.7c-0.4-7.3-1.7-14.2-5.6-20.2C1367.6,538.3,1367.5,537.3,1366.8,536.6z M1278,560.2
			c10.4-13.1,21.2-25.8,32.5-38.1c0.4-0.4,0.6-0.9,0.7-1.4c15.5,7.3,35.3,5.7,48.7,16.4c-35.3,20.3-70.6,40.6-105.9,60.9
			c-0.3,0.2-0.5,0.4-0.7,0.6C1258.9,584.3,1268.6,572.1,1278,560.2z M1368.1,581.3c0,0.1,0,0.3,0,0.4c-6.4-0.1-12.6,3-15.7,8.9
			c-0.9,1.8-1.2,5.2-2.5,6.5c-2.9,2.7-7.6,0.2-10.7-0.8c-3.1-1-7.1-3.5-9.3,0.2c-0.9,1.5-0.4,3-1.6,4.5c-1.6,1.9-6.5,3.3-8.8,4.5
			c-5.6,2.8-11.1,5.7-16.7,8.5c-10.6,5.4-21.2,10.8-31.8,16.2c-1.4-3.9-2.9-7.7-4.5-11.5c7.5-7.4,18.6-8.5,28.1-11.9
			c4-1.4,7.9-3.2,11.1-6c1.7-1.4,3.1-3.1,4.3-4.9c2-3.1,2.9-6.2,7.1-4.7c3.7,1.4,6.5,2.4,10.4,0.7c3.7-1.6,5.3-4.3,6.8-7.8
			c2.5-5.8,12.1-8.8,17.6-11.7c5.5-2.9,11-5.8,16.6-8.7C1368.7,569.8,1368.2,576,1368.1,581.3z M1357.4,620.6
			C1357.4,620.6,1357.4,620.6,1357.4,620.6c-0.3-1.3-1.3-2.5-3-1.9c-26.1,9.6-53.3,14.8-80.6,19.9c-0.4-1.2-0.8-2.5-1.2-3.7
			c10.3-5.3,20.6-10.5,30.9-15.8c5.3-2.7,10.5-5.4,15.8-8.1c4-2.1,11.1-4,13.8-7.7c0.7-1,0.5-2.5,1.1-3.3c0,0,0-0.1,0.1-0.1
			c0.1,0.1,0.4,0.2,0.7,0.2c1.6,0.4,3.1,1,4.7,1.5c3.3,1.1,7.3,3,10.8,1.4c3.7-1.7,4.4-5.7,5.8-9.1c2-4.6,6.6-7.5,11.5-7.4
			c-0.3,5-0.6,10-1.1,15C1366.1,607.7,1366.3,621.1,1357.4,620.6z M1368.3,558.2c-6.3,3.3-12.5,6.6-18.8,9.9
			c-5.5,2.9-12.6,5.4-17.3,9.4c-3.8,3.2-1.9,9.3-8.1,10.3c-4.6,0.7-7.7-4.3-12.5-1.8c-4,2.1-5.2,7.5-8.4,10.5c-4,3.7-9.3,5.5-14.5,7
			c-8.5,2.6-17.5,4.5-24.3,10.4c-1.9-4.1-3.9-8.2-6-12.1c-0.1-0.2-0.2-0.3-0.3-0.4c34.9-20,69.8-40.1,104.6-60.1
			C1366.2,546,1367.7,551.9,1368.3,558.2z"/>
		<path class="st0" d="M1310.7,557.1c4.9,0.7,12.4,1.1,12.8-5.4c0.3-5-3.4-9.5-7.9-11.3c-5.7-2.2-11.8-0.2-16.8,2.7
			c-2,1.2-1.3,3.7,0.3,4.5c0,0.3,0,0.7,0.1,1.1C1301.1,553.9,1305.4,556.4,1310.7,557.1z M1318,549c1.7,4-3.5,3.6-6,3.3
			c-3.2-0.4-6.8-1.5-8-4.8c-0.2-0.5-0.4-0.8-0.7-1.1C1308.3,544.1,1315.4,543,1318,549z"/>
		<path class="st0" d="M1330.4,540.2c2.8-1.6,0.3-5.9-2.5-4.3C1325.1,537.5,1327.6,541.8,1330.4,540.2z"/>
		<path class="st0" d="M1286.7,566.5c2.8-1.6,0.3-5.9-2.5-4.3C1281.4,563.8,1283.9,568.1,1286.7,566.5z"/>
		<path class="st0" d="M1317.9,532.4c2.8-1.6,0.3-5.9-2.5-4.3C1312.6,529.7,1315.1,534,1317.9,532.4z"/>
	</g>
	<g>
		<path class="st0" d="M414.5,437.6c-12.1-7.7-26.5-10.7-40.6-11.3c-14.5-0.7-29.7,0.2-43.9,3.7c-14.8,3.7-28.2,11.1-37.5,23.4
			c-9,11.8-13.5,26.7-12.5,41.5c0.2,3.2,5.2,3.2,5,0c-1.7-25.4,13.7-48.6,37.5-57.3c1.4-0.5,2.9-1,4.3-1.5
			c-8.1,9.4-12.8,21.2-13.4,33.8c-0.1,3.2,4.9,3.2,5,0c0.5-11,4.6-21.3,11.4-29.7c0.2,0.1,0.5,0.2,0.7,0.3
			c6.7,1.2,13.7,2.8,20.5,5.1c-3.2,11.3-3.8,23.1-1.7,34.9c0.6,3.2,5.4,1.8,4.8-1.3c-1.9-10.7-1.3-21.5,1.5-31.8
			c12.8,5.2,24,13.4,29.1,27.1c1.1,3,5.9,1.7,4.8-1.3c-5.8-15.5-18.2-24.7-32.5-30.5c1.4-3.9,3.1-7.7,5.2-11.4
			c2.1-0.1,4.1-0.1,6.2-0.1c-1,1.2-0.9,3.5,1.1,4.3c16.8,6.2,30,20,35.7,37c1,3,5.8,1.7,4.8-1.3c-6-18.2-19.8-32.7-37.5-39.8
			c9.3,0.4,18.5,1.7,27.3,4.8c11.8,4.3,22.1,12.2,29.1,22.6c7.5,11.2,12.5,25.9,1.3,36.4c-8.7,8.1-21.6,12.3-32.7,15.9
			c-12.3,4.1-25.1,7-38,8.3c-14.4,1.4-29,0.8-43.1-2.7c-13.8-3.4-30.2-9.2-38.4-21.6c-1.8-2.7-6.1-0.2-4.3,2.5
			c7.5,11.4,20.7,17.5,33.3,21.6c13.9,4.6,28.6,6.3,43.1,5.8c14.8-0.5,29.6-3.2,43.8-7.5c12.8-3.9,27.1-8.5,37.7-16.9
			C454.9,481.8,433.8,449.9,414.5,437.6z M333.7,436c0.8-0.8,1.6-1.5,2.5-2.3c6.7-1.3,13.5-2,20.4-2.3c-1.6,3.1-2.9,6.2-4,9.4
			C346.4,438.7,340,437.1,333.7,436z"/>
		<path class="st0" d="M382.4,498.3c-3.2,0-3.2,5,0,5C385.6,503.3,385.6,498.3,382.4,498.3z"/>
		<path class="st0" d="M396.4,495.3c-3.2,0-3.2,5,0,5C399.6,500.3,399.6,495.3,396.4,495.3z"/>
		<path class="st0" d="M411.4,490.3c-3.2,0-3.2,5,0,5C414.6,495.3,414.6,490.3,411.4,490.3z"/>
	</g>
	<g>
		<path class="st0" d="M1123.9,163.6c-12.1-7.7-26.5-10.7-40.6-11.3c-14.5-0.7-29.7,0.2-43.9,3.7c-14.8,3.7-28.2,11.1-37.5,23.4
			c-9,11.8-13.5,26.7-12.5,41.5c0.2,3.2,5.2,3.2,5,0c-1.7-25.4,13.7-48.6,37.5-57.3c1.4-0.5,2.9-1,4.3-1.5
			c-8.1,9.4-12.8,21.2-13.4,33.8c-0.1,3.2,4.9,3.2,5,0c0.5-11,4.6-21.3,11.4-29.7c0.2,0.1,0.5,0.2,0.7,0.3
			c6.7,1.2,13.7,2.8,20.5,5.1c-3.2,11.3-3.8,23.1-1.7,34.9c0.6,3.2,5.4,1.8,4.8-1.3c-1.9-10.7-1.3-21.5,1.5-31.8
			c12.8,5.2,24,13.4,29.1,27.1c1.1,3,5.9,1.7,4.8-1.3c-5.8-15.5-18.2-24.7-32.5-30.5c1.4-3.9,3.1-7.7,5.2-11.4
			c2.1-0.1,4.1-0.1,6.2-0.1c-1,1.2-0.9,3.5,1.1,4.3c16.8,6.2,30,20,35.7,37c1,3,5.8,1.7,4.8-1.3c-6-18.2-19.8-32.7-37.5-39.8
			c9.3,0.4,18.5,1.7,27.3,4.8c11.8,4.3,22.1,12.2,29.1,22.6c7.5,11.2,12.5,25.9,1.3,36.4c-8.7,8.1-21.6,12.3-32.7,15.9
			c-12.3,4.1-25.1,7-38,8.3c-14.4,1.4-29,0.8-43.1-2.7c-13.8-3.4-30.2-9.2-38.4-21.6c-1.8-2.7-6.1-0.2-4.3,2.5
			c7.5,11.4,20.7,17.5,33.3,21.6c13.9,4.6,28.6,6.3,43.1,5.8c14.8-0.5,29.6-3.2,43.8-7.5c12.8-3.9,27.1-8.5,37.7-16.9
			C1164.3,207.9,1143.2,176,1123.9,163.6z M1043.2,162c0.8-0.8,1.6-1.5,2.5-2.3c6.7-1.3,13.5-2,20.4-2.3c-1.6,3.1-2.9,6.2-4,9.4
			C1055.8,164.7,1049.5,163.2,1043.2,162z"/>
		<path class="st0" d="M1091.8,224.4c-3.2,0-3.2,5,0,5C1095,229.4,1095,224.4,1091.8,224.4z"/>
		<path class="st0" d="M1105.8,221.4c-3.2,0-3.2,5,0,5C1109,226.4,1109,221.4,1105.8,221.4z"/>
		<path class="st0" d="M1120.8,216.4c-3.2,0-3.2,5,0,5C1124,221.4,1124,216.4,1120.8,216.4z"/>
	</g>
	<g>
		<path class="st0" d="M429,864c-2.3-17-16.7-44.5-37.6-40.5c-0.7,0.1-1.2,0.5-1.5,0.9c-15.4-2.3-31.3,4.9-39.8,18.1
			c-9.9,15.4-8.4,37,2.8,51.3c5.8,7.4,14,11.1,23.2,12.3c9.3,1.2,19.6,1.3,28.7-1.4C422.5,899.5,431.5,881.6,429,864z M405.1,899.4
			c-7.1,2.4-14.8,2.6-22.2,2.3c-8.4-0.4-16.9-1.9-23.2-7.9c-11.2-10.7-13.9-29.5-7.9-43.5c6.5-15,23.4-24.1,39.4-20.6
			c1.4,0.3,2.5-0.5,2.9-1.6c15.3-1.6,26.3,20.2,29.2,32.4C427,875.9,421.1,893.9,405.1,899.4z"/>
		<path class="st0" d="M400.4,865.3c-1.2-9-8.9-10.9-16.8-10.7c-1.6,0-2.4,1.3-2.4,2.6c-4.9,2.9-7.4,9-7.2,15
			c0.3,8.2,8.3,11.3,15.5,10C398.3,880.7,401.5,873.7,400.4,865.3z M390.5,876.9c-3.9,1.3-9.6,1.2-11.1-3.2
			c-1.7-5,1.6-12.7,7.2-13.2c0.7-0.1,1.2-0.4,1.6-0.7c2.5,0.2,4.9,0.9,6.3,2.9C397.5,867.2,395.8,875.1,390.5,876.9z"/>
		<path class="st0" d="M377.6,849.5c1,0.8,2.5,1,3.5,0c0.9-0.9,1.1-2.7,0-3.5c-2.5-2.1-4.7-4.5-6.3-7.3c-1.6-2.8-6-0.3-4.3,2.5
			C372.4,844.4,374.8,847.2,377.6,849.5z"/>
		<path class="st0" d="M399.6,840c-2.9,0-5.5,1-7.7,2.8c-1.1,0.8-0.9,2.7,0,3.5c1,1,2.5,0.8,3.5,0c1.2-0.9,2.7-1.4,4.2-1.4
			C402.8,844.9,402.8,839.9,399.6,840z"/>
		<path class="st0" d="M366.6,857.5c-0.1-1.3-1.1-2.6-2.5-2.5c-1.3,0.1-2.1,0-3.3-0.4c-1.2-0.4-2.8,0.5-3.1,1.7
			c-0.3,1.4,0.4,2.6,1.7,3.1c1.5,0.5,3.1,0.7,4.7,0.6C365.4,859.9,366.6,858.9,366.6,857.5z"/>
		<path class="st0" d="M366.1,871.5c-1.3,0-2.6,1.1-2.5,2.5c0.1,1.5,0,2.9-0.4,4.3c-0.8,3.1,4,4.4,4.8,1.3c0.5-1.8,0.7-3.8,0.6-5.7
			C368.5,872.7,367.5,871.5,366.1,871.5z"/>
		<path class="st0" d="M377.7,889.1c-0.5-0.2-1-0.3-1.5-0.5c-1.2-0.4-2.8,0.5-3.1,1.7c-0.3,1.4,0.4,2.6,1.7,3.1
			c0.5,0.2,1,0.3,1.5,0.5c1.2,0.4,2.8-0.5,3.1-1.7C379.8,890.8,379.1,889.5,377.7,889.1z"/>
		<path class="st0" d="M400,892.8c0,0-0.1-0.1-0.1-0.1c-0.1-0.1-0.2-0.3-0.3-0.4c-0.1-0.1-0.2-0.3-0.2-0.4c0,0-0.1-0.1-0.1-0.2
			c0-0.1-0.1-0.2-0.1-0.2c-0.1-0.2-0.1-0.4-0.2-0.6c-0.3-1.3-1.8-2.2-3.1-1.7c-1.3,0.4-2.1,1.7-1.7,3.1c0.5,1.8,1.5,3.6,2.9,4.8
			c1,0.8,2.6,1,3.5,0c0.9-0.9,1.1-2.6,0-3.5C400.5,893.2,400.2,893,400,892.8z"/>
		<path class="st0" d="M410.1,878.5c-3.2,0-3.2,5,0,5C413.3,883.5,413.3,878.5,410.1,878.5z"/>
		<path class="st0" d="M407.1,863c-3.2,0-3.2,5,0,5C410.3,868,410.3,863,407.1,863z"/>
		<path class="st0" d="M416.6,859.5c-3.2,0-3.2,5,0,5C419.8,864.5,419.8,859.5,416.6,859.5z"/>
		<path class="st0" d="M407.8,853.3c1.2-1.1,2.4-2.3,3.6-3.4c0.9-0.9,1-2.6,0-3.5c-1-0.9-2.5-1-3.5,0c-1.2,1.1-2.4,2.3-3.6,3.4
			c-0.9,0.9-1,2.6,0,3.5C405.3,854.2,406.8,854.3,407.8,853.3z"/>
	</g>
	<g>
		<path class="st0" d="M716.1,404c-15-16.5-50.7-35.3-70-15.7c-0.7,0.7-0.9,1.4-0.9,2.1c-18.1,8.9-29.9,28.3-29.2,48.6
			c0.7,23.8,18.3,45.7,40.8,52.8c11.7,3.7,23.1,1.6,33.9-3.9c10.8-5.6,21.9-13.1,29.6-22.6C735.2,446.7,731.6,421.1,716.1,404z
			 M716.5,459.5c-5.8,7.8-13.9,13.7-22.1,18.8c-9.3,5.8-19.5,10.5-30.7,8.7c-19.9-3.2-36.6-21.3-40.4-40.7c-4.1-20.8,7.3-42.9,27-51
			c1.8-0.7,2.3-2.4,1.9-3.8c15.2-13,43,2.2,55.1,13.1C722.6,418.3,729.6,441.8,716.5,459.5z"/>
		<path class="st0" d="M686.4,426.5c-7.9-8.7-17.6-5-25.9,0.9c-1.7,1.2-1.6,3.2-0.6,4.6c-3.1,6.8-1.3,15.1,3.4,21.4
			c6.4,8.6,17.1,5.9,23.9-0.7C695.5,444.5,693.8,434.7,686.4,426.5z M684.2,446.2c-3.2,4.2-9.4,8.3-14.2,4.7
			c-5.5-4.1-7.7-14.7-2.1-19.5c0.7-0.6,1-1.3,1.1-2c2.8-1.6,5.9-2.6,8.8-1.5C684.7,430.7,688.6,440.4,684.2,446.2z"/>
		<path class="st0" d="M650.4,426.4c1.7,0.1,3.4-0.8,3.8-2.6c0.3-1.6-0.8-3.6-2.6-3.8c-4.2-0.3-8.3-1.3-12.1-3.1
			c-3.8-1.8-6.6,4.1-2.8,5.9C641,424.8,645.6,426,650.4,426.4z"/>
		<path class="st0" d="M666.8,400c-3.1,2.2-5.1,5.1-6.2,8.7c-0.5,1.7,1,3.5,2.6,3.8c1.9,0.3,3.3-0.9,3.8-2.6
			c0.6-1.9,1.9-3.4,3.5-4.6C673.9,403,670.2,397.6,666.8,400z"/>
		<path class="st0" d="M644.4,443.1c-1-1.3-3.1-2-4.5-0.8c-1.3,1.1-2.2,1.5-3.9,2c-1.6,0.5-2.6,2.6-2,4.1c0.7,1.7,2.4,2.5,4.1,2
			c2-0.6,3.8-1.5,5.4-2.8C644.9,446.6,645.6,444.6,644.4,443.1z"/>
		<path class="st0" d="M654.2,458.4c-1.4,1-1.9,3.1-0.8,4.5c1.2,1.5,2.1,3.1,2.8,4.9c1.4,3.9,7.6,1.8,6.1-2.1
			c-0.8-2.3-2-4.5-3.5-6.5C657.7,457.9,655.7,457.4,654.2,458.4z"/>
		<path class="st0" d="M679.6,468.6c-0.7,0.2-1.3,0.4-2,0.6c-1.6,0.5-2.6,2.6-2,4.1c0.7,1.7,2.4,2.5,4.1,2c0.7-0.2,1.3-0.4,2-0.6
			c1.6-0.5,2.6-2.6,2-4.1C683.1,468.9,681.4,468.1,679.6,468.6z"/>
		<path class="st0" d="M706.2,456.2c-0.1,0-0.2,0-0.2,0c-0.2-0.1-0.4-0.1-0.6-0.2c-0.2-0.1-0.4-0.2-0.5-0.3c0,0-0.2-0.1-0.3-0.2
			c-0.1-0.1-0.3-0.2-0.3-0.2c-0.2-0.2-0.4-0.3-0.6-0.5c-1.3-1.1-3.5-1-4.6,0.4c-1.1,1.4-1,3.4,0.4,4.6c1.8,1.6,4.2,2.7,6.7,3
			c1.7,0.2,3.5-0.8,3.8-2.6c0.2-1.6-0.8-3.6-2.6-3.8C707,456.3,706.6,456.3,706.2,456.2z"/>
		<path class="st0" d="M706.4,433.5c-3.4,2.4,0.2,7.7,3.7,5.3C713.6,436.5,709.9,431.1,706.4,433.5z"/>
		<path class="st0" d="M691.8,419.1c-3.4,2.4,0.2,7.7,3.7,5.3C698.9,422.1,695.3,416.8,691.8,419.1z"/>
		<path class="st0" d="M699.4,408.4c-3.4,2.4,0.2,7.7,3.7,5.3C706.5,411.4,702.9,406,699.4,408.4z"/>
		<path class="st0" d="M685.5,408.2c0.4-2.1,0.9-4.2,1.3-6.3c0.3-1.7-0.9-3.5-2.6-3.8c-1.8-0.2-3.4,0.8-3.8,2.6
			c-0.4,2.1-0.9,4.2-1.3,6.3c-0.3,1.7,0.9,3.5,2.6,3.8C683.5,411,685.1,409.9,685.5,408.2z"/>
	</g>
	<g>
		<path class="st0" d="M953.8,850.5c-15-16.5-50.7-35.3-70-15.7c-0.7,0.7-0.9,1.4-0.9,2.1c-18.1,8.9-29.9,28.3-29.2,48.6
			c0.7,23.8,18.3,45.7,40.8,52.8c11.7,3.7,23.1,1.6,33.9-3.9c10.8-5.6,21.9-13.1,29.6-22.6C972.9,893.2,969.4,867.5,953.8,850.5z
			 M954.2,905.9c-5.8,7.8-13.9,13.7-22.1,18.8c-9.3,5.8-19.5,10.5-30.7,8.7c-19.9-3.2-36.6-21.3-40.4-40.7c-4.1-20.8,7.3-42.9,27-51
			c1.8-0.7,2.3-2.4,1.9-3.8c15.2-13,43,2.2,55.1,13.1C960.4,864.7,967.3,888.2,954.2,905.9z"/>
		<path class="st0" d="M924.1,872.9c-7.9-8.7-17.6-5-25.9,0.9c-1.7,1.2-1.6,3.2-0.6,4.6c-3.1,6.8-1.3,15.1,3.4,21.4
			c6.4,8.6,17.1,5.9,23.9-0.7C933.2,891,931.5,881.1,924.1,872.9z M922,892.6c-3.2,4.2-9.4,8.3-14.2,4.7c-5.5-4.1-7.7-14.7-2.1-19.5
			c0.7-0.6,1-1.3,1.1-2c2.8-1.6,5.9-2.6,8.8-1.5C922.4,877.1,926.3,886.8,922,892.6z"/>
		<path class="st0" d="M888.1,872.8c1.7,0.1,3.4-0.8,3.8-2.6c0.3-1.6-0.8-3.6-2.6-3.8c-4.2-0.3-8.3-1.3-12.1-3.1
			c-3.8-1.8-6.6,4.1-2.8,5.9C878.7,871.2,883.4,872.4,888.1,872.8z"/>
		<path class="st0" d="M904.6,846.4c-3.1,2.2-5.1,5.1-6.2,8.7c-0.5,1.7,1,3.5,2.6,3.8c1.9,0.3,3.3-0.9,3.8-2.6
			c0.6-1.9,1.9-3.4,3.5-4.6C911.7,849.4,908,844,904.6,846.4z"/>
		<path class="st0" d="M882.2,889.5c-1-1.3-3.1-2-4.5-0.8c-1.3,1.1-2.2,1.5-3.9,2c-1.6,0.5-2.6,2.6-2,4.1c0.7,1.7,2.4,2.5,4.1,2
			c2-0.6,3.8-1.5,5.4-2.8C882.7,893,883.3,891,882.2,889.5z"/>
		<path class="st0" d="M892,904.9c-1.4,1-1.9,3.1-0.8,4.5c1.2,1.5,2.1,3.1,2.8,4.9c1.4,3.9,7.6,1.8,6.1-2.1c-0.8-2.3-2-4.5-3.5-6.5
			C895.4,904.3,893.5,903.8,892,904.9z"/>
		<path class="st0" d="M917.4,915.1c-0.7,0.2-1.3,0.4-2,0.6c-1.6,0.5-2.6,2.6-2,4.1c0.7,1.7,2.4,2.5,4.1,2c0.7-0.2,1.3-0.4,2-0.6
			c1.6-0.5,2.6-2.6,2-4.1C920.8,915.3,919.1,914.6,917.4,915.1z"/>
		<path class="st0" d="M943.9,902.6c-0.1,0-0.2,0-0.2,0c-0.2-0.1-0.4-0.1-0.6-0.2c-0.2-0.1-0.4-0.2-0.5-0.3c0,0-0.2-0.1-0.3-0.2
			c-0.1-0.1-0.3-0.2-0.3-0.2c-0.2-0.2-0.4-0.3-0.6-0.5c-1.3-1.1-3.5-1-4.6,0.4c-1.1,1.4-1,3.4,0.4,4.6c1.8,1.6,4.2,2.7,6.7,3
			c1.7,0.2,3.5-0.8,3.8-2.6c0.2-1.6-0.8-3.6-2.6-3.8C944.7,902.8,944.3,902.7,943.9,902.6z"/>
		<path class="st0" d="M944.2,880c-3.4,2.4,0.2,7.7,3.7,5.3C951.3,882.9,947.6,877.6,944.2,880z"/>
		<path class="st0" d="M929.6,865.6c-3.4,2.4,0.2,7.7,3.7,5.3C936.7,868.6,933,863.2,929.6,865.6z"/>
		<path class="st0" d="M937.1,854.8c-3.4,2.4,0.2,7.7,3.7,5.3C944.3,857.8,940.6,852.5,937.1,854.8z"/>
		<path class="st0" d="M923.2,854.6c0.4-2.1,0.9-4.2,1.3-6.3c0.3-1.7-0.9-3.5-2.6-3.8c-1.8-0.2-3.4,0.8-3.8,2.6
			c-0.4,2.1-0.9,4.2-1.3,6.3c-0.3,1.7,0.9,3.5,2.6,3.8C921.2,857.5,922.8,856.4,923.2,854.6z"/>
	</g>
	<g>
		<path class="st0" d="M1354,354.4c-12.3-18.6-44.7-42.7-66.8-26.3c-0.8,0.6-1.1,1.2-1.2,1.9c-19.3,6-33.9,23.3-36.4,43.5
			c-2.9,23.6,11,48,32.1,58.5c11,5.4,22.6,5.2,34.1,1.3c11.6-3.9,23.7-9.5,32.8-17.8C1366.3,399.6,1366.7,373.7,1354,354.4z
			 M1345.9,409.3c-7,6.8-15.9,11.3-24.8,15.2c-10.1,4.3-20.9,7.3-31.6,3.8c-19.2-6.2-32.8-26.7-33.7-46.4
			c-0.9-21.2,13.8-41.3,34.6-46.3c1.8-0.4,2.6-2,2.5-3.5c17-10.5,42.1,8.8,52.4,21.5C1358.3,369.5,1361.5,393.8,1345.9,409.3z"/>
		<path class="st0" d="M1321.1,372.1c-6.5-9.8-16.6-7.7-25.7-3.1c-1.9,1-2.1,2.9-1.3,4.4c-4.1,6.2-3.6,14.7,0,21.6
			c5,9.5,16,8.5,23.8,3C1327.4,391.3,1327.2,381.3,1321.1,372.1z M1316,391.2c-3.8,3.7-10.5,6.8-14.8,2.5c-4.8-4.9-5.3-15.7,1-19.6
			c0.7-0.5,1.2-1.1,1.4-1.8c3-1.1,6.3-1.7,9-0.1C1318.9,375.9,1321.2,386.1,1316,391.2z"/>
		<path class="st0" d="M1285.6,366.4c1.7,0.4,3.5-0.2,4.1-2c0.5-1.5-0.3-3.7-2-4.1c-4.1-1-8-2.6-11.5-5c-3.5-2.3-7.1,3.1-3.6,5.4
			C1276.6,363.4,1281,365.3,1285.6,366.4z"/>
		<path class="st0" d="M1305.9,342.9c-3.4,1.7-5.8,4.3-7.4,7.7c-0.8,1.6,0.5,3.6,2,4.1c1.8,0.6,3.4-0.4,4.1-2c0.9-1.8,2.4-3.1,4.1-4
			C1312.5,346.9,1309.7,341,1305.9,342.9z"/>
		<path class="st0" d="M1277.2,382c-0.8-1.5-2.7-2.4-4.3-1.5c-1.5,0.8-2.4,1.2-4.1,1.4c-1.7,0.2-3,2.1-2.6,3.8
			c0.4,1.8,2,2.9,3.8,2.6c2-0.3,4-0.9,5.8-1.9C1277.1,385.5,1278.1,383.6,1277.2,382z"/>
		<path class="st0" d="M1284.5,398.7c-1.5,0.7-2.4,2.8-1.5,4.3c0.9,1.7,1.6,3.4,2,5.3c0.8,4.1,7.2,2.9,6.4-1.2
			c-0.5-2.4-1.3-4.8-2.5-7C1288,398.7,1286.1,397.9,1284.5,398.7z"/>
		<path class="st0" d="M1308,412.7c-0.7,0.1-1.4,0.2-2,0.2c-1.7,0.2-3,2.1-2.6,3.8c0.4,1.8,2,2.8,3.8,2.6c0.7-0.1,1.4-0.2,2-0.2
			c1.7-0.2,3-2.1,2.6-3.8C1311.4,413.5,1309.8,412.4,1308,412.7z"/>
		<path class="st0" d="M1336.2,404.5c-0.1,0-0.1-0.1-0.2-0.1c-0.2-0.1-0.4-0.2-0.5-0.3c-0.2-0.1-0.3-0.2-0.5-0.3
			c0,0-0.2-0.1-0.3-0.2c-0.1-0.1-0.2-0.2-0.2-0.2c-0.2-0.2-0.3-0.4-0.5-0.6c-1.1-1.3-3.3-1.5-4.6-0.3c-1.3,1.2-1.5,3.2-0.3,4.6
			c1.6,1.9,3.7,3.3,6.1,4c1.6,0.4,3.6-0.2,4.1-2c0.5-1.6-0.2-3.7-2-4.1C1337,404.7,1336.6,404.6,1336.2,404.5z"/>
		<path class="st0" d="M1339.9,382.1c-3.8,1.8-1,7.7,2.8,5.9C1346.5,386.1,1343.7,380.3,1339.9,382.1z"/>
		<path class="st0" d="M1327.7,365.6c-3.8,1.8-1,7.7,2.8,5.9C1334.3,369.7,1331.5,363.8,1327.7,365.6z"/>
		<path class="st0" d="M1336.8,356.2c-3.8,1.8-1,7.7,2.8,5.9C1343.4,360.2,1340.6,354.4,1336.8,356.2z"/>
		<path class="st0" d="M1323.1,353.8c0.7-2,1.5-4,2.2-6c0.6-1.6-0.3-3.6-2-4.1c-1.7-0.5-3.5,0.3-4.1,2c-0.7,2-1.5,4-2.2,6
			c-0.6,1.6,0.3,3.6,2,4.1C1320.7,356.3,1322.5,355.5,1323.1,353.8z"/>
	</g>
	<g>
		<path class="st0" d="M169.6,489.4c7.2-15.6,10-46.5-9.7-54.4c-0.7-0.3-1.3-0.2-1.7,0c-11.7-10.2-28.9-12.8-43.2-6.3
			c-16.7,7.6-27.1,26.6-25.4,44.7c0.9,9.4,5.7,16.9,12.9,22.9c7.2,6,15.8,11.7,24.9,14.3C145,515.7,162.1,505.5,169.6,489.4z
			 M130.4,506.2c-7.3-1.8-13.8-5.8-19.9-10.1c-6.9-4.9-13.2-10.7-15.3-19.2c-3.7-15.1,4.3-32.3,16.9-40.8c13.6-9.1,32.7-7.6,44.3,4
			c1,1,2.4,0.9,3.3,0.2c13.7,6.9,11.2,31.2,7.1,43C161.5,498.3,146.8,510.2,130.4,506.2z"/>
		<path class="st0" d="M144.8,475c3.8-8.2-1.6-14-8.3-18.1c-1.4-0.9-2.8-0.2-3.4,0.9c-5.7-0.2-11.1,3.5-14.2,8.7
			c-4.2,7.1,0.9,13.9,7.6,16.8C134.7,486.8,141.2,482.7,144.8,475z M130.2,479.3c-4-1-8.7-4.2-7.6-8.7c1.3-5.1,8.2-9.8,13.2-7.3
			c0.6,0.3,1.2,0.3,1.7,0.2c2,1.5,3.6,3.4,3.7,5.8C141.4,475,135.6,480.7,130.2,479.3z"/>
		<path class="st0" d="M134.2,449.4c0.4,1.3,1.6,2.2,3,1.9c1.2-0.3,2.3-1.7,1.9-3c-1-3.1-1.5-6.3-1.4-9.5c0.1-3.2-4.9-3.4-5-0.2
			C132.6,442.2,133,445.9,134.2,449.4z"/>
		<path class="st0" d="M157.8,453.2c-2.5-1.6-5.2-2.1-8-1.8c-1.3,0.1-2.2,1.8-1.9,3c0.3,1.4,1.6,2,3,1.9c1.5-0.2,3,0.3,4.3,1.1
			C157.8,459.1,160.5,454.9,157.8,453.2z"/>
		<path class="st0" d="M120.6,450.1c0.6-1.1,0.5-2.8-0.8-3.5c-1.2-0.6-1.7-1.1-2.6-2.1c-0.8-1-2.6-1.1-3.5-0.2c-1,1-1.1,2.4-0.2,3.5
			c1,1.2,2.2,2.3,3.6,3C118.3,451.5,119.9,451.3,120.6,450.1z"/>
		<path class="st0" d="M112.6,461.6c-1.1-0.7-2.8-0.4-3.5,0.8c-0.7,1.3-1.6,2.4-2.7,3.4c-2.4,2.2,1,5.9,3.3,3.7
			c1.4-1.3,2.6-2.8,3.6-4.4C114,463.9,113.8,462.4,112.6,461.6z"/>
		<path class="st0" d="M112.9,482.7c-0.3-0.4-0.7-0.8-1-1.2c-0.8-1-2.6-1.1-3.5-0.2c-1,1-1.1,2.4-0.2,3.5c0.3,0.4,0.7,0.8,1,1.2
			c0.8,1,2.6,1.1,3.5,0.2C113.7,485.3,113.8,483.8,112.9,482.7z"/>
		<path class="st0" d="M129.6,497.9c0-0.1,0-0.1,0-0.2c0-0.2,0-0.3,0-0.5c0-0.2,0-0.3,0-0.5c0,0,0-0.2,0-0.3c0-0.1,0.1-0.2,0.1-0.3
			c0-0.2,0.1-0.4,0.2-0.6c0.4-1.2-0.4-2.8-1.6-3.1c-1.3-0.4-2.7,0.3-3.1,1.6c-0.6,1.8-0.7,3.8-0.1,5.6c0.4,1.3,1.6,2.3,3,1.9
			c1.2-0.3,2.3-1.6,1.9-3C129.8,498.5,129.7,498.2,129.6,497.9z"/>
		<path class="st0" d="M145.8,491.3c-2.7-1.7-5.4,2.5-2.7,4.2C145.8,497.3,148.5,493.1,145.8,491.3z"/>
		<path class="st0" d="M151.7,476.7c-2.7-1.7-5.4,2.5-2.7,4.2C151.7,482.6,154.4,478.4,151.7,476.7z"/>
		<path class="st0" d="M161.5,478.8c-2.7-1.7-5.4,2.5-2.7,4.2C161.6,484.8,164.3,480.6,161.5,478.8z"/>
		<path class="st0" d="M157.6,468.9c1.6-0.3,3.2-0.6,4.9-1c1.3-0.3,2.3-1.7,1.9-3c-0.3-1.3-1.6-2.2-3-1.9c-1.6,0.3-3.2,0.6-4.9,1
			c-1.3,0.3-2.3,1.7-1.9,3C154.9,468.3,156.2,469.1,157.6,468.9z"/>
	</g>
	<g>
		<path class="st0" d="M303.8,300.3c3.2,0,3.2-5,0-5C300.6,295.3,300.6,300.3,303.8,300.3L303.8,300.3z"/>
	</g>
	<g>
		<path class="st0" d="M411.8,192.3c3.2,0,3.2-5,0-5C408.6,187.3,408.6,192.3,411.8,192.3L411.8,192.3z"/>
	</g>
	<g>
		<path class="st0" d="M624.8,249.3c3.2,0,3.2-5,0-5C621.6,244.3,621.6,249.3,624.8,249.3L624.8,249.3z"/>
	</g>
	<g>
		<path class="st0" d="M717.8,339.3c3.2,0,3.2-5,0-5C714.6,334.3,714.6,339.3,717.8,339.3L717.8,339.3z"/>
	</g>
	<g>
		<path class="st0" d="M507.8,543.3c3.2,0,3.2-5,0-5C504.6,538.3,504.6,543.3,507.8,543.3L507.8,543.3z"/>
	</g>
	<g>
		<path class="st0" d="M204.8,618.3c3.2,0,3.2-5,0-5C201.6,613.3,201.5,618.3,204.8,618.3L204.8,618.3z"/>
	</g>
	<g>
		<path class="st0" d="M456.8,393.3c3.2,0,3.2-5,0-5C453.6,388.3,453.6,393.3,456.8,393.3L456.8,393.3z"/>
	</g>
	<g>
		<path class="st0" d="M39.8,339.3c3.2,0,3.2-5,0-5C36.5,334.3,36.5,339.3,39.8,339.3L39.8,339.3z"/>
	</g>
	<g>
		<path class="st0" d="M240.8,801.3c3.2,0,3.2-5,0-5C237.6,796.3,237.6,801.3,240.8,801.3L240.8,801.3z"/>
	</g>
	<g>
		<path class="st0" d="M591.8,819.4c3.2,0,3.2-5,0-5C588.6,814.4,588.6,819.4,591.8,819.4L591.8,819.4z"/>
	</g>
	<g>
		<path class="st0" d="M621.2,763.5c1-3,2-6,3-9c1-3.1-3.8-4.4-4.8-1.3c-1,3-2,6-3,9C615.4,765.2,620.2,766.6,621.2,763.5
			L621.2,763.5z"/>
	</g>
	<g>
		<path class="st0" d="M696.8,576.3c3.2,0,3.2-5,0-5C693.6,571.3,693.6,576.3,696.8,576.3L696.8,576.3z"/>
	</g>
	<g>
		<path class="st0" d="M894.1,455.2c2-3,4-6,6-9c1.8-2.7-2.5-5.2-4.3-2.5c-2,3-4,6-6,9C888,455.3,892.3,457.8,894.1,455.2
			L894.1,455.2z"/>
	</g>
	<g>
		<path class="st0" d="M981.8,375.3c3.2,0,3.2-5,0-5C978.6,370.3,978.6,375.3,981.8,375.3L981.8,375.3z"/>
	</g>
	<g>
		<path class="st0" d="M933.8,162.3c3.2,0,3.2-5,0-5C930.6,157.3,930.6,162.3,933.8,162.3L933.8,162.3z"/>
	</g>
	<g>
		<path class="st0" d="M1059.9,84.3c3.2,0,3.2-5,0-5C1056.6,79.3,1056.6,84.3,1059.9,84.3L1059.9,84.3z"/>
	</g>
	<g>
		<path class="st0" d="M1167.9,81.3c3.2,0,3.2-5,0-5C1164.6,76.3,1164.6,81.3,1167.9,81.3L1167.9,81.3z"/>
	</g>
	<g>
		<path class="st0" d="M1206.9,306.3c3.2,0,3.2-5,0-5C1203.7,301.3,1203.6,306.3,1206.9,306.3L1206.9,306.3z"/>
	</g>
	<g>
		<path class="st0" d="M1233.9,486.3c3.2,0,3.2-5,0-5C1230.7,481.3,1230.6,486.3,1233.9,486.3L1233.9,486.3z"/>
	</g>
	<g>
		<path class="st0" d="M957.8,699.3c3.2,0,3.2-5,0-5C954.6,694.3,954.6,699.3,957.8,699.3L957.8,699.3z"/>
	</g>
	<g>
		<path class="st0" d="M1107.9,525.3c3.2,0,3.2-5,0-5C1104.6,520.3,1104.6,525.3,1107.9,525.3L1107.9,525.3z"/>
	</g>
	<g>
		<path class="st0" d="M762.8,471.3c3.2,0,3.2-5,0-5C759.6,466.3,759.6,471.3,762.8,471.3L762.8,471.3z"/>
	</g>
	<g>
		<path class="st0" d="M771.8,273.3c3.2,0,3.2-5,0-5C768.6,268.3,768.6,273.3,771.8,273.3L771.8,273.3z"/>
	</g>
	<g>
		<path class="st0" d="M594.8,186.3c3.2,0,3.2-5,0-5C591.6,181.3,591.6,186.3,594.8,186.3L594.8,186.3z"/>
	</g>
	<g>
		<path class="st0" d="M315.8,321.3c3.2,0,3.2-5,0-5C312.6,316.3,312.6,321.3,315.8,321.3L315.8,321.3z"/>
	</g>
	<g>
		<path class="st0" d="M282.8,570.3c3.2,0,3.2-5,0-5C279.6,565.3,279.6,570.3,282.8,570.3L282.8,570.3z"/>
	</g>
	<g>
		<path class="st0" d="M69.8,789.3c1,0,2,0,3,0c1.3,0,2.6-1.1,2.5-2.5c-0.1-1.4-1.1-2.5-2.5-2.5c-1,0-2,0-3,0
			c-1.3,0-2.6,1.1-2.5,2.5C67.3,788.2,68.4,789.3,69.8,789.3L69.8,789.3z"/>
	</g>
	<g>
		<path class="st0" d="M996.8,57.3c3.2,0,3.2-5,0-5C993.6,52.3,993.6,57.3,996.8,57.3L996.8,57.3z"/>
	</g>
	<g>
		<path class="st0" d="M1251.9,48.3c3.2,0,3.2-5,0-5C1248.7,43.3,1248.7,48.3,1251.9,48.3L1251.9,48.3z"/>
	</g>
	<g>
		<path class="st0" d="M1332.9,249.3c3.2,0,3.2-5,0-5C1329.7,244.3,1329.7,249.3,1332.9,249.3L1332.9,249.3z"/>
	</g>
	<g>
		<path class="st0" d="M687.8,243.3c3.2,0,3.2-5,0-5C684.6,238.3,684.6,243.3,687.8,243.3L687.8,243.3z"/>
	</g>
	<g>
		<path class="st0" d="M576.8,375.3c3.2,0,3.2-5,0-5C573.6,370.3,573.6,375.3,576.8,375.3L576.8,375.3z"/>
	</g>
	<g>
		<path class="st0" d="M360.8,327.3c3.2,0,3.2-5,0-5C357.6,322.3,357.6,327.3,360.8,327.3L360.8,327.3z"/>
	</g>
	<g>
		<path class="st0" d="M234.8,438.3c3.2,0,3.2-5,0-5C231.6,433.3,231.5,438.3,234.8,438.3L234.8,438.3z"/>
	</g>
	<g>
		<path class="st0" d="M477.8,780.3c3.2,0,3.2-5,0-5C474.6,775.3,474.6,780.3,477.8,780.3L477.8,780.3z"/>
	</g>
	<g>
		<path class="st0" d="M249.8,933.4c3.2,0,3.2-5,0-5C246.6,928.4,246.6,933.4,249.8,933.4L249.8,933.4z"/>
	</g>
	<g>
		<path class="st0" d="M489.8,933.4c3.2,0,3.2-5,0-5C486.6,928.4,486.6,933.4,489.8,933.4L489.8,933.4z"/>
	</g>
	<g>
		<path class="st0" d="M545.6,925.9c2.6-4.9,6.5-8.5,11.6-10.8c2.9-1.3,0.4-5.6-2.5-4.3c-5.7,2.6-10.4,7-13.4,12.5
			C539.7,926.2,544,928.8,545.6,925.9L545.6,925.9z"/>
	</g>
	<g>
		<path class="st0" d="M797,842.7c5.1,5.9,10.2,11.8,15.3,17.7c2.1,2.4,5.6-1.1,3.5-3.5c-5.1-5.9-10.2-11.8-15.3-17.7
			C798.4,836.7,794.9,840.3,797,842.7L797,842.7z"/>
	</g>
	<g>
		<path class="st0" d="M990.8,810.4c3.2,0,3.2-5,0-5C987.6,805.4,987.6,810.4,990.8,810.4L990.8,810.4z"/>
	</g>
	<g>
		<path class="st0" d="M677.1,287.1c-7.6,7.9-13.1,17.4-16.1,27.9c-0.9,3.1,3.9,4.4,4.8,1.3c2.8-9.8,7.8-18.4,14.8-25.7
			C682.9,288.3,679.4,284.8,677.1,287.1L677.1,287.1z"/>
	</g>
	<g>
		<path class="st0" d="M481.9,63.3c-3.5,9-9.5,16.6-17.5,22.1c-2.6,1.8-0.1,6.2,2.5,4.3c9.1-6.3,15.8-14.8,19.8-25.1
			C487.9,61.6,483,60.3,481.9,63.3L481.9,63.3z"/>
	</g>
	<g>
		<path class="st0" d="M249.8,36.3c3.2,0,3.2-5,0-5C246.6,31.3,246.6,36.3,249.8,36.3L249.8,36.3z"/>
	</g>
	<g>
		<path class="st0" d="M198.8,138.3c3.2,0,3.2-5,0-5C195.6,133.3,195.5,138.3,198.8,138.3L198.8,138.3z"/>
	</g>
	<g>
		<path class="st0" d="M98.7,175.9c-4,3-8,6-12,9c-2.5,1.9-0.1,6.2,2.5,4.3c4-3,8-6,12-9C103.7,178.3,101.2,173.9,98.7,175.9
			L98.7,175.9z"/>
	</g>
	<g>
		<path class="st0" d="M858.8,45.3c11,0,22,0,33,0c3.2,0,3.2-5,0-5c-11,0-22,0-33,0C855.6,40.3,855.6,45.3,858.8,45.3L858.8,45.3z"
			/>
	</g>
	<g>
		<path class="st0" d="M1077.9,39.3c3.2,0,3.2-5,0-5C1074.6,34.3,1074.6,39.3,1077.9,39.3L1077.9,39.3z"/>
	</g>
	<g>
		<path class="st0" d="M1200.9,225.3c3.2,0,3.2-5,0-5C1197.7,220.3,1197.6,225.3,1200.9,225.3L1200.9,225.3z"/>
	</g>
	<g>
		<path class="st0" d="M1186.7,515.1c4,7,8,14,12,21c1.6,2.8,5.9,0.3,4.3-2.5c-4-7-8-14-12-21
			C1189.4,509.8,1185.1,512.3,1186.7,515.1L1186.7,515.1z"/>
	</g>
	<g>
		<path class="st0" d="M1095.9,477.3c3.2,0,3.2-5,0-5C1092.6,472.3,1092.6,477.3,1095.9,477.3L1095.9,477.3z"/>
	</g>
	<g>
		<path class="st0" d="M817.4,527.4c-1,2-2,4-3,6c-0.6,1.2-0.3,2.7,0.9,3.4c1.1,0.6,2.8,0.3,3.4-0.9c1-2,2-4,3-6
			c0.6-1.2,0.3-2.7-0.9-3.4C819.7,525.9,818,526.2,817.4,527.4L817.4,527.4z"/>
	</g>
	<g>
		<path class="st0" d="M1355.1,869c-12.1-7.7-26.5-10.7-40.6-11.3c-14.5-0.7-29.7,0.2-43.9,3.7c-14.8,3.7-28.2,11.1-37.5,23.4
			c-9,11.8-13.5,26.7-12.5,41.5c0.2,3.2,5.2,3.2,5,0c-1.7-25.4,13.7-48.6,37.5-57.3c1.4-0.5,2.9-1,4.3-1.5
			c-8.1,9.4-12.8,21.2-13.4,33.8c-0.1,3.2,4.9,3.2,5,0c0.5-11,4.6-21.3,11.4-29.7c0.2,0.1,0.5,0.2,0.7,0.3
			c6.7,1.2,13.7,2.8,20.5,5.1c-3.2,11.3-3.8,23.1-1.7,34.9c0.6,3.2,5.4,1.8,4.8-1.3c-1.9-10.7-1.3-21.5,1.5-31.8
			c12.8,5.2,24,13.4,29.1,27.1c1.1,3,5.9,1.7,4.8-1.3c-5.8-15.5-18.2-24.7-32.5-30.5c1.4-3.9,3.1-7.7,5.2-11.4
			c2.1-0.1,4.1-0.1,6.2-0.1c-1,1.2-0.9,3.5,1.1,4.3c16.8,6.2,30,20,35.7,37c1,3,5.8,1.7,4.8-1.3c-6-18.2-19.8-32.7-37.5-39.8
			c9.3,0.4,18.5,1.7,27.3,4.8c11.8,4.3,22.1,12.2,29.1,22.6c7.5,11.2,12.5,25.9,1.3,36.4c-8.7,8.1-21.6,12.3-32.7,15.9
			c-12.3,4.1-25.1,7-38,8.3c-14.4,1.4-29,0.8-43.1-2.7c-13.8-3.4-30.2-9.2-38.4-21.6c-1.8-2.7-6.1-0.2-4.3,2.5
			c7.5,11.4,20.7,17.5,33.3,21.6c13.9,4.6,28.6,6.3,43.1,5.8c14.8-0.5,29.6-3.2,43.8-7.5c12.8-3.9,27.1-8.5,37.7-16.9
			C1395.5,913.2,1374.5,881.3,1355.1,869z M1274.4,867.4c0.8-0.8,1.6-1.5,2.5-2.3c6.7-1.3,13.5-2,20.4-2.3c-1.6,3.1-2.9,6.2-4,9.4
			C1287.1,870.1,1280.7,868.5,1274.4,867.4z"/>
		<path class="st0" d="M1323,929.7c-3.2,0-3.2,5,0,5C1326.2,934.7,1326.2,929.7,1323,929.7z"/>
		<path class="st0" d="M1337,926.7c-3.2,0-3.2,5,0,5C1340.2,931.7,1340.2,926.7,1337,926.7z"/>
		<path class="st0" d="M1352,921.7c-3.2,0-3.2,5,0,5C1355.2,926.7,1355.2,921.7,1352,921.7z"/>
	</g>
	<g>
		<path class="st0" d="M1220,702.9c3.1-1,1.6-5.7-1.5-4.8C1215.4,699,1216.9,703.8,1220,702.9L1220,702.9z"/>
	</g>
	<g>
		<path class="st0" d="M1284.5,799c3.1-1,1.6-5.7-1.5-4.8C1280,795.2,1281.5,800,1284.5,799L1284.5,799z"/>
	</g>
	<g>
		<path class="st0" d="M1358.3,763.5c3.1-1,1.6-5.7-1.5-4.8C1353.8,759.6,1355.2,764.4,1358.3,763.5L1358.3,763.5z"/>
	</g>
	<g>
		<path class="st0" d="M1135.9,809.4c-2.3-17-16.7-44.5-37.6-40.5c-0.7,0.1-1.2,0.5-1.5,0.9c-15.4-2.3-31.3,4.9-39.8,18.1
			c-9.9,15.4-8.4,37,2.8,51.3c5.8,7.4,14,11.1,23.2,12.3c9.3,1.2,19.6,1.3,28.7-1.4C1129.4,844.8,1138.4,827,1135.9,809.4z
			 M1112,844.7c-7.1,2.4-14.8,2.6-22.2,2.3c-8.4-0.4-16.9-1.9-23.2-7.9c-11.2-10.7-13.9-29.5-7.9-43.5c6.5-15,23.4-24.1,39.4-20.6
			c1.4,0.3,2.5-0.5,2.9-1.6c15.3-1.6,26.3,20.2,29.2,32.4C1133.9,821.3,1128,839.3,1112,844.7z"/>
		<path class="st0" d="M1107.3,810.7c-1.2-9-8.9-10.9-16.8-10.7c-1.6,0-2.4,1.3-2.4,2.6c-4.9,2.9-7.4,9-7.2,15
			c0.3,8.2,8.3,11.3,15.5,10C1105.2,826.1,1108.4,819.1,1107.3,810.7z M1097.4,822.2c-3.9,1.3-9.6,1.2-11.1-3.2
			c-1.7-5,1.6-12.7,7.2-13.2c0.7-0.1,1.2-0.4,1.6-0.7c2.5,0.2,4.9,0.9,6.3,2.9C1104.4,812.6,1102.7,820.4,1097.4,822.2z"/>
		<path class="st0" d="M1084.5,794.9c1,0.8,2.5,1,3.5,0c0.9-0.9,1.1-2.7,0-3.5c-2.5-2.1-4.7-4.5-6.3-7.3c-1.6-2.8-6-0.3-4.3,2.5
			C1079.3,789.8,1081.7,792.6,1084.5,794.9z"/>
		<path class="st0" d="M1106.5,785.3c-2.9,0-5.5,1-7.7,2.8c-1.1,0.8-0.9,2.7,0,3.5c1,1,2.5,0.8,3.5,0c1.2-0.9,2.7-1.4,4.2-1.4
			C1109.7,790.3,1109.7,785.3,1106.5,785.3z"/>
		<path class="st0" d="M1073.5,802.9c-0.1-1.3-1.1-2.6-2.5-2.5c-1.3,0.1-2.1,0-3.3-0.4c-1.2-0.4-2.8,0.5-3.1,1.7
			c-0.3,1.4,0.4,2.6,1.7,3.1c1.5,0.5,3.1,0.7,4.7,0.6C1072.3,805.3,1073.5,804.3,1073.5,802.9z"/>
		<path class="st0" d="M1073,816.9c-1.3,0-2.6,1.1-2.5,2.5c0.1,1.5,0,2.9-0.4,4.3c-0.8,3.1,4,4.4,4.8,1.3c0.5-1.8,0.7-3.8,0.6-5.7
			C1075.4,818,1074.4,816.9,1073,816.9z"/>
		<path class="st0" d="M1084.6,834.5c-0.5-0.2-1-0.3-1.5-0.5c-1.2-0.4-2.8,0.5-3.1,1.7c-0.3,1.4,0.4,2.6,1.7,3.1
			c0.5,0.2,1,0.3,1.5,0.5c1.2,0.4,2.8-0.5,3.1-1.7C1086.7,836.1,1086,834.9,1084.6,834.5z"/>
		<path class="st0" d="M1106.9,838.2c0,0-0.1-0.1-0.1-0.1c-0.1-0.1-0.2-0.3-0.3-0.4c-0.1-0.1-0.2-0.3-0.2-0.4c0,0-0.1-0.1-0.1-0.2
			c0-0.1-0.1-0.2-0.1-0.2c-0.1-0.2-0.1-0.4-0.2-0.6c-0.3-1.3-1.8-2.2-3.1-1.7c-1.3,0.4-2.1,1.7-1.7,3.1c0.5,1.8,1.5,3.6,2.9,4.8
			c1,0.8,2.6,1,3.5,0c0.9-0.9,1.1-2.6,0-3.5C1107.4,838.6,1107.1,838.4,1106.9,838.2z"/>
		<path class="st0" d="M1117,823.9c-3.2,0-3.2,5,0,5C1120.2,828.9,1120.2,823.9,1117,823.9z"/>
		<path class="st0" d="M1114,808.4c-3.2,0-3.2,5,0,5C1117.2,813.4,1117.2,808.4,1114,808.4z"/>
		<path class="st0" d="M1123.5,804.9c-3.2,0-3.2,5,0,5C1126.7,809.9,1126.7,804.9,1123.5,804.9z"/>
		<path class="st0" d="M1114.7,798.7c1.2-1.1,2.4-2.3,3.6-3.4c0.9-0.9,1-2.6,0-3.5c-1-0.9-2.5-1-3.5,0c-1.2,1.1-2.4,2.3-3.6,3.4
			c-0.9,0.9-1,2.6,0,3.5C1112.2,799.6,1113.7,799.6,1114.7,798.7z"/>
	</g>
	<g>
		<path class="st0" d="M1124.5,921c3.1-1,1.6-5.7-1.5-4.8C1120,917.2,1121.5,922,1124.5,921L1124.5,921z"/>
	</g>
	<g>
		<path class="st0" d="M1050,938.3c3.1-1,1.6-5.7-1.5-4.8C1045.5,934.5,1047,939.2,1050,938.3L1050,938.3z"/>
	</g>
	<g>
		<path class="st0" d="M1210,816.3c3.1-1,1.6-5.7-1.5-4.8C1205.5,812.5,1207,817.2,1210,816.3L1210,816.3z"/>
	</g>
</g>
</svg>
