<?xml version="1.0" encoding="utf-8"?>
<!-- Generator: Adobe Illustrator 24.2.1, SVG Export Plug-In . SVG Version: 6.00 Build 0)  -->
<svg version="1.1" id="Layer_3" xmlns="http://www.w3.org/2000/svg" xmlns:xlink="http://www.w3.org/1999/xlink" x="0px" y="0px"
	 viewBox="0 0 1400 980" style="enable-background:new 0 0 1400 980;" xml:space="preserve">
<style type="text/css">
	.st0{fill:#A7A9AC;}
</style>
<g>
	<g>
		<path class="st0" d="M275.9,349c4.7,0,4.7-7.3,0-7.3C271.2,341.7,271.1,349,275.9,349L275.9,349z"/>
	</g>
	<g>
		<path class="st0" d="M457.8,186.1c3.6,0,3.6-5.6,0-5.6C454.2,180.4,454.1,186.1,457.8,186.1L457.8,186.1z"/>
	</g>
	<g>
		<path class="st0" d="M696.9,250.1c3.6,0,3.6-5.6,0-5.6C693.3,244.5,693.3,250.1,696.9,250.1L696.9,250.1z"/>
	</g>
	<g>
		<path class="st0" d="M801.4,351.1c3.6,0,3.6-5.6,0-5.6C797.8,345.5,797.8,351.1,801.4,351.1L801.4,351.1z"/>
	</g>
	<g>
		<path class="st0" d="M565.6,580.2c3.6,0,3.6-5.6,0-5.6C562,574.6,561.9,580.2,565.6,580.2L565.6,580.2z"/>
	</g>
	<g>
		<path class="st0" d="M225.3,664.4c3.6,0,3.6-5.6,0-5.6C221.7,658.8,221.7,664.4,225.3,664.4L225.3,664.4z"/>
	</g>
	<g>
		<path class="st0" d="M584.6,445.1c4.7,0,4.7-7.3,0-7.3C579.9,437.8,579.9,445.1,584.6,445.1L584.6,445.1z"/>
	</g>
	<g>
		<path class="st0" d="M40,351.1c3.6,0,3.6-5.6,0-5.6C36.4,345.5,36.4,351.1,40,351.1L40,351.1z"/>
	</g>
	<g>
		<path class="st0" d="M265.8,869.9c3.6,0,3.6-5.6,0-5.6C262.1,864.3,262.1,869.9,265.8,869.9L265.8,869.9z"/>
	</g>
	<g>
		<path class="st0" d="M659.9,890.1c3.6,0,3.6-5.6,0-5.6C656.3,884.5,656.3,890.1,659.9,890.1L659.9,890.1z"/>
	</g>
	<g>
		<path class="st0" d="M692.9,827.4c1.1-3.4,2.2-6.7,3.4-10.1c1.1-3.4-4.3-4.9-5.4-1.5c-1.1,3.4-2.2,6.7-3.4,10.1
			C686.4,829.4,691.8,830.8,692.9,827.4L692.9,827.4z"/>
	</g>
	<g>
		<path class="st0" d="M777.8,617.3c3.6,0,3.6-5.6,0-5.6C774.2,611.6,774.2,617.3,777.8,617.3L777.8,617.3z"/>
	</g>
	<g>
		<path class="st0" d="M999.3,481.2c2.2-3.4,4.5-6.7,6.7-10.1c2-3-2.9-5.8-4.8-2.8c-2.2,3.4-4.5,6.7-6.7,10.1
			C992.5,481.4,997.3,484.2,999.3,481.2L999.3,481.2z"/>
	</g>
	<g>
		<path class="st0" d="M1097.8,391.5c3.6,0,3.6-5.6,0-5.6C1094.2,385.9,1094.2,391.5,1097.8,391.5L1097.8,391.5z"/>
	</g>
	<g>
		<path class="st0" d="M1043.9,152.4c3.6,0,3.6-5.6,0-5.6C1040.3,146.8,1040.3,152.4,1043.9,152.4L1043.9,152.4z"/>
	</g>
	<g>
		<path class="st0" d="M1185.4,64.8c3.6,0,3.6-5.6,0-5.6C1181.8,59.2,1181.8,64.8,1185.4,64.8L1185.4,64.8z"/>
	</g>
	<g>
		<path class="st0" d="M1306.7,61.4c3.6,0,3.6-5.6,0-5.6C1303.1,55.8,1303.1,61.4,1306.7,61.4L1306.7,61.4z"/>
	</g>
	<g>
		<path class="st0" d="M1350.5,314.1c3.6,0,3.6-5.6,0-5.6C1346.9,308.5,1346.8,314.1,1350.5,314.1L1350.5,314.1z"/>
	</g>
	<g>
		<path class="st0" d="M1380.8,516.2c3.6,0,3.6-5.6,0-5.6C1377.2,510.6,1377.2,516.2,1380.8,516.2L1380.8,516.2z"/>
	</g>
	<g>
		<path class="st0" d="M1070.9,755.4c3.6,0,3.6-5.6,0-5.6C1067.3,749.8,1067.2,755.4,1070.9,755.4L1070.9,755.4z"/>
	</g>
	<g>
		<path class="st0" d="M1239.3,560c3.6,0,3.6-5.6,0-5.6C1235.7,554.4,1235.7,560,1239.3,560L1239.3,560z"/>
	</g>
	<g>
		<path class="st0" d="M851.9,499.3c3.6,0,3.6-5.6,0-5.6C848.3,493.7,848.3,499.3,851.9,499.3L851.9,499.3z"/>
	</g>
	<g>
		<path class="st0" d="M862,277c3.6,0,3.6-5.6,0-5.6C858.4,271.4,858.4,277,862,277L862,277z"/>
	</g>
	<g>
		<path class="st0" d="M663.3,179.3c3.6,0,3.6-5.6,0-5.6C659.6,173.7,659.6,179.3,663.3,179.3L663.3,179.3z"/>
	</g>
	<g>
		<path class="st0" d="M378.1,441.4c4.7,0,4.7-7.3,0-7.3C373.4,434.1,373.4,441.4,378.1,441.4L378.1,441.4z"/>
	</g>
	<g>
		<path class="st0" d="M312.9,610.5c3.6,0,3.6-5.6,0-5.6C309.3,604.9,309.3,610.5,312.9,610.5L312.9,610.5z"/>
	</g>
	<g>
		<path class="st0" d="M73.7,856.4c1.1,0,2.2,0,3.4,0c1.5,0,2.9-1.3,2.8-2.8c-0.1-1.5-1.2-2.8-2.8-2.8c-1.1,0-2.2,0-3.4,0
			c-1.5,0-2.9,1.3-2.8,2.8C71,855.1,72.2,856.4,73.7,856.4L73.7,856.4z"/>
	</g>
	<g>
		<path class="st0" d="M1114.7,34.5c3.6,0,3.6-5.6,0-5.6C1111,28.9,1111,34.5,1114.7,34.5L1114.7,34.5z"/>
	</g>
	<g>
		<path class="st0" d="M1401,24.4c3.6,0,3.6-5.6,0-5.6C1397.4,18.7,1397.4,24.4,1401,24.4L1401,24.4z"/>
	</g>
	<g>
		<path class="st0" d="M1332.9,249.3c3.2,0,3.2-5,0-5C1329.7,244.3,1329.7,249.3,1332.9,249.3L1332.9,249.3z"/>
	</g>
	<g>
		<path class="st0" d="M767.7,243.3c3.6,0,3.6-5.6,0-5.6C764.1,237.7,764.1,243.3,767.7,243.3L767.7,243.3z"/>
	</g>
	<g>
		<path class="st0" d="M643,391.5c3.6,0,3.6-5.6,0-5.6C639.4,385.9,639.4,391.5,643,391.5L643,391.5z"/>
	</g>
	<g>
		<path class="st0" d="M417.7,313.2c4.7,0,4.7-7.3,0-7.3C413,305.8,413,313.2,417.7,313.2L417.7,313.2z"/>
	</g>
	<g>
		<path class="st0" d="M259.8,510.9c4.7,0,4.7-7.3,0-7.3C255.1,503.6,255.1,510.9,259.8,510.9L259.8,510.9z"/>
	</g>
	<g>
		<path class="st0" d="M531.9,846.3c3.6,0,3.6-5.6,0-5.6C528.3,840.7,528.3,846.3,531.9,846.3L531.9,846.3z"/>
	</g>
	<g>
		<path class="st0" d="M758.2,719.4c-3.6,0.3-3.2,5.9,0.4,5.6C762.2,724.7,761.8,719.1,758.2,719.4L758.2,719.4z"/>
	</g>
	<g>
		<path class="st0" d="M489.5,740.1c-3.6,0.3-3.2,5.9,0.4,5.6C493.5,745.5,493.1,739.9,489.5,740.1L489.5,740.1z"/>
	</g>
	<g>
		<path class="st0" d="M427.7,753.3c-2.5,5.7-6.6,10.1-12,13c-3.2,1.7,0,6.3,3.2,4.6c6.2-3.4,11.1-8.7,13.9-15.2
			C434.2,752.4,429.2,750,427.7,753.3L427.7,753.3z"/>
	</g>
	<g>
		<path class="st0" d="M890.2,916.3c5.7,6.6,11.5,13.3,17.2,19.9c2.4,2.7,6.3-1.2,4-4c-5.7-6.6-11.5-13.3-17.2-19.9
			C891.8,909.6,887.9,913.6,890.2,916.3L890.2,916.3z"/>
	</g>
	<g>
		<path class="st0" d="M1107.9,880c3.6,0,3.6-5.6,0-5.6C1104.3,874.4,1104.3,880,1107.9,880L1107.9,880z"/>
	</g>
	<g>
		<path class="st0" d="M1198.9,866.5c3.6,0,3.6-5.6,0-5.6C1195.3,860.9,1195.3,866.5,1198.9,866.5L1198.9,866.5z"/>
	</g>
	<g>
		<path class="st0" d="M755.7,292.5c-8.6,8.9-14.7,19.5-18.1,31.4c-1,3.5,4.4,5,5.4,1.5c3.1-11,8.7-20.7,16.6-28.9
			C762.1,293.9,758.2,289.9,755.7,292.5L755.7,292.5z"/>
	</g>
	<g>
		<path class="st0" d="M536.5,41.2c-3.9,10.1-10.7,18.7-19.6,24.8c-2.9,2-0.1,6.9,2.8,4.8c10.2-7.1,17.7-16.6,22.2-28.2
			C543.2,39.3,537.7,37.9,536.5,41.2L536.5,41.2z"/>
	</g>
	<g>
		<path class="st0" d="M275.9,10.9c3.6,0,3.6-5.6,0-5.6C272.2,5.3,272.2,10.9,275.9,10.9L275.9,10.9z"/>
	</g>
	<g>
		<path class="st0" d="M218.6,145.4c3.6,0,3.6-5.6,0-5.6C215,139.8,215,145.4,218.6,145.4L218.6,145.4z"/>
	</g>
	<g>
		<path class="st0" d="M106.2,187.6c-4.5,3.4-9,6.7-13.5,10.1c-2.9,2.1-0.1,7,2.8,4.8c4.5-3.4,9-6.7,13.5-10.1
			C111.9,190.3,109.1,185.4,106.2,187.6L106.2,187.6z"/>
	</g>
	<g>
		<path class="st0" d="M959.7,21c12.4,0,24.7,0,37.1,0c3.6,0,3.6-5.6,0-5.6c-12.4,0-24.7,0-37.1,0C956.1,15.4,956.1,21,959.7,21
			L959.7,21z"/>
	</g>
	<g>
		<path class="st0" d="M1205.6,14.3c3.6,0,3.6-5.6,0-5.6C1202,8.6,1202,14.3,1205.6,14.3L1205.6,14.3z"/>
	</g>
	<g>
		<path class="st0" d="M1343.7,223.1c3.6,0,3.6-5.6,0-5.6C1340.1,217.5,1340.1,223.1,1343.7,223.1L1343.7,223.1z"/>
	</g>
	<g>
		<path class="st0" d="M1327.8,548.5c4.5,7.9,9,15.7,13.5,23.6c1.8,3.1,6.6,0.3,4.8-2.8c-4.5-7.9-9-15.7-13.5-23.6
			C1330.9,542.5,1326,545.3,1327.8,548.5L1327.8,548.5z"/>
	</g>
	<g>
		<path class="st0" d="M1225.8,506.1c3.6,0,3.6-5.6,0-5.6C1222.2,500.5,1222.2,506.1,1225.8,506.1L1225.8,506.1z"/>
	</g>
	<g>
		<path class="st0" d="M913.2,562.3c-1.1,2.2-2.3,4.5-3.4,6.7c-0.7,1.4-0.4,3,1,3.8c1.2,0.7,3.2,0.4,3.8-1c1.1-2.2,2.3-4.5,3.4-6.7
			c0.7-1.4,0.4-3-1-3.8C915.8,560.6,913.8,561,913.2,562.3L913.2,562.3z"/>
	</g>
	<g>
		<path class="st0" d="M139.6,498.2c2.5-2.6-1.7-6.5-4.1-3.8C133,497,137.1,500.8,139.6,498.2L139.6,498.2z"/>
	</g>
	<g>
		<path class="st0" d="M94.1,609.3c-0.6,5.6-1.2,11.2-1.8,16.8c-0.4,3.6,5.1,4.8,5.5,1.2c0.6-5.6,1.2-11.2,1.8-16.8
			C100,606.9,94.5,605.7,94.1,609.3L94.1,609.3z"/>
	</g>
	<g>
		<path class="st0" d="M1307.5,740.8c-0.6,5.6-1.2,11.2-1.8,16.8c-0.4,3.6,5.1,4.8,5.5,1.2c0.6-5.6,1.2-11.2,1.8-16.8
			C1313.4,738.4,1307.9,737.2,1307.5,740.8L1307.5,740.8z"/>
	</g>
	<g>
		<path class="st0" d="M1177.1,189c-3.9,10.1-10.7,18.7-19.6,24.8c-2.9,2-0.1,6.9,2.8,4.8c10.2-7.1,17.7-16.6,22.2-28.2
			C1183.8,187.1,1178.4,185.6,1177.1,189L1177.1,189z"/>
	</g>
	<g>
		<path class="st0" d="M735.4,74.8c3.6,0,3.6-5.6,0-5.6C731.8,69.2,731.8,74.8,735.4,74.8L735.4,74.8z"/>
	</g>
	<g>
		<path class="st0" d="M856.7,71.4c3.6,0,3.6-5.6,0-5.6C853.1,65.8,853.1,71.4,856.7,71.4L856.7,71.4z"/>
	</g>
	<g>
		<path class="st0" d="M91.7,926.8c4.5,7.9,9,15.7,13.5,23.6c1.8,3.1,6.6,0.3,4.8-2.8c-4.5-7.9-9-15.7-13.5-23.6
			C94.8,920.8,89.9,923.6,91.7,926.8L91.7,926.8z"/>
	</g>
	<g>
		<path class="st0" d="M28.2,11.2c4.5,7.9,9,15.7,13.5,23.6c1.8,3.1,6.6,0.3,4.8-2.8C42,24.1,37.5,16.2,33,8.3
			C31.2,5.2,26.4,8,28.2,11.2L28.2,11.2z"/>
	</g>
</g>
</svg>
