<?xml version="1.0" encoding="utf-8"?>
<!-- Generator: Adobe Illustrator 24.2.1, SVG Export Plug-In . SVG Version: 6.00 Build 0)  -->
<svg version="1.1" id="Layer_1" xmlns="http://www.w3.org/2000/svg" xmlns:xlink="http://www.w3.org/1999/xlink" x="0px" y="0px"
	 viewBox="0 0 1024 768" style="enable-background:new 0 0 1024 768;" xml:space="preserve">
<style type="text/css">
	.st0{fill:none;stroke:#eee;stroke-width:10;stroke-linecap:round;stroke-miterlimit:10;opacity:0.5}
</style>
<line class="st0" x1="83.7" y1="204.9" x2="62.3" y2="174.5"/>
<line class="st0" x1="66.8" y1="52" x2="35.8" y2="37.3"/>
<line class="st0" x1="42.9" y1="425.3" x2="59.9" y2="394.3"/>
<line class="st0" x1="283.9" y1="160.3" x2="314.9" y2="174.5"/>
<line class="st0" x1="150.6" y1="621" x2="120.6" y2="634.1"/>
<line class="st0" x1="326.2" y1="723.6" x2="338.7" y2="693.6"/>
<line class="st0" x1="315" y1="536.9" x2="284.1" y2="539.1"/>
<line class="st0" x1="197.5" y1="349.6" x2="232.1" y2="366.5"/>
<line class="st0" x1="618" y1="441" x2="650.9" y2="454"/>
<line class="st0" x1="414.5" y1="64.6" x2="441.9" y2="39.5"/>
<line class="st0" x1="921.6" y1="425.7" x2="942.6" y2="391.7"/>
<line class="st0" x1="452" y1="567.5" x2="479.5" y2="550"/>
<line class="st0" x1="452.1" y1="357.3" x2="425.5" y2="341.2"/>
<line class="st0" x1="589.5" y1="199.7" x2="552.1" y2="208.6"/>
<line class="st0" x1="574.2" y1="673.3" x2="571.3" y2="708.6"/>
<line class="st0" x1="701.1" y1="628.5" x2="739.8" y2="638.7"/>
<line class="st0" x1="796.8" y1="341.1" x2="784.6" y2="312.5"/>
<line class="st0" x1="926.1" y1="99.5" x2="921.5" y2="137.7"/>
<line class="st0" x1="882.5" y1="594" x2="845" y2="602.9"/>
<line class="st0" x1="935" y1="747.5" x2="908.4" y2="731.4"/>
<line class="st0" x1="726.5" y1="69.9" x2="689" y2="78.8"/>
</svg>
