<?xml version="1.0" encoding="utf-8"?>
<!-- Generator: Adobe Illustrator 24.2.1, SVG Export Plug-In . SVG Version: 6.00 Build 0)  -->
<svg version="1.1" xmlns="http://www.w3.org/2000/svg" xmlns:xlink="http://www.w3.org/1999/xlink" x="0px" y="0px"
	 viewBox="0 0 464.9 283.6" style="enable-background:new 0 0 464.9 283.6;" xml:space="preserve">
<style type="text/css">
	.st0{fill:#F4F4E9;}
	.st1{fill:#C6926E;}
	.st2{fill:#E2A99C;}
	.st3{fill:none;stroke:#F5F8DF;stroke-miterlimit:10;}
	.st4{fill:none;stroke:#F37980;stroke-miterlimit:10;}
	.st5{fill:#F5F8DF;}
	.st6{fill:none;stroke:#F5F8DF;stroke-width:2;stroke-miterlimit:10;}
	.st7{fill:none;stroke:#F37980;stroke-width:0.75;stroke-linecap:round;stroke-miterlimit:10;}
	.st8{fill:none;stroke:#C6926E;stroke-miterlimit:10;}
	.st9{fill:none;stroke:#F5F8DF;stroke-linecap:round;stroke-miterlimit:10;}
	.st10{fill:none;stroke:#E2A99C;stroke-width:1.5;stroke-miterlimit:10;}
	.st11{fill:none;stroke:#F4F4E9;stroke-linecap:round;stroke-miterlimit:10;}
	.st12{fill:#F5F8E0;}
	.st13{fill:none;stroke:#E2A99C;stroke-width:5;stroke-miterlimit:10;}
	.st14{fill:none;stroke:#FDFEFE;stroke-linecap:round;stroke-miterlimit:10;}
	.st15{fill:none;stroke:#E2A99C;stroke-width:2;stroke-linecap:round;stroke-miterlimit:10;}
	.st16{fill:none;stroke:#E2A99C;stroke-width:9;stroke-miterlimit:10;}
	.st17{fill:#FFFFFF;}
	.st18{fill:none;stroke:#E2A99C;stroke-width:10;stroke-miterlimit:10;}
	.st19{fill:none;stroke:#F5F8DF;stroke-width:0.25;stroke-miterlimit:10;}
	.st20{fill:none;stroke:#F37980;stroke-linecap:round;stroke-miterlimit:10;}
	.st21{fill:none;stroke:#F37980;stroke-width:0.5;stroke-linecap:round;stroke-miterlimit:10;}
	.st22{fill:none;stroke:#F4F4E9;stroke-width:1.5;stroke-miterlimit:10;}
	.st23{fill:none;stroke:#E2A99C;stroke-linecap:round;stroke-miterlimit:10;}
	.st24{fill:#F5F4E9;}
	.st25{fill:none;stroke:#E2A99C;stroke-width:7;stroke-miterlimit:10;}
	.st26{fill:none;stroke:#F4F4E9;stroke-width:6;stroke-miterlimit:10;}
	.st27{fill:none;stroke:#E2A99C;stroke-width:6;stroke-linecap:round;stroke-miterlimit:10;}
	.st28{fill:none;stroke:#E2A99C;stroke-width:4;stroke-linecap:round;stroke-miterlimit:10;}
</style>
<g id="PREP._BAKER">
	<rect x="851.4" y="935.2" class="st0" width="270" height="162"/>
	<path class="st1" d="M-42.2,1127.3c0,1.6-1.3,2-2.8,2.2c-0.9,0.2-38.2,0.1-39.7,0c-1.4-0.1-2.8-0.6-2.8-2.2v-23.3
		c0-1.6,1.4-2.2,2.8-2.2c0.5,0,9.9-0.5,19.8-0.5c9.6,0,19.6,0,19.9,0c1.9-0.1,2.8,1.1,2.8,2.7V1127.3z"/>
	<g id="Background_4_">
		<g>
			<rect x="271.7" y="935.1" class="st0" width="270" height="161"/>
		</g>
	</g>
	<rect x="848.8" y="1108.3" class="st2" width="270" height="162"/>
	<line class="st3" x1="301.2" y1="975.3" x2="307.9" y2="968.2"/>
	<text transform="matrix(1 0 0 0.95 297.7108 1071.6218)" class="st2" style="font-family:'Kollektif'; font-size:6px;">social: </text>
	<text transform="matrix(1 0 0 1 314.5463 1071.6218)" class="st2" style="font-family:'Kollektif'; font-size:6px;">instagram.com/thetoastedtart</text>
	<text transform="matrix(1 0 0 0.95 297.7108 1061.782)" class="st2" style="font-family:'Kollektif'; font-size:6px;">shop: </text>
	<text transform="matrix(1 0 0 1 312.5844 1061.782)" class="st2" style="font-family:'Kollektif'; font-size:6px;">www.thetoastedtart.com</text>
	<text transform="matrix(1 0 0 0.95 297.6635 1052.0681)" class="st2" style="font-family:'Kollektif'; font-size:6px;">e-mail: </text>
	<text transform="matrix(1 0 0 1 315.621 1052.0681)" class="st2" style="font-family:'Kollektif'; font-size:6px;">thetoastedtart@gmail.com</text>
	<g>
		<path class="st4" d="M-30,986.6v31c0,2.4,1.6,4.3,3.5,4.3h54.7c1.9,0,3.5-1.9,3.5-4.3v-31.1c0-2.4-1.6-4.3-3.5-4.3h-54.6
			C-28.5,982.3-30,984.2-30,986.6z"/>
		<path class="st4" d="M19.1,994.8c0.7,0,1.3-0.1,2-0.3c0.6-0.2,1.2-0.4,1.8-0.8c0.4-0.3,0.7-0.6,0.8-0.9s0.1-0.7-0.1-1
			c-0.2-0.3-0.5-0.5-0.8-0.6c-0.4-0.1-0.8,0-1.2,0.2c-0.5,0.3-1.1,0.5-1.6,0.5c-0.5,0.1-1.1,0.1-1.7,0c-0.4-0.1-0.7-0.2-1.1-0.4
			s-0.7-0.4-1-0.5c-1.1-0.5-2.2-0.8-3.3-0.8s-2.2,0.3-3.3,0.9c-1,0.6-2,0.9-3,0.9s-1.9-0.3-2.9-0.9c-1.1-0.6-2.2-0.9-3.3-0.9
			c-1.1,0-2.3,0.3-3.4,1c-1,0.6-2,0.9-3,0.9c-1,0-1.9-0.3-2.9-0.9c-1-0.6-2.1-0.9-3.2-0.9c-1.1,0-2.2,0.3-3.3,0.9
			c-1,0.5-1.9,0.9-2.9,1s-1.9-0.1-2.9-0.6c-0.3-0.2-0.6-0.2-0.9-0.1c-0.3,0.1-0.6,0.3-0.8,0.6c-0.2,0.3-0.3,0.6-0.3,0.9
			c0,0.3,0.2,0.6,0.4,0.8c0.1,0.1,0.3,0.3,0.5,0.4c0.2,0.1,0.4,0.2,0.5,0.3c1.1,0.4,2.2,0.7,3.3,0.6c1.1,0,2.2-0.4,3.3-1
			c1-0.6,1.9-0.9,2.8-0.9c0.9,0,1.8,0.3,2.7,0.8c1.1,0.7,2.3,1,3.5,1s2.4-0.4,3.6-1.1c0.9-0.5,1.8-0.8,2.7-0.8s1.8,0.2,2.7,0.8
			c1.2,0.7,2.4,1,3.6,1c1.2,0,2.4-0.4,3.7-1.1c0.9-0.5,1.9-0.8,2.8-0.8c0.9,0,1.8,0.3,2.7,0.8c0.5,0.3,1.1,0.6,1.7,0.7
			C17.9,994.7,18.5,994.8,19.1,994.8z"/>
		<path class="st4" d="M19.1,1004.3c0.7,0,1.3-0.1,2-0.3c0.6-0.2,1.2-0.4,1.8-0.8c0.4-0.3,0.7-0.6,0.8-0.9s0.1-0.7-0.1-1
			c-0.2-0.3-0.5-0.5-0.8-0.6c-0.4-0.1-0.8,0-1.2,0.2c-0.5,0.3-1.1,0.5-1.6,0.5c-0.5,0.1-1.1,0.1-1.7,0c-0.4-0.1-0.7-0.2-1.1-0.4
			c-0.3-0.2-0.7-0.4-1-0.5c-1.1-0.5-2.2-0.8-3.3-0.8c-1.1,0-2.2,0.3-3.3,0.9c-1,0.6-2,0.9-3,0.9s-1.9-0.3-2.9-0.9
			c-1.1-0.6-2.2-0.9-3.3-0.9s-2.3,0.3-3.4,1c-1,0.6-2,0.9-3,0.9s-1.9-0.3-2.9-0.9c-1-0.6-2.1-0.9-3.2-0.9s-2.2,0.3-3.3,0.9
			c-1,0.5-1.9,0.9-2.9,1s-1.9-0.1-2.9-0.6c-0.3-0.2-0.6-0.2-0.9-0.1c-0.3,0.1-0.6,0.3-0.8,0.6c-0.2,0.3-0.3,0.6-0.3,0.9
			c0,0.3,0.2,0.6,0.4,0.8c0.1,0.1,0.3,0.3,0.5,0.4s0.4,0.2,0.5,0.3c1.1,0.4,2.2,0.7,3.3,0.6c1.1,0,2.2-0.4,3.3-1
			c1-0.6,1.9-0.9,2.8-0.9c0.9,0,1.8,0.3,2.7,0.8c1.1,0.7,2.3,1,3.5,1c1.2,0,2.4-0.4,3.6-1.1c0.9-0.5,1.8-0.8,2.7-0.8
			c0.9,0,1.8,0.2,2.7,0.8c1.2,0.7,2.4,1,3.6,1c1.2,0,2.4-0.4,3.7-1.1c0.9-0.5,1.9-0.8,2.8-0.8c0.9,0,1.8,0.3,2.7,0.8
			c0.5,0.3,1.1,0.6,1.7,0.7C17.9,1004.2,18.5,1004.3,19.1,1004.3z"/>
		<path class="st4" d="M19.1,1015c0.7,0,1.3-0.1,2-0.3c0.6-0.2,1.2-0.4,1.8-0.8c0.4-0.3,0.7-0.6,0.8-0.9s0.1-0.7-0.1-1
			c-0.2-0.3-0.5-0.5-0.8-0.6c-0.4-0.1-0.8,0-1.2,0.2c-0.5,0.3-1.1,0.5-1.6,0.5c-0.5,0.1-1.1,0.1-1.7,0c-0.4-0.1-0.7-0.2-1.1-0.4
			s-0.7-0.4-1-0.5c-1.1-0.5-2.2-0.8-3.3-0.8c-1.1,0-2.2,0.3-3.3,0.9c-1,0.6-2,0.9-3,0.9s-1.9-0.3-2.9-0.9c-1.1-0.6-2.2-0.9-3.3-0.9
			c-1.1,0-2.3,0.3-3.4,1c-1,0.6-2,0.9-3,0.9c-1,0-1.9-0.3-2.9-0.9c-1-0.6-2.1-0.9-3.2-0.9s-2.2,0.3-3.3,0.9c-1,0.5-1.9,0.9-2.9,1
			s-1.9-0.1-2.9-0.6c-0.3-0.2-0.6-0.2-0.9-0.1c-0.3,0.1-0.6,0.3-0.8,0.6c-0.2,0.3-0.3,0.6-0.3,0.9c0,0.3,0.2,0.6,0.4,0.8
			c0.1,0.1,0.3,0.3,0.5,0.4c0.2,0.1,0.4,0.2,0.5,0.3c1.1,0.4,2.2,0.7,3.3,0.6c1.1,0,2.2-0.4,3.3-1c1-0.6,1.9-0.9,2.8-0.9
			c0.9,0,1.8,0.3,2.7,0.8c1.1,0.7,2.3,1,3.5,1s2.4-0.4,3.6-1.1c0.9-0.5,1.8-0.8,2.7-0.8c0.9,0,1.8,0.2,2.7,0.8c1.2,0.7,2.4,1,3.6,1
			s2.4-0.4,3.7-1.1c0.9-0.5,1.9-0.8,2.8-0.8c0.9,0,1.8,0.3,2.7,0.8c0.5,0.3,1.1,0.6,1.7,0.7C17.9,1015,18.5,1015,19.1,1015z"/>
	</g>
	<text transform="matrix(1 0 0 1 297.6488 980.6311)" class="st2" style="font-family:'Kollektif-Bold'; font-size:13px;">THE TOASTED TART</text>
	<text transform="matrix(1 0 0 1 299.809 992.071)"><tspan x="0" y="0" class="st2" style="font-family:'Kollektif'; font-size:6px; letter-spacing:1;">HANDMADE GOODS</tspan><tspan x="0" y="9" class="st2" style="font-family:'Kollektif'; font-size:6px; letter-spacing:1;">BY KELLY HAINES</tspan></text>
	<path class="st5" d="M47.1,1127.3c0,1.6-1.3,2-2.8,2.2c-0.9,0.2-38.2,0.1-39.7,0c-1.4-0.1-2.8-0.6-2.8-2.2v-23.3
		c0-1.6,1.4-2.2,2.8-2.2c0.5,0,9.9-0.5,19.8-0.5c9.6,0,19.6,0,19.9,0c1.9-0.1,2.8,1.1,2.8,2.7V1127.3z"/>
	<path class="st6" d="M-1,1102.4v26c0,2,1.3,3.6,2.9,3.6H47c1.6,0,2.9-1.6,2.9-3.6v-26c0-2-1.3-3.6-2.9-3.6H1.9
		C0.3,1098.8-1,1100.4-1,1102.4z"/>
	<g>
		<line class="st7" x1="8.9" y1="1105.7" x2="5.3" y2="1104.1"/>
		<line class="st7" x1="3.8" y1="1121.3" x2="5.5" y2="1117.9"/>
		<line class="st7" x1="6.4" y1="1111.1" x2="8.5" y2="1114.3"/>
		<line class="st7" x1="10.3" y1="1120.6" x2="13.5" y2="1118.3"/>
		<line class="st7" x1="14.5" y1="1110.8" x2="18.3" y2="1110.1"/>
		<line class="st7" x1="34.2" y1="1115.9" x2="33.2" y2="1112.2"/>
		<line class="st7" x1="28.7" y1="1111.1" x2="25" y2="1112.4"/>
		<line class="st7" x1="41.8" y1="1107.7" x2="43.6" y2="1104.3"/>
		<line class="st7" x1="21.4" y1="1122.8" x2="21.3" y2="1126.6"/>
		<line class="st7" x1="18" y1="1115" x2="21.5" y2="1116.8"/>
		<line class="st7" x1="25.6" y1="1119.7" x2="28" y2="1122.7"/>
		<line class="st7" x1="41.8" y1="1126.4" x2="43.6" y2="1123"/>
		<line class="st7" x1="36.2" y1="1118.1" x2="38.6" y2="1121.1"/>
		<line class="st7" x1="33.7" y1="1126.2" x2="32.6" y2="1122.5"/>
		<line class="st7" x1="45.6" y1="1112.1" x2="41.9" y2="1113.3"/>
		<line class="st7" x1="9.8" y1="1125.3" x2="13.3" y2="1127.1"/>
		<line class="st7" x1="21.6" y1="1104.5" x2="17.9" y2="1105.7"/>
		<line class="st7" x1="31" y1="1108" x2="32.8" y2="1104.6"/>
		<line class="st7" x1="44.2" y1="1115.9" x2="43.3" y2="1119.6"/>
	</g>
	<path class="st8" d="M-90.2,1102.4v26c0,2,1.3,3.6,2.9,3.6h45.1c1.6,0,2.9-1.6,2.9-3.6v-26c0-2-1.3-3.6-2.9-3.6h-45.1
		C-88.9,1098.8-90.2,1100.4-90.2,1102.4z"/>
	<g>
		<line class="st9" x1="-80.3" y1="1105.7" x2="-83.9" y2="1104.1"/>
		<line class="st9" x1="-85.5" y1="1121.3" x2="-83.8" y2="1117.9"/>
		<line class="st9" x1="-82.8" y1="1111.1" x2="-80.7" y2="1114.3"/>
		<line class="st9" x1="-78.9" y1="1120.6" x2="-75.8" y2="1118.3"/>
		<line class="st9" x1="-74.8" y1="1110.8" x2="-70.9" y2="1110.1"/>
		<line class="st9" x1="-55" y1="1115.9" x2="-56.1" y2="1112.2"/>
		<line class="st9" x1="-60.6" y1="1111.1" x2="-64.3" y2="1112.4"/>
		<line class="st9" x1="-47.4" y1="1107.7" x2="-45.7" y2="1104.3"/>
		<line class="st9" x1="-67.8" y1="1122.8" x2="-68" y2="1126.6"/>
		<line class="st9" x1="-71.2" y1="1115" x2="-67.8" y2="1116.8"/>
		<line class="st9" x1="-63.6" y1="1119.7" x2="-61.2" y2="1122.7"/>
		<line class="st9" x1="-47.4" y1="1126.4" x2="-45.7" y2="1123"/>
		<line class="st9" x1="-53.1" y1="1118.1" x2="-50.7" y2="1121.1"/>
		<line class="st9" x1="-55.5" y1="1126.2" x2="-56.6" y2="1122.5"/>
		<line class="st9" x1="-43.6" y1="1112.1" x2="-47.4" y2="1113.3"/>
		<line class="st9" x1="-79.5" y1="1125.3" x2="-76" y2="1127.1"/>
		<line class="st9" x1="-67.6" y1="1104.5" x2="-71.4" y2="1105.7"/>
		<line class="st9" x1="-58.2" y1="1108" x2="-56.5" y2="1104.6"/>
		<line class="st9" x1="-45" y1="1115.9" x2="-46" y2="1119.6"/>
	</g>
	<path class="st10" d="M452.2,976.1v26c0,2,1.3,3.6,2.9,3.6h45.1c1.6,0,2.9-1.6,2.9-3.6v-26c0-2-1.3-3.6-2.9-3.6H455
		C453.4,972.5,452.2,974.1,452.2,976.1z"/>
	<g>
		<line class="st11" x1="462.1" y1="979.4" x2="458.5" y2="977.8"/>
		<line class="st11" x1="456.9" y1="995" x2="458.6" y2="991.6"/>
		<line class="st11" x1="459.5" y1="984.8" x2="461.7" y2="988"/>
		<line class="st11" x1="463.4" y1="994.3" x2="466.6" y2="992"/>
		<line class="st11" x1="467.6" y1="984.5" x2="471.5" y2="983.8"/>
		<line class="st11" x1="487.4" y1="989.6" x2="486.3" y2="985.9"/>
		<line class="st11" x1="481.8" y1="984.8" x2="478.1" y2="986.1"/>
		<line class="st11" x1="495" y1="981.4" x2="496.7" y2="978"/>
		<line class="st11" x1="474.6" y1="996.5" x2="474.4" y2="1000.3"/>
		<line class="st11" x1="471.2" y1="988.7" x2="474.6" y2="990.5"/>
		<line class="st11" x1="478.8" y1="993.4" x2="481.1" y2="996.4"/>
		<line class="st11" x1="495" y1="1000.1" x2="496.7" y2="996.7"/>
		<line class="st11" x1="489.3" y1="991.8" x2="491.7" y2="994.8"/>
		<line class="st11" x1="486.8" y1="999.9" x2="485.8" y2="996.2"/>
		<line class="st11" x1="498.8" y1="985.7" x2="495" y2="987"/>
		<line class="st11" x1="462.9" y1="999" x2="466.4" y2="1000.8"/>
		<line class="st11" x1="474.8" y1="978.2" x2="471" y2="979.4"/>
		<line class="st11" x1="484.2" y1="981.7" x2="485.9" y2="978.3"/>
		<line class="st11" x1="497.4" y1="989.6" x2="496.4" y2="993.3"/>
	</g>
	<path class="st12" d="M918,939.6"/>
	
		<text transform="matrix(1.0199 0 0 1 1236.3608 1220.1873)" class="st2" style="font-family:'Kollektif-BoldItalic'; font-size:23.1153px; letter-spacing:6.9;">POPTARTS + BAKED GOODS</text>
	<path class="st12" d="M1208,939"/>
	<g>
		<text transform="matrix(1.0199 0 0 1 1481.9741 1043.9568)"><tspan x="0" y="0" class="st2" style="font-family:'Kollektif-Bold'; font-size:51.39px; letter-spacing:2.9;">THE</tspan><tspan x="0" y="61.7" class="st2" style="font-family:'Kollektif-Bold'; font-size:51.39px; letter-spacing:2.9;">TOASTED</tspan><tspan x="0" y="123.3" class="st2" style="font-family:'Kollektif-Bold'; font-size:51.39px; letter-spacing:2.9;">TART</tspan></text>
		<path class="st2" d="M1438.8,1142.1c0,7.1-6.2,8.9-12.8,10c-4.2,0.7-176.7,0.6-183.7,0c-6.7-0.6-12.8-2.9-12.8-10v-105.2
			c0-7.3,6.3-10,13.2-9.8c2.2,0.1,45.9-2.3,91.5-2.3c44.6,0,90.4,0.1,91.9,0c8.6-0.5,12.8,4.9,12.8,12.2V1142.1z"/>
		<path class="st13" d="M1216.7,1030.1v117.3c0,9,5.9,16.2,13.2,16.2h208.4c7.3,0,13.2-7.2,13.2-16.1v-117.4c0-9-5.9-16.2-13.3-16.2
			H1230C1222.7,1013.9,1216.7,1021.1,1216.7,1030.1z"/>
		<g>
			<line class="st14" x1="1262.6" y1="1044.7" x2="1245.9" y2="1037.9"/>
			<line class="st14" x1="1238.7" y1="1115.2" x2="1246.7" y2="1099.8"/>
			<line class="st14" x1="1250.9" y1="1069.1" x2="1260.7" y2="1083.5"/>
			<line class="st14" x1="1268.9" y1="1112.1" x2="1283.6" y2="1101.9"/>
			<line class="st14" x1="1288.2" y1="1068" x2="1306.1" y2="1064.6"/>
			<line class="st14" x1="1379.5" y1="1090.8" x2="1374.6" y2="1074.3"/>
			<line class="st14" x1="1354" y1="1069.5" x2="1336.6" y2="1074.9"/>
			<line class="st14" x1="1414.6" y1="1054" x2="1422.6" y2="1038.6"/>
			<line class="st14" x1="1320.3" y1="1122.2" x2="1319.5" y2="1139.3"/>
			<line class="st14" x1="1304.6" y1="1086.8" x2="1320.7" y2="1095"/>
			<line class="st14" x1="1339.8" y1="1107.8" x2="1350.8" y2="1121.5"/>
			<line class="st14" x1="1414.6" y1="1138.4" x2="1422.6" y2="1123.1"/>
			<line class="st14" x1="1388.6" y1="1100.7" x2="1399.5" y2="1114.4"/>
			<line class="st14" x1="1377.1" y1="1137.2" x2="1372.2" y2="1120.8"/>
			<line class="st14" x1="1432.2" y1="1073.6" x2="1414.9" y2="1079"/>
			<line class="st14" x1="1266.5" y1="1133.3" x2="1282.7" y2="1141.2"/>
			<line class="st14" x1="1321.3" y1="1039.4" x2="1304" y2="1044.9"/>
			<line class="st14" x1="1364.7" y1="1055.2" x2="1372.7" y2="1039.9"/>
			<line class="st14" x1="1425.8" y1="1090.9" x2="1421.2" y2="1107.5"/>
		</g>
	</g>
	<line class="st3" x1="881.2" y1="974.7" x2="887.9" y2="967.6"/>
	<g>
		<line class="st15" x1="974.4" y1="971.7" x2="985.2" y2="978"/>
		<line class="st15" x1="1030.6" y1="966.3" x2="1043" y2="968.1"/>
		<line class="st15" x1="1090" y1="974.3" x2="1097.7" y2="964.5"/>
		<line class="st15" x1="918" y1="962.2" x2="926.6" y2="953.2"/>
		<line class="st15" x1="882.5" y1="978.1" x2="870.8" y2="973.6"/>
		<line class="st15" x1="872.9" y1="1069.6" x2="879.9" y2="1080"/>
		<line class="st15" x1="916" y1="1057.8" x2="904.9" y2="1063.7"/>
		<line class="st15" x1="951.6" y1="1078.2" x2="953" y2="1065.7"/>
		<line class="st15" x1="1003.7" y1="1060.9" x2="1012.5" y2="1052.1"/>
		<line class="st15" x1="1053.5" y1="1082.7" x2="1044.6" y2="1073.8"/>
		<line class="st15" x1="1091.3" y1="1068" x2="1078.8" y2="1066.9"/>
	</g>
	<rect x="854.7" y="938.6" class="st16" width="263.6" height="155.2"/>
	<rect x="874" y="992.8" style="fill:none;" width="233.4" height="110.7"/>
	
		<text transform="matrix(1 0 0 1 874.0212 1035.1428)" style="fill:none;stroke:#E2A99C;stroke-width:3;stroke-miterlimit:10; font-family:'Kollektif-BoldItalic'; font-size:58px; letter-spacing:3;">ENJOY!</text>
	
		<text transform="matrix(1.0199 0 0 1 931.2498 1208.7551)" class="st0" style="font-family:'Kollektif-BoldItalic'; font-size:5.3169px; letter-spacing:1;">POPTARTS + BAKED GOODS</text>
	<path class="st12" d="M918,1109"/>
	<text transform="matrix(1 0 0 0.95 951.3055 1255.0984)" class="st0" style="font-family:'Kollektif'; font-size:6px;">www.t</text>
	<text transform="matrix(1 0 0 1 968.0091 1255.0984)" class="st0" style="font-family:'Kollektif'; font-size:6px;">hetoastedtart.com</text>
	<g id="Background_1_">
		<g>
			<rect x="1153.1" y="1346.3" class="st17" width="270" height="161"/>
		</g>
	</g>
	<rect x="854.7" y="1107.6" class="st18" width="263.6" height="155.2"/>
</g>
<g id="Right_Side_Text_1_">
	<g id="address_:_your_address_goes_here_1_">
		<path class="st4" d="M-263.7,760.1c-9.1,5-17.3-9-38.7-8.9c-21.2,0.1-29.2,13.8-38.2,8.9c-12.4-6.7-12.4-40.7,0-47.6
			c8.8-4.9,16.5,8.2,37.5,8.4c21.8,0.3,30.2-13.6,39.4-8.4C-251.2,719.5-251.3,753.3-263.7,760.1z"/>
		<path class="st5" d="M-198.6,799.4c0.2,4.6-3.5,9.6-8,11.6c-9.8,4.5-17-7.9-31.2-4.5c-2.6,0.6-5.6,1.8-6.9,0.3
			c-1.8-2.1,0.6-7.8,2.6-11c2-3.2,4.5-5.1,7.5-7.4c3.5-2.6,5.3-4,7.8-4.8c8.5-2.8,16.9,3.1,19.7,5.1
			C-203.1,791.5-198.8,794.6-198.6,799.4z"/>
		<path class="st4" d="M-308.9,730.3"/>
	</g>
	<g id="website_:_www.yourdomain.com">
	</g>
	<g id="e-mail_:_Info_x40_yourdomain.com">
	</g>
	<g id="phone_:_1800_XXXX_10">
	</g>
</g>
<g id="Layer_2_xA0_Image_1_">
	<g>
		<path class="st4" d="M-20,879.2v26c0,2,1.5,3.6,3.4,3.6H37c1.9,0,3.4-1.6,3.4-3.6v-26c0-2-1.5-3.6-3.4-3.6h-53.6
			C-18.5,875.5-20,877.2-20,879.2z"/>
		<path class="st5" d="M35.5,909.9"/>
		<path class="st4" d="M-12.2,891.1c0.2-0.9,2.7-2.7,3.5-2.6c1,0.2,1.4,1.5,0.7,2.2c-0.7,0.8-1.6,1.5-2.6,1.9
			C-11.6,893-12.5,892.1-12.2,891.1z"/>
		<path class="st4" d="M7.8,885.2c0.3-0.3,0.5-0.6,0.7-0.9s0.3-0.7,0.4-1.1c0.1-0.3,0-0.6-0.1-0.8c-0.1-0.2-0.3-0.3-0.5-0.4
			c-0.2-0.1-0.4,0-0.6,0.1c-0.2,0.1-0.3,0.3-0.4,0.6c-0.1,0.3-0.2,0.6-0.4,0.9c-0.2,0.3-0.4,0.5-0.7,0.7c-0.2,0.1-0.4,0.2-0.6,0.3
			c-0.2,0.1-0.4,0.1-0.7,0.2c-0.7,0.2-1.3,0.5-1.8,1c-0.5,0.5-0.8,1.1-1,1.8c-0.2,0.7-0.5,1.3-0.9,1.7s-1,0.7-1.6,0.8
			c-0.7,0.2-1.3,0.5-1.8,1c-0.5,0.5-0.8,1.1-1,1.9c-0.2,0.7-0.5,1.3-0.9,1.7c-0.4,0.4-0.9,0.7-1.6,0.8c-0.7,0.2-1.3,0.5-1.8,0.9
			c-0.5,0.5-0.8,1.1-1,1.8c-0.2,0.7-0.4,1.2-0.8,1.7s-0.8,0.8-1.5,0.9c-0.2,0-0.4,0.2-0.5,0.3c-0.1,0.2-0.1,0.4-0.1,0.6
			c0,0.2,0.1,0.4,0.3,0.5c0.1,0.1,0.3,0.2,0.5,0.2c0.1,0,0.2,0,0.4,0c0.1,0,0.2-0.1,0.4-0.1c0.7-0.3,1.2-0.6,1.7-1.1
			c0.5-0.5,0.8-1.1,1-1.8c0.2-0.7,0.4-1.2,0.8-1.6s0.9-0.6,1.5-0.8c0.8-0.2,1.4-0.5,1.9-1c0.5-0.5,0.9-1.2,1.1-2
			c0.2-0.6,0.4-1.2,0.8-1.5c0.4-0.4,0.9-0.6,1.5-0.8c0.8-0.2,1.5-0.5,2-1s0.9-1.2,1.1-2c0.2-0.6,0.4-1.2,0.8-1.5
			c0.4-0.4,0.9-0.6,1.5-0.7c0.4-0.1,0.7-0.2,1-0.4C7.2,885.7,7.5,885.5,7.8,885.2z"/>
		<path class="st4" d="M21.9,883.5c0.4-0.4,0.7-0.8,1-1.2c0.3-0.4,0.5-0.9,0.7-1.4c0.1-0.4,0.2-0.7,0.1-0.9s-0.2-0.4-0.5-0.4
			c-0.3,0-0.5,0-0.8,0.2c-0.2,0.2-0.5,0.4-0.6,0.8c-0.2,0.4-0.4,0.8-0.7,1.1s-0.6,0.7-1,0.9c-0.3,0.2-0.5,0.3-0.8,0.4
			c-0.3,0.1-0.6,0.2-0.8,0.3c-0.9,0.4-1.6,0.9-2.3,1.5c-0.6,0.6-1.2,1.4-1.5,2.3c-0.3,0.9-0.8,1.6-1.4,2.1c-0.6,0.6-1.3,1-2.1,1.3
			c-0.9,0.3-1.7,0.8-2.4,1.5c-0.7,0.6-1.2,1.4-1.6,2.4c-0.3,0.9-0.8,1.5-1.4,2.1c-0.6,0.5-1.3,1-2.1,1.2c-0.9,0.3-1.7,0.8-2.3,1.4
			c-0.7,0.6-1.2,1.4-1.6,2.3c-0.3,0.8-0.7,1.5-1.2,2.1c-0.5,0.6-1.1,1-2,1.3c-0.3,0.1-0.5,0.3-0.6,0.5s-0.2,0.5-0.2,0.7
			c0,0.3,0.1,0.5,0.2,0.6s0.3,0.2,0.6,0.1c0.1,0,0.3-0.1,0.4-0.1s0.3-0.1,0.4-0.2c0.8-0.4,1.6-0.9,2.2-1.6c0.6-0.6,1.1-1.4,1.5-2.3
			c0.3-0.8,0.7-1.5,1.3-2s1.2-0.9,2-1.2c1-0.3,1.8-0.9,2.5-1.6s1.3-1.5,1.7-2.5c0.3-0.8,0.7-1.4,1.2-1.9c0.5-0.5,1.2-0.9,1.9-1.2
			c1-0.3,1.8-0.9,2.6-1.6c0.7-0.7,1.3-1.6,1.7-2.6c0.3-0.8,0.7-1.4,1.3-1.9c0.5-0.5,1.2-0.9,1.9-1.1c0.5-0.1,0.9-0.3,1.3-0.6
			C21.1,884.2,21.5,883.9,21.9,883.5z"/>
		<path class="st4" d="M26.2,889.6c0.3-0.3,0.5-0.6,0.7-0.9c0.2-0.3,0.3-0.7,0.4-1.1c0.1-0.3,0.1-0.6,0-0.8
			c-0.1-0.2-0.3-0.3-0.5-0.4c-0.2-0.1-0.4-0.1-0.6,0.1c-0.2,0.1-0.3,0.3-0.4,0.6c-0.1,0.3-0.3,0.6-0.5,0.9s-0.4,0.5-0.7,0.7
			c-0.2,0.1-0.4,0.2-0.6,0.3c-0.2,0.1-0.4,0.1-0.7,0.2c-0.7,0.2-1.3,0.5-1.8,1s-0.8,1-1,1.8c-0.2,0.7-0.5,1.3-0.9,1.7
			c-0.4,0.4-1,0.7-1.6,0.8c-0.7,0.2-1.3,0.5-1.8,0.9c-0.5,0.5-0.8,1.1-1,1.9c-0.2,0.7-0.5,1.2-0.9,1.6c-0.4,0.4-0.9,0.7-1.6,0.8
			c-0.7,0.1-1.3,0.5-1.8,0.9c-0.5,0.5-0.8,1.1-1.1,1.8c-0.2,0.6-0.4,1.2-0.8,1.6s-0.8,0.7-1.5,0.9c-0.2,0-0.4,0.2-0.5,0.3
			c-0.1,0.2-0.1,0.4-0.1,0.6c0,0.2,0.1,0.4,0.3,0.5c0.1,0.1,0.3,0.2,0.5,0.2c0.1,0,0.2,0,0.4,0c0.1,0,0.2-0.1,0.4-0.1
			c0.7-0.2,1.3-0.6,1.7-1.1c0.5-0.5,0.8-1.1,1-1.8c0.2-0.7,0.4-1.2,0.8-1.5c0.4-0.4,0.9-0.6,1.5-0.7c0.8-0.2,1.4-0.5,2-1
			c0.5-0.5,0.9-1.2,1.1-2c0.2-0.6,0.4-1.1,0.8-1.5c0.4-0.4,0.9-0.6,1.5-0.7c0.8-0.2,1.5-0.5,2-1c0.5-0.5,0.9-1.2,1.1-2
			c0.2-0.6,0.4-1.2,0.8-1.5s0.9-0.6,1.5-0.7c0.4-0.1,0.7-0.2,1-0.3C25.6,890.1,25.9,889.9,26.2,889.6z"/>
		<path class="st4" d="M-17.9,900.1c0-0.9,2.1-3.2,3-3.2c1,0,1.7,1.1,1.1,2c-0.6,1-1.3,1.8-2.2,2.4
			C-16.9,901.9-17.9,901.2-17.9,900.1z"/>
		<path class="st4" d="M30.7,896.8c0.2-0.9,2.8-2.6,3.6-2.4c0.9,0.2,1.4,1.5,0.7,2.3c-0.8,0.8-1.7,1.4-2.7,1.8
			C31.2,898.8,30.4,897.8,30.7,896.8z"/>
		<path class="st4" d="M31.5,886.5c0-0.9,2.1-3.2,3-3.2c1,0,1.7,1.1,1.1,2c-0.6,1-1.3,1.8-2.2,2.4C32.5,888.3,31.5,887.6,31.5,886.5
			z"/>
		<path class="st4" d="M20.6,901.5c0-0.9,2.1-3.2,3-3.2c1,0,1.7,1.1,1.1,2c-0.6,1-1.3,1.8-2.2,2.4C21.6,903.3,20.5,902.6,20.6,901.5
			z"/>
		<path class="st4" d="M-2.3,881.9c0.2-0.9,2.7-2.7,3.5-2.6c1,0.2,1.4,1.5,0.7,2.2c-0.7,0.8-1.6,1.5-2.6,1.9
			C-1.7,883.9-2.6,882.9-2.3,881.9z"/>
	</g>
	<path class="st6" d="M-176.6,1017.6v26c0,2,1.3,3.6,2.9,3.6h45.8c1.6,0,2.9-1.6,2.9-3.6v-26c0-2-1.3-3.6-2.9-3.6h-45.8
		C-175.3,1014-176.6,1015.6-176.6,1017.6z"/>
	<path class="st3" d="M-135.4,1024.5c0.6,0,1.1-0.1,1.6-0.2c0.5-0.1,1-0.4,1.5-0.7c0.4-0.2,0.6-0.5,0.7-0.8s0.1-0.6-0.1-0.8
		c-0.2-0.3-0.4-0.4-0.7-0.5s-0.6,0-1,0.2c-0.4,0.2-0.9,0.4-1.3,0.5s-0.9,0.1-1.4,0c-0.3-0.1-0.6-0.2-0.9-0.3
		c-0.3-0.1-0.6-0.3-0.8-0.4c-0.9-0.4-1.8-0.7-2.7-0.7s-1.8,0.2-2.8,0.8c-0.9,0.5-1.7,0.8-2.5,0.8s-1.6-0.2-2.5-0.7
		c-0.9-0.5-1.8-0.8-2.8-0.8c-1,0-1.9,0.3-2.8,0.8c-0.9,0.5-1.7,0.8-2.5,0.8c-0.8,0-1.6-0.2-2.4-0.7c-0.9-0.5-1.8-0.8-2.7-0.8
		c-0.9,0-1.9,0.2-2.8,0.7c-0.8,0.4-1.6,0.8-2.4,0.8c-0.8,0.1-1.6-0.1-2.4-0.5c-0.3-0.2-0.5-0.2-0.8-0.1c-0.3,0.1-0.5,0.2-0.7,0.5
		c-0.2,0.2-0.3,0.5-0.2,0.7c0,0.2,0.1,0.5,0.4,0.7c0.1,0.1,0.3,0.2,0.4,0.3s0.3,0.2,0.5,0.2c0.9,0.4,1.9,0.6,2.8,0.5
		s1.8-0.3,2.7-0.8c0.8-0.5,1.6-0.7,2.3-0.7c0.8,0,1.5,0.2,2.3,0.7c1,0.6,2,0.8,3,0.8s2-0.3,3-0.9c0.8-0.5,1.5-0.7,2.3-0.7
		c0.7,0,1.5,0.2,2.2,0.7c1,0.6,2,0.9,3,0.8c1,0,2.1-0.3,3.1-0.9c0.8-0.5,1.6-0.7,2.3-0.7c0.8,0,1.5,0.2,2.2,0.7
		c0.4,0.3,0.9,0.5,1.4,0.6C-136.4,1024.4-135.9,1024.5-135.4,1024.5z"/>
	<path class="st3" d="M-135.4,1032.5c0.6,0,1.1-0.1,1.6-0.2c0.5-0.1,1-0.4,1.5-0.7c0.4-0.2,0.6-0.5,0.7-0.8s0.1-0.6-0.1-0.8
		c-0.2-0.3-0.4-0.4-0.7-0.5s-0.6,0-1,0.2c-0.4,0.2-0.9,0.4-1.3,0.5s-0.9,0.1-1.4,0c-0.3-0.1-0.6-0.2-0.9-0.3
		c-0.3-0.1-0.6-0.3-0.8-0.4c-0.9-0.4-1.8-0.7-2.7-0.7c-0.9,0-1.8,0.2-2.8,0.8c-0.9,0.5-1.7,0.8-2.5,0.8c-0.8,0-1.6-0.2-2.5-0.7
		c-0.9-0.5-1.8-0.8-2.8-0.8c-1,0-1.9,0.3-2.8,0.8c-0.9,0.5-1.7,0.8-2.5,0.8c-0.8,0-1.6-0.2-2.4-0.7c-0.9-0.5-1.8-0.8-2.7-0.8
		c-0.9,0-1.9,0.2-2.8,0.7c-0.8,0.4-1.6,0.8-2.4,0.8s-1.6-0.1-2.4-0.5c-0.3-0.2-0.5-0.2-0.8-0.1c-0.3,0.1-0.5,0.2-0.7,0.5
		c-0.2,0.2-0.3,0.5-0.2,0.7s0.1,0.5,0.4,0.7c0.1,0.1,0.3,0.2,0.4,0.3c0.1,0.1,0.3,0.2,0.5,0.2c0.9,0.4,1.9,0.6,2.8,0.5
		s1.8-0.3,2.7-0.8c0.8-0.5,1.6-0.7,2.3-0.7s1.5,0.2,2.3,0.7c1,0.6,2,0.8,3,0.8s2-0.3,3-0.9c0.8-0.5,1.5-0.7,2.3-0.7
		c0.7,0,1.5,0.2,2.2,0.7c1,0.6,2,0.9,3,0.8c1,0,2.1-0.3,3.1-0.9c0.8-0.5,1.6-0.7,2.3-0.7c0.8,0,1.5,0.2,2.2,0.7
		c0.4,0.3,0.9,0.5,1.4,0.6C-136.4,1032.4-135.9,1032.5-135.4,1032.5z"/>
	<path class="st3" d="M-135.4,1041.5c0.6,0,1.1-0.1,1.6-0.2c0.5-0.1,1-0.4,1.5-0.7c0.4-0.2,0.6-0.5,0.7-0.8s0.1-0.6-0.1-0.8
		c-0.2-0.3-0.4-0.4-0.7-0.5s-0.6,0-1,0.2c-0.4,0.2-0.9,0.4-1.3,0.5s-0.9,0.1-1.4,0c-0.3-0.1-0.6-0.2-0.9-0.3
		c-0.3-0.1-0.6-0.3-0.8-0.4c-0.9-0.4-1.8-0.7-2.7-0.7c-0.9,0-1.8,0.2-2.8,0.8c-0.9,0.5-1.7,0.8-2.5,0.8c-0.8,0-1.6-0.2-2.5-0.7
		c-0.9-0.5-1.8-0.8-2.8-0.8c-1,0-1.9,0.3-2.8,0.8c-0.9,0.5-1.7,0.8-2.5,0.8c-0.8,0-1.6-0.2-2.4-0.7c-0.9-0.5-1.8-0.8-2.7-0.8
		c-0.9,0-1.9,0.2-2.8,0.7c-0.8,0.4-1.6,0.8-2.4,0.8s-1.6-0.1-2.4-0.5c-0.3-0.2-0.5-0.2-0.8-0.1c-0.3,0.1-0.5,0.2-0.7,0.5
		c-0.2,0.2-0.3,0.5-0.2,0.7s0.1,0.5,0.4,0.7c0.1,0.1,0.3,0.2,0.4,0.3c0.1,0.1,0.3,0.2,0.5,0.2c0.9,0.4,1.9,0.6,2.8,0.5
		s1.8-0.3,2.7-0.8c0.8-0.5,1.6-0.7,2.3-0.7s1.5,0.2,2.3,0.7c1,0.6,2,0.8,3,0.8s2-0.3,3-0.9c0.8-0.5,1.5-0.7,2.3-0.7
		c0.7,0,1.5,0.2,2.2,0.7c1,0.6,2,0.9,3,0.8c1,0,2.1-0.3,3.1-0.9c0.8-0.5,1.6-0.7,2.3-0.7c0.8,0,1.5,0.2,2.2,0.7
		c0.4,0.3,0.9,0.5,1.4,0.6C-136.4,1041.4-135.9,1041.5-135.4,1041.5z"/>
	<path class="st6" d="M-89,879.7v26c0,2,1.5,3.6,3.4,3.6H-32c1.9,0,3.4-1.6,3.4-3.6v-26c0-2-1.5-3.6-3.4-3.6h-53.6
		C-87.4,876.1-89,877.7-89,879.7z"/>
	<path class="st3" d="M-52.5,883.8c0.5-0.2,0.9-0.4,1.2-0.8c0.4-0.3,0.7-0.7,1-1.1c0.2-0.3,0.3-0.6,0.3-0.9c0-0.3-0.2-0.5-0.4-0.8
		c-0.2-0.2-0.5-0.3-0.7-0.2s-0.5,0.2-0.8,0.5c-0.3,0.4-0.6,0.6-0.9,0.9c-0.3,0.2-0.7,0.4-1.1,0.4c-0.3,0.1-0.6,0-0.9,0
		s-0.6-0.1-0.9-0.1c-0.9-0.1-1.7,0-2.5,0.3s-1.4,0.9-1.9,1.6c-0.5,0.8-1.1,1.3-1.8,1.6c-0.7,0.3-1.4,0.3-2.3,0.2
		c-0.9-0.2-1.8-0.1-2.5,0.2c-0.8,0.3-1.4,0.9-2,1.7c-0.5,0.8-1.1,1.3-1.7,1.5c-0.7,0.3-1.4,0.3-2.2,0.1c-0.9-0.2-1.7-0.1-2.5,0.2
		s-1.4,0.9-2,1.6c-0.5,0.7-1,1.2-1.6,1.6c-0.6,0.3-1.3,0.5-2.2,0.3c-0.3-0.1-0.5,0-0.7,0.2c-0.2,0.2-0.3,0.4-0.4,0.7
		c-0.1,0.3,0,0.6,0.1,0.8c0.1,0.2,0.3,0.4,0.5,0.5c0.1,0.1,0.3,0.1,0.4,0.1c0.2,0,0.3,0.1,0.5,0.1c0.9,0,1.7-0.1,2.5-0.4
		c0.7-0.3,1.4-0.9,1.9-1.7c0.5-0.7,1-1.2,1.6-1.5s1.3-0.3,2.1-0.1c1,0.2,1.9,0.1,2.7-0.2c0.8-0.3,1.5-1,2.1-1.8
		c0.5-0.7,1-1.2,1.6-1.4c0.6-0.3,1.3-0.3,2.1-0.1c1,0.2,1.9,0.1,2.8-0.2c0.8-0.4,1.5-1,2.2-1.9c0.5-0.7,1-1.2,1.6-1.4
		c0.6-0.3,1.3-0.3,2.1-0.1c0.5,0.1,0.9,0.1,1.4,0.1C-53.3,884.1-52.9,884-52.5,883.8z"/>
	<path class="st3" d="M-39,885.5c0.7-0.3,1.3-0.7,1.9-1.1s1.1-0.9,1.6-1.4c0.3-0.4,0.5-0.8,0.5-1.1c0-0.3-0.1-0.6-0.5-0.7
		c-0.3-0.2-0.7-0.2-1-0.1c-0.4,0.1-0.8,0.4-1.2,0.8c-0.4,0.5-0.9,0.8-1.4,1.2c-0.5,0.3-1.1,0.6-1.7,0.8c-0.4,0.1-0.8,0.2-1.2,0.2
		c-0.4,0-0.8,0-1.2,0.1c-1.3,0.1-2.5,0.4-3.6,0.9s-2.1,1.3-3,2.2c-0.8,1-1.7,1.7-2.7,2.1c-1,0.5-2.1,0.7-3.3,0.7
		c-1.3,0-2.5,0.3-3.7,0.9s-2.2,1.3-3.1,2.3c-0.8,0.9-1.7,1.6-2.7,2.1s-2,0.7-3.2,0.7c-1.3,0-2.5,0.3-3.6,0.8c-1.1,0.5-2.2,1.3-3,2.2
		c-0.8,0.9-1.6,1.6-2.5,2.1c-0.9,0.5-1.9,0.8-3.1,0.9c-0.4,0-0.7,0.1-1,0.3s-0.5,0.5-0.6,0.8c-0.1,0.3-0.1,0.6,0,0.8
		s0.4,0.3,0.7,0.4c0.2,0,0.4,0,0.6,0.1c0.2,0,0.4,0,0.7,0c1.3-0.2,2.5-0.5,3.6-1.1c1.1-0.5,2.1-1.3,3-2.3c0.8-0.9,1.6-1.5,2.5-2
		s1.9-0.6,3-0.7c1.4,0,2.7-0.3,3.9-0.9c1.2-0.6,2.3-1.4,3.3-2.5c0.8-0.9,1.6-1.5,2.5-1.9s1.9-0.6,3-0.7c1.4,0,2.8-0.3,4-0.9
		s2.3-1.4,3.3-2.5c0.8-0.9,1.6-1.5,2.5-1.9s1.9-0.6,3-0.6c0.6,0,1.3-0.1,1.9-0.2S-39.6,885.8-39,885.5z"/>
	<path class="st3" d="M-37.7,893.3c0.4-0.2,0.9-0.5,1.2-0.8c0.4-0.3,0.7-0.7,0.9-1.2c0.2-0.3,0.3-0.7,0.2-0.9c0-0.3-0.2-0.5-0.4-0.7
		c-0.2-0.2-0.5-0.3-0.8-0.2c-0.3,0.1-0.5,0.2-0.7,0.6c-0.3,0.4-0.5,0.7-0.9,0.9c-0.3,0.2-0.7,0.4-1.1,0.5c-0.3,0.1-0.6,0.1-0.9,0
		s-0.6-0.1-0.9-0.1c-0.9-0.1-1.7,0.1-2.5,0.4s-1.4,0.9-1.9,1.7c-0.5,0.8-1,1.3-1.7,1.6s-1.4,0.4-2.3,0.3c-0.9-0.1-1.8,0-2.5,0.3
		c-0.8,0.4-1.4,1-1.9,1.8c-0.5,0.8-1,1.3-1.7,1.6c-0.6,0.3-1.4,0.4-2.2,0.2c-0.9-0.1-1.7,0-2.5,0.3c-0.7,0.3-1.4,0.9-1.9,1.7
		c-0.5,0.7-1,1.3-1.6,1.7s-1.3,0.5-2.1,0.4c-0.3,0-0.5,0-0.7,0.2c-0.2,0.2-0.3,0.4-0.3,0.7c0,0.3,0,0.6,0.1,0.8
		c0.1,0.2,0.3,0.4,0.6,0.5c0.1,0.1,0.3,0.1,0.4,0.1c0.2,0,0.3,0,0.5,0c0.9,0,1.7-0.2,2.4-0.5c0.7-0.4,1.3-1,1.8-1.8
		c0.4-0.7,1-1.2,1.6-1.5s1.3-0.4,2.1-0.2c1,0.2,1.9,0,2.7-0.3s1.5-1,2.1-1.9c0.4-0.7,0.9-1.2,1.5-1.5c0.6-0.3,1.3-0.4,2.1-0.2
		c1,0.2,1.9,0,2.7-0.3c0.8-0.4,1.5-1,2.1-2c0.4-0.7,1-1.2,1.6-1.5c0.6-0.3,1.3-0.3,2.1-0.2c0.5,0.1,0.9,0.1,1.4,0
		C-38.6,893.6-38.1,893.5-37.7,893.3z"/>
	<g>
		<path class="st6" d="M-88.1,836.6v26c0,2,1.5,3.6,3.4,3.6h53.6c1.9,0,3.4-1.6,3.4-3.6v-26c0-2-1.5-3.6-3.4-3.6h-53.6
			C-86.5,833-88.1,834.6-88.1,836.6z"/>
		<g>
			<line class="st3" x1="-81.6" y1="866.7" x2="-81.6" y2="862"/>
			<line class="st3" x1="-77.6" y1="866.7" x2="-77.6" y2="862"/>
			<line class="st3" x1="-73.6" y1="866.7" x2="-73.6" y2="862"/>
			<line class="st3" x1="-69.6" y1="866.7" x2="-69.6" y2="862"/>
			<line class="st3" x1="-65.6" y1="866.7" x2="-65.6" y2="862"/>
			<line class="st3" x1="-61.6" y1="866.7" x2="-61.6" y2="862"/>
			<line class="st3" x1="-57.6" y1="866.7" x2="-57.6" y2="862"/>
			<line class="st3" x1="-53.6" y1="866.7" x2="-53.6" y2="862"/>
			<line class="st3" x1="-49.6" y1="866.7" x2="-49.6" y2="862"/>
			<line class="st3" x1="-45.6" y1="866.7" x2="-45.6" y2="862"/>
			<line class="st3" x1="-41.6" y1="866.7" x2="-41.6" y2="862"/>
			<line class="st3" x1="-37.6" y1="866.7" x2="-37.6" y2="862"/>
			<line class="st3" x1="-33.6" y1="866.7" x2="-33.6" y2="862"/>
		</g>
		<g>
			<line class="st3" x1="-81.6" y1="836.7" x2="-81.6" y2="832"/>
			<line class="st3" x1="-77.6" y1="836.7" x2="-77.6" y2="832"/>
			<line class="st3" x1="-73.6" y1="836.7" x2="-73.6" y2="832"/>
			<line class="st3" x1="-69.6" y1="836.7" x2="-69.6" y2="832"/>
			<line class="st3" x1="-65.6" y1="836.7" x2="-65.6" y2="832"/>
			<line class="st3" x1="-61.6" y1="836.7" x2="-61.6" y2="832"/>
			<line class="st3" x1="-57.6" y1="836.7" x2="-57.6" y2="832"/>
			<line class="st3" x1="-53.6" y1="836.7" x2="-53.6" y2="832"/>
			<line class="st3" x1="-49.6" y1="836.7" x2="-49.6" y2="832"/>
			<line class="st3" x1="-45.6" y1="836.7" x2="-45.6" y2="832"/>
			<line class="st3" x1="-41.6" y1="836.7" x2="-41.6" y2="832"/>
			<line class="st3" x1="-37.6" y1="836.7" x2="-37.6" y2="832"/>
			<line class="st3" x1="-33.6" y1="836.7" x2="-33.6" y2="832"/>
		</g>
		<g>
			<line class="st3" x1="-87.1" y1="837.4" x2="-82.5" y2="837.4"/>
			<line class="st3" x1="-87.1" y1="841.4" x2="-82.5" y2="841.4"/>
			<line class="st3" x1="-87.1" y1="845.4" x2="-82.5" y2="845.4"/>
			<line class="st3" x1="-87.1" y1="849.4" x2="-82.5" y2="849.4"/>
			<line class="st3" x1="-87.1" y1="853.4" x2="-82.5" y2="853.4"/>
			<line class="st3" x1="-87.1" y1="857.4" x2="-82.5" y2="857.4"/>
			<line class="st3" x1="-87.1" y1="861.4" x2="-82.5" y2="861.4"/>
		</g>
		<g>
			<line class="st3" x1="-87.1" y1="837.4" x2="-82.5" y2="837.4"/>
			<line class="st3" x1="-87.1" y1="841.4" x2="-82.5" y2="841.4"/>
			<line class="st3" x1="-87.1" y1="845.4" x2="-82.5" y2="845.4"/>
			<line class="st3" x1="-87.1" y1="849.4" x2="-82.5" y2="849.4"/>
			<line class="st3" x1="-87.1" y1="853.4" x2="-82.5" y2="853.4"/>
			<line class="st3" x1="-87.1" y1="857.4" x2="-82.5" y2="857.4"/>
			<line class="st3" x1="-87.1" y1="861.4" x2="-82.5" y2="861.4"/>
		</g>
		<g>
			<line class="st3" x1="-32.1" y1="837.4" x2="-27.5" y2="837.4"/>
			<line class="st3" x1="-32.1" y1="841.4" x2="-27.5" y2="841.4"/>
			<line class="st3" x1="-32.1" y1="845.4" x2="-27.5" y2="845.4"/>
			<line class="st3" x1="-32.1" y1="849.4" x2="-27.5" y2="849.4"/>
			<line class="st3" x1="-32.1" y1="853.4" x2="-27.5" y2="853.4"/>
			<line class="st3" x1="-32.1" y1="857.4" x2="-27.5" y2="857.4"/>
			<line class="st3" x1="-32.1" y1="861.4" x2="-27.5" y2="861.4"/>
		</g>
		<path class="st3" d="M-66.6,845.7c0.6-0.7,3.6-1.2,4.3-0.7c0.8,0.6,0.6,1.9-0.4,2.3c-1,0.4-2.1,0.6-3.2,0.5
			C-66.9,847.8-67.3,846.6-66.6,845.7z"/>
		<path class="st3" d="M-73.3,854.2c-0.9-0.3-2.5-3-2.3-3.8c0.2-0.9,1.6-1.3,2.3-0.5c0.8,0.8,1.4,1.8,1.7,2.8
			C-71.3,853.8-72.3,854.6-73.3,854.2z"/>
		<path class="st3" d="M-56.3,853.8c0.9-0.3,3.7,0.7,4.1,1.5c0.4,0.9-0.4,2-1.5,1.9c-1.1-0.2-2.2-0.5-3-1.1
			C-57.6,855.4-57.3,854.2-56.3,853.8z"/>
		<path class="st3" d="M-45.6,856.4c0-0.9,2.1-3.2,3-3.2c1,0,1.7,1.1,1.1,2c-0.6,1-1.3,1.8-2.2,2.4
			C-44.6,858.2-45.6,857.4-45.6,856.4z"/>
		<path class="st3" d="M-66.4,858.4c-0.4-0.8,0.3-3.8,1-4.3c0.8-0.5,2,0.2,2,1.2c0,1.1-0.3,2.2-0.8,3.2
			C-64.7,859.5-65.9,859.3-66.4,858.4z"/>
		<path class="st3" d="M-73.4,840.4c0.7-0.6,3.8-0.7,4.3-0.1c0.7,0.7,0.3,2-0.7,2.3c-1.1,0.3-2.2,0.3-3.2,0
			C-74,842.4-74.2,841.2-73.4,840.4z"/>
		<path class="st3" d="M-56.6,847.2c0.8-0.5,3.8-0.2,4.3,0.5c0.6,0.8,0.1,2-1,2.1c-1.1,0.1-2.2,0-3.2-0.4
			C-57.5,849.1-57.5,847.8-56.6,847.2z"/>
		<path class="st3" d="M-43.8,846.9c0.6-0.7,3.6-1.3,4.2-0.9c0.8,0.6,0.7,1.9-0.3,2.3c-1,0.4-2.1,0.7-3.2,0.6
			C-44.1,849-44.5,847.8-43.8,846.9z"/>
		<path class="st3" d="M-50,841.7c0.2-0.9,2.8-2.6,3.6-2.4c0.9,0.2,1.4,1.5,0.7,2.3c-0.8,0.8-1.7,1.4-2.7,1.8
			C-49.4,843.7-50.3,842.8-50,841.7z"/>
	</g>
	<g>
		<path class="st6" d="M-20,837.2v26c0,2,1.5,3.6,3.4,3.6H37c1.9,0,3.4-1.6,3.4-3.6v-26c0-2-1.5-3.6-3.4-3.6h-53.6
			C-18.5,833.6-20,835.2-20,837.2z"/>
		<g>
			<line class="st19" x1="-13.6" y1="867.3" x2="-13.6" y2="862.7"/>
			<line class="st19" x1="-9.6" y1="867.3" x2="-9.6" y2="862.7"/>
			<line class="st19" x1="-5.6" y1="867.3" x2="-5.6" y2="862.7"/>
			<line class="st19" x1="-1.6" y1="867.3" x2="-1.6" y2="862.7"/>
			<line class="st19" x1="2.4" y1="867.3" x2="2.4" y2="862.7"/>
			<line class="st19" x1="6.4" y1="867.3" x2="6.4" y2="862.7"/>
			<line class="st19" x1="10.4" y1="867.3" x2="10.4" y2="862.7"/>
			<line class="st19" x1="14.4" y1="867.3" x2="14.4" y2="862.7"/>
			<line class="st19" x1="18.4" y1="867.3" x2="18.4" y2="862.7"/>
			<line class="st19" x1="22.4" y1="867.3" x2="22.4" y2="862.7"/>
			<line class="st19" x1="26.4" y1="867.3" x2="26.4" y2="862.7"/>
			<line class="st19" x1="30.4" y1="867.3" x2="30.4" y2="862.7"/>
			<path class="st19" d="M34.4,862.7"/>
		</g>
		<g>
			<line class="st19" x1="-13.6" y1="837.3" x2="-13.6" y2="832.7"/>
			<line class="st19" x1="-9.6" y1="837.3" x2="-9.6" y2="832.7"/>
			<line class="st19" x1="-5.6" y1="837.3" x2="-5.6" y2="832.7"/>
			<line class="st19" x1="-1.6" y1="837.3" x2="-1.6" y2="832.7"/>
			<line class="st19" x1="2.4" y1="837.3" x2="2.4" y2="832.7"/>
			<line class="st19" x1="6.4" y1="837.3" x2="6.4" y2="832.7"/>
			<line class="st19" x1="10.4" y1="837.3" x2="10.4" y2="832.7"/>
			<line class="st19" x1="14.4" y1="837.3" x2="14.4" y2="832.7"/>
			<line class="st19" x1="18.4" y1="837.3" x2="18.4" y2="832.7"/>
			<line class="st19" x1="22.4" y1="837.3" x2="22.4" y2="832.7"/>
			<line class="st19" x1="26.4" y1="837.3" x2="26.4" y2="832.7"/>
			<line class="st19" x1="30.4" y1="837.3" x2="30.4" y2="832.7"/>
			<line class="st19" x1="34.4" y1="837.3" x2="34.4" y2="832.7"/>
		</g>
		<g>
			<line class="st19" x1="-19.1" y1="838" x2="-14.5" y2="838"/>
			<line class="st19" x1="-19.1" y1="842" x2="-14.5" y2="842"/>
			<line class="st19" x1="-19.1" y1="846" x2="-14.5" y2="846"/>
			<line class="st19" x1="-19.1" y1="850" x2="-14.5" y2="850"/>
			<line class="st19" x1="-19.1" y1="854" x2="-14.5" y2="854"/>
			<line class="st19" x1="-19.1" y1="858" x2="-14.5" y2="858"/>
			<line class="st19" x1="-19.1" y1="862" x2="-14.5" y2="862"/>
		</g>
		<g>
			<line class="st19" x1="-19.1" y1="838" x2="-14.5" y2="838"/>
			<line class="st19" x1="-19.1" y1="842" x2="-14.5" y2="842"/>
			<line class="st19" x1="-19.1" y1="846" x2="-14.5" y2="846"/>
			<line class="st19" x1="-19.1" y1="850" x2="-14.5" y2="850"/>
			<line class="st19" x1="-19.1" y1="854" x2="-14.5" y2="854"/>
			<line class="st19" x1="-19.1" y1="858" x2="-14.5" y2="858"/>
			<line class="st19" x1="-19.1" y1="862" x2="-14.5" y2="862"/>
		</g>
		<g>
			<line class="st19" x1="35.9" y1="838" x2="40.5" y2="838"/>
			<line class="st19" x1="35.9" y1="842" x2="40.5" y2="842"/>
			<line class="st19" x1="35.9" y1="846" x2="40.5" y2="846"/>
			<line class="st19" x1="35.9" y1="850" x2="40.5" y2="850"/>
			<line class="st19" x1="35.9" y1="854" x2="40.5" y2="854"/>
			<line class="st19" x1="35.9" y1="858" x2="40.5" y2="858"/>
			<line class="st19" x1="35.9" y1="862" x2="40.5" y2="862"/>
		</g>
		<path class="st19" d="M21.6,839.9"/>
	</g>
	<path class="st6" d="M-324.4,843.3v26c0,2,1.5,3.6,3.4,3.6h53.6c1.9,0,3.4-1.6,3.4-3.6v-26c0-2-1.5-3.6-3.4-3.6H-321
		C-322.9,839.7-324.4,841.3-324.4,843.3z"/>
	<line class="st9" x1="-312.4" y1="843.1" x2="-307.6" y2="843.1"/>
	<line class="st9" x1="-312.4" y1="847.3" x2="-316.8" y2="845.4"/>
	<line class="st9" x1="-320.3" y1="859.5" x2="-318.2" y2="855.2"/>
	<line class="st9" x1="-312.1" y1="850.6" x2="-316.6" y2="852.1"/>
	<line class="st9" x1="-303.3" y1="853.7" x2="-300.2" y2="857.3"/>
	<line class="st9" x1="-312.7" y1="862.5" x2="-308.9" y2="859.6"/>
	<line class="st9" x1="-307.7" y1="850.2" x2="-303" y2="849.2"/>
	<line class="st9" x1="-309.4" y1="852.1" x2="-310" y2="856.9"/>
	<line class="st9" x1="-277.6" y1="856.5" x2="-277.8" y2="861.3"/>
	<line class="st9" x1="-281.7" y1="856.3" x2="-279.6" y2="852.1"/>
	<line class="st9" x1="-296.3" y1="851.5" x2="-293.3" y2="855.2"/>
	<line class="st9" x1="-279" y1="847.8" x2="-276.1" y2="851.6"/>
	<line class="st9" x1="-285.1" y1="856.5" x2="-286.3" y2="851.9"/>
	<line class="st9" x1="-276.3" y1="843.4" x2="-280.8" y2="844.9"/>
	<line class="st9" x1="-271.4" y1="851" x2="-269.3" y2="846.7"/>
	<line class="st9" x1="-306.1" y1="863.7" x2="-301.9" y2="865.9"/>
	<line class="st9" x1="-298.2" y1="865.8" x2="-298.4" y2="870.6"/>
	<line class="st9" x1="-289.7" y1="868.4" x2="-287.6" y2="864.1"/>
	<line class="st9" x1="-301.5" y1="860.1" x2="-297.3" y2="862.3"/>
	<line class="st9" x1="-286.9" y1="859.9" x2="-284" y2="863.7"/>
	<line class="st9" x1="-293" y1="868.6" x2="-294.2" y2="864"/>
	<line class="st9" x1="-290.7" y1="858.7" x2="-295.2" y2="860.2"/>
	<line class="st9" x1="-274.6" y1="869.8" x2="-272.5" y2="865.5"/>
	<line class="st9" x1="-271.8" y1="861.3" x2="-268.9" y2="865.1"/>
	<line class="st9" x1="-277.9" y1="870" x2="-279.2" y2="865.4"/>
	<line class="st9" x1="-270" y1="858.2" x2="-274.5" y2="859.7"/>
	<line class="st9" x1="-320" y1="867.1" x2="-316.1" y2="864.3"/>
	<line class="st9" x1="-313.4" y1="868.4" x2="-309.1" y2="870.6"/>
	<line class="st9" x1="-295.2" y1="843.4" x2="-292.3" y2="847.2"/>
	<line class="st9" x1="-299" y1="842.2" x2="-303.6" y2="843.7"/>
	<line class="st9" x1="-287.7" y1="846.6" x2="-285.6" y2="842.3"/>
	<g>
		<path class="st6" d="M-105.4,982.2v26c0,2,1.4,3.6,3.1,3.6h48.1c1.7,0,3-1.6,3-3.6v-26c0-2-1.4-3.6-3.1-3.6h-48
			C-104,978.6-105.4,980.2-105.4,982.2z"/>
		<line class="st9" x1="-94.6" y1="982" x2="-90.3" y2="982"/>
		<line class="st9" x1="-94.6" y1="986.2" x2="-98.5" y2="984.3"/>
		<line class="st9" x1="-101.6" y1="998.3" x2="-99.8" y2="994"/>
		<line class="st9" x1="-94.3" y1="989.5" x2="-98.4" y2="990.9"/>
		<line class="st9" x1="-86.4" y1="992.5" x2="-83.7" y2="996.2"/>
		<line class="st9" x1="-94.9" y1="1001.3" x2="-91.4" y2="998.5"/>
		<line class="st9" x1="-90.4" y1="989" x2="-86.2" y2="988.1"/>
		<line class="st9" x1="-91.9" y1="991" x2="-92.4" y2="995.7"/>
		<line class="st9" x1="-63.4" y1="995.4" x2="-63.5" y2="1000.2"/>
		<line class="st9" x1="-67.1" y1="995.2" x2="-65.2" y2="990.9"/>
		<line class="st9" x1="-80.2" y1="990.4" x2="-77.5" y2="994.1"/>
		<line class="st9" x1="-64.6" y1="986.7" x2="-62" y2="990.5"/>
		<line class="st9" x1="-70.1" y1="995.4" x2="-71.2" y2="990.8"/>
		<line class="st9" x1="-62.2" y1="982.3" x2="-66.3" y2="983.8"/>
		<line class="st9" x1="-57.8" y1="989.9" x2="-56" y2="985.6"/>
		<line class="st9" x1="-88.9" y1="1002.6" x2="-85.2" y2="1004.8"/>
		<line class="st9" x1="-81.9" y1="1004.7" x2="-82" y2="1009.5"/>
		<line class="st9" x1="-74.2" y1="1007.3" x2="-72.3" y2="1003"/>
		<line class="st9" x1="-84.8" y1="998.9" x2="-81" y2="1001.2"/>
		<line class="st9" x1="-71.7" y1="998.8" x2="-69.1" y2="1002.6"/>
		<line class="st9" x1="-77.2" y1="1007.5" x2="-78.3" y2="1002.9"/>
		<line class="st9" x1="-75.1" y1="997.5" x2="-79.2" y2="999.1"/>
		<line class="st9" x1="-60.7" y1="1008.7" x2="-58.8" y2="1004.4"/>
		<line class="st9" x1="-58.2" y1="1000.2" x2="-55.6" y2="1004"/>
		<line class="st9" x1="-63.7" y1="1008.9" x2="-64.8" y2="1004.3"/>
		<line class="st9" x1="-56.6" y1="997" x2="-60.6" y2="998.5"/>
		<line class="st9" x1="-101.4" y1="1006" x2="-98" y2="1003.2"/>
		<line class="st9" x1="-95.5" y1="1007.3" x2="-91.7" y2="1009.5"/>
		<line class="st9" x1="-79.2" y1="982.3" x2="-76.6" y2="986.1"/>
		<line class="st9" x1="-82.6" y1="981" x2="-86.7" y2="982.6"/>
		<line class="st9" x1="-72.4" y1="985.5" x2="-70.5" y2="981.2"/>
	</g>
	<path class="st6" d="M-218,841v26c0,2,1.5,3.6,3.4,3.6h53.6c1.9,0,3.4-1.6,3.4-3.6v-26c0-2-1.5-3.6-3.4-3.6h-53.6
		C-216.5,837.3-218,839-218,841z"/>
	<g>
		<line class="st9" x1="-206" y1="790.7" x2="-201.2" y2="790.7"/>
		<line class="st9" x1="-206" y1="794.9" x2="-210.4" y2="793"/>
		<line class="st9" x1="-213.9" y1="807.1" x2="-211.8" y2="802.8"/>
		<line class="st9" x1="-205.7" y1="798.2" x2="-210.2" y2="799.7"/>
		<line class="st9" x1="-196.9" y1="801.3" x2="-193.8" y2="804.9"/>
		<line class="st9" x1="-206.3" y1="810.1" x2="-202.5" y2="807.2"/>
		<line class="st9" x1="-201.3" y1="797.8" x2="-196.6" y2="796.8"/>
		<line class="st9" x1="-203" y1="799.7" x2="-203.6" y2="804.5"/>
		<line class="st9" x1="-171.2" y1="804.1" x2="-171.4" y2="808.9"/>
		<line class="st9" x1="-175.3" y1="804" x2="-173.2" y2="799.7"/>
		<line class="st9" x1="-189.9" y1="799.1" x2="-186.9" y2="802.8"/>
		<line class="st9" x1="-172.5" y1="795.4" x2="-169.7" y2="799.2"/>
		<line class="st9" x1="-178.6" y1="804.1" x2="-179.9" y2="799.5"/>
		<line class="st9" x1="-169.9" y1="791" x2="-174.4" y2="792.6"/>
		<line class="st9" x1="-165" y1="798.6" x2="-162.9" y2="794.3"/>
		<line class="st9" x1="-199.7" y1="811.3" x2="-195.5" y2="813.5"/>
		<line class="st9" x1="-191.8" y1="813.4" x2="-192" y2="818.2"/>
		<line class="st9" x1="-183.3" y1="816.1" x2="-181.1" y2="811.8"/>
		<line class="st9" x1="-195.1" y1="807.7" x2="-190.9" y2="810"/>
		<line class="st9" x1="-180.5" y1="807.5" x2="-177.6" y2="811.3"/>
		<line class="st9" x1="-186.6" y1="816.2" x2="-187.8" y2="811.6"/>
		<line class="st9" x1="-184.3" y1="806.3" x2="-188.8" y2="807.8"/>
		<line class="st9" x1="-168.2" y1="817.4" x2="-166.1" y2="813.2"/>
		<line class="st9" x1="-165.4" y1="808.9" x2="-162.5" y2="812.7"/>
		<line class="st9" x1="-171.5" y1="817.6" x2="-172.8" y2="813"/>
		<line class="st9" x1="-163.6" y1="805.8" x2="-168.1" y2="807.3"/>
		<line class="st9" x1="-213.6" y1="814.8" x2="-209.7" y2="811.9"/>
		<line class="st9" x1="-207" y1="816" x2="-202.7" y2="818.2"/>
		<line class="st9" x1="-188.8" y1="791" x2="-185.9" y2="794.8"/>
		<line class="st9" x1="-192.6" y1="789.8" x2="-197.1" y2="791.3"/>
		<line class="st9" x1="-181.3" y1="794.2" x2="-179.2" y2="789.9"/>
	</g>
	<path class="st12" d="M-172.1,868.6h-31.7c-6.6,0-12-5.4-12-12v-4.9c0-6.6,5.4-12,12-12h31.7c6.6,0,12,5.4,12,12v4.9
		C-160.1,863.2-165.5,868.6-172.1,868.6z"/>
	<g>
		<line class="st4" x1="-203.2" y1="843" x2="-199" y2="843"/>
		<line class="st4" x1="-203.2" y1="846.4" x2="-207.1" y2="844.8"/>
		<line class="st4" x1="-210.1" y1="856" x2="-208.3" y2="852.6"/>
		<line class="st4" x1="-202.9" y1="849" x2="-206.9" y2="850.2"/>
		<line class="st4" x1="-195.2" y1="851.4" x2="-192.5" y2="854.3"/>
		<line class="st4" x1="-203.5" y1="858.4" x2="-200.1" y2="856.2"/>
		<line class="st4" x1="-199.1" y1="848.6" x2="-195" y2="847.9"/>
		<line class="st4" x1="-200.6" y1="850.2" x2="-201.1" y2="854"/>
		<line class="st4" x1="-172.7" y1="853.7" x2="-172.9" y2="857.5"/>
		<line class="st4" x1="-176.3" y1="853.6" x2="-174.5" y2="850.2"/>
		<line class="st4" x1="-189.1" y1="849.7" x2="-186.5" y2="852.7"/>
		<line class="st4" x1="-173.9" y1="846.8" x2="-171.4" y2="849.8"/>
		<line class="st4" x1="-179.2" y1="853.7" x2="-180.4" y2="850"/>
		<line class="st4" x1="-171.5" y1="843.3" x2="-175.5" y2="844.5"/>
		<line class="st4" x1="-167.3" y1="849.3" x2="-165.4" y2="845.9"/>
		<line class="st4" x1="-197.7" y1="859.4" x2="-194" y2="861.2"/>
		<line class="st4" x1="-190.8" y1="861.1" x2="-190.9" y2="864.9"/>
		<line class="st4" x1="-183.3" y1="863.2" x2="-181.4" y2="859.8"/>
		<line class="st4" x1="-193.6" y1="856.5" x2="-189.9" y2="858.3"/>
		<line class="st4" x1="-180.8" y1="856.4" x2="-178.3" y2="859.4"/>
		<line class="st4" x1="-186.2" y1="863.3" x2="-187.3" y2="859.7"/>
		<line class="st4" x1="-184.2" y1="855.4" x2="-188.1" y2="856.6"/>
		<line class="st4" x1="-170.1" y1="864.3" x2="-168.2" y2="860.9"/>
		<line class="st4" x1="-167.6" y1="857.5" x2="-165.1" y2="860.5"/>
		<line class="st4" x1="-173" y1="864.4" x2="-174.1" y2="860.8"/>
		<line class="st4" x1="-166" y1="855" x2="-170" y2="856.2"/>
		<line class="st4" x1="-209.9" y1="862.2" x2="-206.5" y2="859.9"/>
		<line class="st4" x1="-204.1" y1="863.2" x2="-200.3" y2="864.9"/>
		<line class="st4" x1="-188.1" y1="843.3" x2="-185.6" y2="846.3"/>
		<line class="st4" x1="-191.5" y1="842.3" x2="-195.5" y2="843.5"/>
		<line class="st4" x1="-181.5" y1="845.8" x2="-179.7" y2="842.4"/>
	</g>
	<path class="st6" d="M-113,1018.5v26c0,2,1.4,3.6,3.1,3.6h48.5c1.7,0,3.1-1.6,3.1-3.6v-26c0-2-1.4-3.6-3.1-3.6h-48.4
		C-111.6,1014.9-113,1016.5-113,1018.5z"/>
	<path class="st12" d="M-72.5,1045.6h-26.3c-6.6,0-12-5.4-12-12v-4.4c0-6.6,5.4-12,12-12h26.3c6.6,0,12,5.4,12,12v4.4
		C-60.5,1040.2-65.9,1045.6-72.5,1045.6z"/>
	<g>
		<line class="st4" x1="-102.2" y1="1020.8" x2="-98.4" y2="1020.8"/>
		<line class="st20" x1="-106.7" y1="1032" x2="-105" y2="1028.6"/>
		<line class="st20" x1="-98.7" y1="1031.1" x2="-96.2" y2="1034"/>
		<line class="st20" x1="-101.2" y1="1027.4" x2="-98.2" y2="1025.1"/>
		<line class="st20" x1="-74.3" y1="1031.5" x2="-72.7" y2="1028.1"/>
		<line class="st20" x1="-85.9" y1="1027.7" x2="-83.5" y2="1030.6"/>
		<line class="st20" x1="-70" y1="1021.2" x2="-73.6" y2="1022.4"/>
		<line class="st20" x1="-66.1" y1="1027.2" x2="-64.5" y2="1023.8"/>
		<line class="st20" x1="-87.4" y1="1039" x2="-87.5" y2="1042.8"/>
		<line class="st20" x1="-92.2" y1="1031.6" x2="-88.9" y2="1033.4"/>
		<line class="st20" x1="-78.4" y1="1034.3" x2="-76.1" y2="1037.4"/>
		<line class="st20" x1="-80.8" y1="1040.3" x2="-81.8" y2="1036.6"/>
		<line class="st20" x1="-68.1" y1="1036.9" x2="-65.8" y2="1040"/>
		<line class="st20" x1="-71.3" y1="1042.4" x2="-72.3" y2="1038.7"/>
		<line class="st20" x1="-65" y1="1032.9" x2="-68.6" y2="1034.2"/>
		<line class="st20" x1="-104.7" y1="1040.1" x2="-101.6" y2="1037.8"/>
		<line class="st4" x1="-99.4" y1="1041.1" x2="-96" y2="1042.9"/>
		<line class="st20" x1="-85" y1="1021.2" x2="-82.7" y2="1024.2"/>
		<line class="st20" x1="-88" y1="1020.2" x2="-91.6" y2="1021.4"/>
	</g>
	<path class="st6" d="M-396.3,1013.4v26c0,2,1.4,3.6,3.1,3.6h48.5c1.7,0,3.1-1.6,3.1-3.6v-26c0-2-1.4-3.6-3.1-3.6h-48.4
		C-394.9,1009.8-396.3,1011.4-396.3,1013.4z"/>
	<path class="st6" d="M-248.7,784.4v26c0,2,1.4,3.6,3.1,3.6h48.5c1.7,0,3.1-1.6,3.1-3.6v-26c0-2-1.4-3.6-3.1-3.6h-48.4
		C-247.3,780.7-248.7,782.4-248.7,784.4z"/>
	<path class="st5" d="M-272.3,780.3c7.1,4.4,6.2,20.9,1.1,25.6c-3.4,3.1-5.1,0.5-23.3,2.1c-10.4,0.6-18.3,3.1-20.8-4.6
		c-0.7-2.7-1.4-6.5-1.4-11.1c0-6.5,0.5-9.7,1.5-10.9c4.1-4.7,12.5,1.9,28.6,0.2C-277.8,780.7-275.7,778.3-272.3,780.3z"/>
	<path class="st6" d="M-319.5,781v26c0,2,1.4,3.6,3.1,3.6h48.5c1.7,0,3.1-1.6,3.1-3.6v-26c0-2-1.4-3.6-3.1-3.6h-48.4
		C-318.1,777.4-319.5,779-319.5,781z"/>
	<g>
		<line class="st21" x1="-308.6" y1="784.8" x2="-312.3" y2="783.4"/>
		<line class="st21" x1="-313.9" y1="799.3" x2="-312.2" y2="796.1"/>
		<line class="st21" x1="-311.2" y1="789.8" x2="-309.1" y2="792.8"/>
		<line class="st21" x1="-307.3" y1="798.6" x2="-304" y2="796.5"/>
		<line class="st21" x1="-303" y1="789.6" x2="-299.1" y2="788.9"/>
		<line class="st21" x1="-283" y1="794.3" x2="-284" y2="790.9"/>
		<line class="st21" x1="-288.6" y1="789.9" x2="-292.4" y2="791"/>
		<line class="st21" x1="-275.2" y1="786.7" x2="-273.5" y2="783.6"/>
		<line class="st21" x1="-296" y1="800.7" x2="-296.1" y2="804.2"/>
		<line class="st21" x1="-299.4" y1="793.5" x2="-295.9" y2="795.1"/>
		<line class="st21" x1="-291.7" y1="797.8" x2="-289.3" y2="800.6"/>
		<line class="st21" x1="-275.2" y1="804" x2="-273.5" y2="800.9"/>
		<line class="st21" x1="-281" y1="796.3" x2="-278.6" y2="799.1"/>
		<line class="st21" x1="-283.5" y1="803.8" x2="-284.6" y2="800.4"/>
		<line class="st21" x1="-271.4" y1="790.7" x2="-275.2" y2="791.9"/>
		<line class="st21" x1="-307.8" y1="803" x2="-304.2" y2="804.6"/>
		<line class="st21" x1="-295.8" y1="783.7" x2="-299.6" y2="784.9"/>
		<line class="st21" x1="-286.2" y1="787" x2="-284.4" y2="783.8"/>
		<line class="st21" x1="-272.8" y1="794.3" x2="-273.8" y2="797.7"/>
	</g>
	<path class="st5" d="M27.4,750.6c2.4,15.5-5.7,24.4-22,16.2c-10.2-3.1-18.6,6.4-22.9,2.3c-3.6-3.4,0.1-10.6-2-16.3
		c-2.7-9.8,3.1-14.2,12.4-13.6c1.2,0,2,0,2.7,0.1c0.3,0,1.7,0.1,3.1,0.5c2.4,0.6,4.1,1.6,4.6,1.9c5.2,2.9,16-3.5,21.1,0.3
		C25.8,742.9,27.3,745.2,27.4,750.6z"/>
	<g>
		<line class="st20" x1="-11.2" y1="746.6" x2="-14.6" y2="745.4"/>
		<line class="st20" x1="-16.1" y1="759.1" x2="-14.5" y2="756.4"/>
		<line class="st20" x1="-13.6" y1="750.9" x2="-11.6" y2="753.5"/>
		<line class="st20" x1="-9.9" y1="758.6" x2="-6.9" y2="756.7"/>
		<line class="st20" x1="-5.9" y1="750.7" x2="-2.3" y2="750.1"/>
		<line class="st20" x1="12.8" y1="754.8" x2="11.8" y2="751.9"/>
		<line class="st20" x1="7.6" y1="751" x2="4" y2="752"/>
		<line class="st20" x1="20" y1="748.2" x2="21.7" y2="745.5"/>
		<line class="st20" x1="0.7" y1="760.4" x2="0.5" y2="763.4"/>
		<line class="st20" x1="-2.6" y1="754.1" x2="0.7" y2="755.5"/>
		<line class="st20" x1="4.7" y1="757.8" x2="6.9" y2="760.2"/>
		<line class="st20" x1="20" y1="763.2" x2="21.7" y2="760.5"/>
		<line class="st20" x1="14.7" y1="756.5" x2="16.9" y2="759"/>
		<line class="st20" x1="12.3" y1="763" x2="11.3" y2="760.1"/>
		<line class="st20" x1="23.6" y1="751.7" x2="20.1" y2="752.7"/>
		<line class="st20" x1="-10.4" y1="762.3" x2="-7.1" y2="763.7"/>
		<line class="st20" x1="0.9" y1="745.7" x2="-2.7" y2="746.6"/>
		<line class="st20" x1="9.8" y1="748.5" x2="11.4" y2="745.7"/>
		<line class="st20" x1="22.3" y1="754.8" x2="21.4" y2="757.7"/>
	</g>
	<path class="st6" d="M25.4,620.1v27.8c0,2.1,1.3,3.8,3,3.8H75c1.6,0,3-1.7,3-3.8v-27.8c0-2.1-1.3-3.9-3-3.9H28.4
		C26.8,616.3,25.4,618,25.4,620.1z"/>
	<g>
		<line class="st20" x1="44.5" y1="626.8" x2="41.2" y2="625.5"/>
		<line class="st20" x1="39.7" y1="640.1" x2="41.3" y2="637.2"/>
		<line class="st20" x1="36" y1="628.1" x2="37.9" y2="630.9"/>
		<line class="st20" x1="46.8" y1="631.2" x2="50.4" y2="630.5"/>
		<line class="st20" x1="71.7" y1="635.9" x2="70.7" y2="632.8"/>
		<line class="st20" x1="62.5" y1="631.5" x2="59.1" y2="632.5"/>
		<line class="st20" x1="55.9" y1="641.5" x2="55.7" y2="644.7"/>
		<line class="st20" x1="51.1" y1="636.3" x2="54.2" y2="637.8"/>
		<line class="st20" x1="62.5" y1="641.8" x2="64.6" y2="644.4"/>
		<line class="st20" x1="71.2" y1="645" x2="70.2" y2="641.9"/>
		<line class="st20" x1="45.2" y1="643.6" x2="48.4" y2="645.1"/>
		<line class="st20" x1="56.4" y1="623.1" x2="53" y2="624.2"/>
		<line class="st20" x1="64.6" y1="628.8" x2="66.2" y2="625.8"/>
	</g>
	<path class="st6" d="M16.3,692v27.8c0,2.1,1.3,3.8,3,3.8h46.7c1.6,0,3-1.7,3-3.8V692c0-2.1-1.3-3.9-3-3.9H19.2
		C17.6,688.1,16.3,689.8,16.3,692z"/>
	<g>
		<line class="st21" x1="-384.6" y1="1016.6" x2="-388.4" y2="1015.1"/>
		<line class="st21" x1="-390" y1="1032.3" x2="-388.2" y2="1028.9"/>
		<line class="st21" x1="-387.3" y1="1022" x2="-385.1" y2="1025.2"/>
		<line class="st21" x1="-383.2" y1="1031.6" x2="-379.9" y2="1029.3"/>
		<line class="st21" x1="-378.9" y1="1021.8" x2="-374.9" y2="1021"/>
		<line class="st21" x1="-358.4" y1="1026.9" x2="-359.4" y2="1023.2"/>
		<line class="st21" x1="-364.1" y1="1022.1" x2="-368" y2="1023.3"/>
		<line class="st21" x1="-350.5" y1="1018.7" x2="-348.7" y2="1015.3"/>
		<line class="st21" x1="-371.7" y1="1033.8" x2="-371.8" y2="1037.6"/>
		<line class="st21" x1="-375.2" y1="1026" x2="-371.6" y2="1027.8"/>
		<line class="st21" x1="-367.3" y1="1030.6" x2="-364.8" y2="1033.7"/>
		<line class="st21" x1="-350.5" y1="1037.4" x2="-348.7" y2="1034"/>
		<line class="st21" x1="-356.3" y1="1029" x2="-353.9" y2="1032.1"/>
		<line class="st21" x1="-358.9" y1="1037.2" x2="-360" y2="1033.5"/>
		<line class="st21" x1="-346.5" y1="1023" x2="-350.4" y2="1024.2"/>
		<line class="st21" x1="-383.8" y1="1036.3" x2="-380.1" y2="1038"/>
		<line class="st21" x1="-371.4" y1="1015.4" x2="-375.3" y2="1016.7"/>
		<line class="st21" x1="-361.7" y1="1019" x2="-359.9" y2="1015.5"/>
		<line class="st21" x1="-348" y1="1026.9" x2="-349" y2="1030.5"/>
	</g>
</g>
<g id="Top_Text_1_">
	<g id="Thomas_Smith">
	</g>
	<g id="Backgrounds_1_">
		<g>
			<path class="st5" d="M73.2,629.9c-2.4-5.3-7.5-8.8-12.9-8.4c0,0-0.1,0-0.1,0c-4.4-0.1-6.1-3.7-11.6-3.2c-5.1,0.3-9,0.9-10.6,2.1
				c-0.1,0.1-0.2,0.2-0.3,0.4c-0.9,1.4-6.8,2.5-7.7,3.5c-4.9,5.2-0.4,9-0.3,12c0,0.1,0,0.1,0,0.2c1.5,10.1,10.2,11,17.1,11.4
				c1.4,0.1,2.7,0.4,3.9,1c3.3,1.7,9.1,1,10.4,1c2.3,0,4.5-1.8,6.6-1.9c0.1,0,0.1,0,0.2,0c7.8-1.2,10.1-12.3,5.5-17.7
				C73.3,630.1,73.2,630,73.2,629.9z"/>
		</g>
		<path class="st5" d="M-344.4,1038.1c0,1.6-1.5,2.7-3,2.2c-2.6-0.9-40.1-0.8-42.7,0c-1.5,0.5-3-0.6-3-2.2v-23.3
			c0-1.6,1.6-2.7,3.1-2.2c2.5,0.9,40,0.9,42.5,0c1.5-0.6,3.1,0.6,3.1,2.2V1038.1z"/>
		<path class="st5" d="M-363.9,862.5"/>
		<g id="Background_6_">
			<g>
				<rect x="561.7" y="935.1" class="st2" width="270" height="161.4"/>
			</g>
		</g>
		
			<text transform="matrix(1.0199 0 0 1 641.2499 1039.2791)" class="st0" style="font-family:'Kollektif-BoldItalic'; font-size:5.3169px; letter-spacing:1;">POPTARTS + BAKED GOODS</text>
		<path class="st12" d="M628,939.6"/>
		<g>
			<text transform="matrix(1.0199 0 0 1 697.7453 998.7434)"><tspan x="0" y="0" class="st0" style="font-family:'Kollektif-Bold'; font-size:11.8206px;">THE</tspan><tspan x="0" y="14.2" class="st0" style="font-family:'Kollektif-Bold'; font-size:11.8206px;">TOASTED</tspan><tspan x="0" y="28.4" class="st0" style="font-family:'Kollektif-Bold'; font-size:11.8206px;">TART</tspan></text>
			<path class="st0" d="M687.8,1021.3c0,1.6-1.4,2-2.9,2.3c-1,0.2-40.6,0.1-42.3,0c-1.5-0.1-2.9-0.7-2.9-2.3v-24.2
				c0-1.7,1.4-2.3,3-2.3c0.5,0,10.6-0.5,21-0.5c10.3,0,20.8,0,21.1,0c2-0.1,2.9,1.1,2.9,2.8V1021.3z"/>
			<path class="st22" d="M636.7,995.6v27c0,2.1,1.4,3.7,3,3.7h47.9c1.7,0,3-1.7,3-3.7v-27c0-2.1-1.4-3.7-3-3.7h-47.9
				C638.1,991.8,636.7,993.5,636.7,995.6z"/>
			<g>
				<line class="st23" x1="647.3" y1="998.9" x2="643.4" y2="997.3"/>
				<line class="st23" x1="641.8" y1="1015.1" x2="643.6" y2="1011.6"/>
				<line class="st23" x1="644.6" y1="1004.5" x2="646.8" y2="1007.8"/>
				<line class="st23" x1="648.7" y1="1014.4" x2="652.1" y2="1012.1"/>
				<line class="st23" x1="653.2" y1="1004.3" x2="657.3" y2="1003.5"/>
				<line class="st23" x1="674.2" y1="1009.5" x2="673.1" y2="1005.7"/>
				<line class="st23" x1="668.3" y1="1004.6" x2="664.3" y2="1005.9"/>
				<line class="st23" x1="682.2" y1="1001" x2="684.1" y2="997.5"/>
				<line class="st23" x1="660.6" y1="1016.7" x2="660.4" y2="1020.7"/>
				<line class="st23" x1="656.9" y1="1008.6" x2="660.6" y2="1010.5"/>
				<line class="st23" x1="665.1" y1="1013.4" x2="667.6" y2="1016.6"/>
				<line class="st23" x1="682.2" y1="1020.5" x2="684.1" y2="1016.9"/>
				<line class="st23" x1="676.3" y1="1011.8" x2="678.8" y2="1014.9"/>
				<line class="st23" x1="673.6" y1="1020.2" x2="672.5" y2="1016.4"/>
				<line class="st23" x1="686.3" y1="1005.6" x2="682.3" y2="1006.8"/>
				<line class="st23" x1="648.2" y1="1019.3" x2="651.9" y2="1021.1"/>
				<line class="st23" x1="660.8" y1="997.7" x2="656.8" y2="999"/>
				<line class="st23" x1="670.8" y1="1001.3" x2="672.6" y2="997.8"/>
				<line class="st23" x1="684.8" y1="1009.5" x2="683.8" y2="1013.3"/>
			</g>
		</g>
		<g>
			<g>
				<line class="st23" x1="461.8" y1="978.9" x2="458.2" y2="977.4"/>
				<line class="st23" x1="456.6" y1="994.6" x2="458.3" y2="991.2"/>
				<line class="st23" x1="459.3" y1="984.3" x2="461.4" y2="987.5"/>
				<line class="st23" x1="463.1" y1="993.9" x2="466.3" y2="991.6"/>
				<line class="st23" x1="467.3" y1="984.1" x2="471.2" y2="983.3"/>
				<line class="st23" x1="487.1" y1="989.2" x2="486" y2="985.5"/>
				<line class="st23" x1="481.5" y1="984.4" x2="477.8" y2="985.6"/>
				<line class="st23" x1="494.7" y1="981" x2="496.4" y2="977.6"/>
				<line class="st23" x1="474.3" y1="996.1" x2="474.1" y2="999.9"/>
				<line class="st23" x1="470.9" y1="988.3" x2="474.3" y2="990.1"/>
				<line class="st23" x1="478.5" y1="992.9" x2="480.9" y2="996"/>
				<line class="st23" x1="494.7" y1="999.7" x2="496.4" y2="996.3"/>
				<line class="st23" x1="489" y1="991.4" x2="491.4" y2="994.4"/>
				<line class="st23" x1="486.6" y1="999.5" x2="485.5" y2="995.8"/>
				<line class="st23" x1="498.5" y1="985.3" x2="494.7" y2="986.5"/>
				<line class="st23" x1="462.6" y1="998.6" x2="466.1" y2="1000.3"/>
				<line class="st23" x1="474.5" y1="977.8" x2="470.7" y2="979"/>
				<line class="st23" x1="483.9" y1="981.3" x2="485.6" y2="977.9"/>
				<line class="st23" x1="497.1" y1="989.2" x2="496.1" y2="992.9"/>
			</g>
		</g>
		<path class="st12" d="M918,757"/>
		<line class="st3" x1="1989" y1="834.9" x2="1995.7" y2="827.8"/>
		<g>
			<circle class="st24" cx="986.7" cy="833" r="74.4"/>
			<g>
				<line class="st15" x1="963.6" y1="780.8" x2="974.4" y2="787"/>
				<line class="st15" x1="1019" y1="801.5" x2="1031.4" y2="803.3"/>
				<line class="st15" x1="1003.7" y1="793.5" x2="1011.4" y2="783.6"/>
				<line class="st15" x1="941" y1="803.1" x2="949.6" y2="794"/>
				<line class="st15" x1="989.3" y1="860.2" x2="978.3" y2="866.1"/>
				<line class="st15" x1="940.3" y1="869.4" x2="941.7" y2="857"/>
				<line class="st15" x1="1007.5" y1="885.1" x2="1016.4" y2="876.3"/>
				<line class="st15" x1="962.6" y1="882.6" x2="974.9" y2="889.8"/>
				<line class="st15" x1="1041.2" y1="857.4" x2="1028.8" y2="856.3"/>
			</g>
			<rect x="922.2" y="818.4" style="fill:none;" width="129" height="61.2"/>
			
				<text transform="matrix(1 0 0 1 922.2457 842.7439)" style="fill:none;stroke:#E2A99C;stroke-width:3;stroke-miterlimit:10; font-family:'Kollektif-BoldItalic'; font-size:33.3078px; letter-spacing:1;">ENJOY!</text>
			<circle class="st25" cx="986.7" cy="833.4" r="74.4"/>
		</g>
		<g id="Background_3_">
			<g>
				<rect x="1212.6" y="-270.8" class="st2" width="1219.4" height="1219.4"/>
			</g>
		</g>
		<path class="st12" d="M1507.2-5.5"/>
		<g>
			
				<text transform="matrix(1.0199 0 0 1 1371.2808 539.8728)" class="st0" style="font-family:'Kollektif-BoldItalic'; font-size:43.2253px; letter-spacing:13.7;">POPTARTS + BAKED GOODS</text>
			<g>
				<text transform="matrix(1.0199 0 0 1 1830.5737 210.326)"><tspan x="0" y="0" class="st0" style="font-family:'Kollektif-Bold'; font-size:96.0988px; letter-spacing:4.9;">THE</tspan><tspan x="0" y="115.3" class="st0" style="font-family:'Kollektif-Bold'; font-size:96.0988px; letter-spacing:4.9;">TOASTED</tspan><tspan x="0" y="230.6" class="st0" style="font-family:'Kollektif-Bold'; font-size:96.0988px; letter-spacing:4.9;">TART</tspan></text>
				<path class="st0" d="M1749.8,393.9c0,13.2-11.5,16.6-23.9,18.7c-7.9,1.3-330.4,1.2-343.6,0c-12.5-1.1-23.9-5.4-23.9-18.7V197.2
					c0-13.6,11.7-18.7,24.6-18.4c4.1,0.1,85.9-4.3,171-4.3c83.4,0,169.1,0.2,171.8,0c16-0.9,23.9,9.2,23.9,22.7V393.9z"/>
				<path class="st26" d="M1334.6,184.5v219.3c0,16.7,11.1,30.3,24.8,30.3h389.7c13.6,0,24.7-13.5,24.7-30.2V184.4
					c0-16.8-11.1-30.4-24.8-30.4h-389.5C1345.7,154,1334.6,167.7,1334.6,184.5z"/>
				<g>
					<line class="st27" x1="1420.4" y1="211.8" x2="1389.1" y2="199"/>
					<line class="st27" x1="1375.7" y1="343.6" x2="1390.6" y2="314.8"/>
					<line class="st27" x1="1398.5" y1="257.3" x2="1416.7" y2="284.3"/>
					<line class="st27" x1="1432.1" y1="337.7" x2="1459.6" y2="318.6"/>
					<line class="st27" x1="1468.2" y1="255.4" x2="1501.6" y2="248.9"/>
					<line class="st27" x1="1639" y1="298" x2="1629.9" y2="267.2"/>
					<line class="st27" x1="1591.2" y1="258.1" x2="1558.8" y2="268.3"/>
					<line class="st27" x1="1704.6" y1="229" x2="1719.6" y2="200.3"/>
					<line class="st27" x1="1528.3" y1="356.6" x2="1526.8" y2="388.6"/>
					<line class="st27" x1="1498.9" y1="290.5" x2="1528.9" y2="305.7"/>
					<line class="st27" x1="1564.8" y1="329.8" x2="1585.2" y2="355.4"/>
					<line class="st27" x1="1704.6" y1="386.9" x2="1719.6" y2="358.2"/>
					<line class="st27" x1="1656" y1="316.4" x2="1676.4" y2="342.1"/>
					<line class="st27" x1="1634.4" y1="384.8" x2="1625.3" y2="353.9"/>
					<line class="st27" x1="1737.5" y1="265.7" x2="1705.1" y2="275.9"/>
					<line class="st27" x1="1427.6" y1="377.3" x2="1457.9" y2="392.2"/>
					<line class="st27" x1="1530.1" y1="201.8" x2="1497.7" y2="212"/>
					<line class="st27" x1="1611.2" y1="231.4" x2="1626.3" y2="202.7"/>
					<line class="st27" x1="1725.5" y1="298.1" x2="1717" y2="329.1"/>
				</g>
			</g>
		</g>
	</g>
	<rect x="409.4" y="1114.1" class="st0" width="264" height="158.6"/>
	<path class="st12" d="M473,1116"/>
	<line class="st3" x1="436.2" y1="1151.2" x2="442.9" y2="1144.1"/>
	<g>
		<line class="st15" x1="529.4" y1="1148.2" x2="540.2" y2="1154.4"/>
		<line class="st15" x1="585.6" y1="1142.7" x2="598" y2="1144.5"/>
		<line class="st15" x1="645" y1="1150.7" x2="652.7" y2="1140.9"/>
		<line class="st15" x1="473" y1="1138.7" x2="481.6" y2="1129.6"/>
		<line class="st15" x1="437.5" y1="1154.5" x2="425.8" y2="1150.1"/>
		<line class="st15" x1="427.9" y1="1246.1" x2="434.9" y2="1256.4"/>
		<line class="st15" x1="471" y1="1234.3" x2="459.9" y2="1240.2"/>
		<line class="st15" x1="506.6" y1="1254.6" x2="508" y2="1242.2"/>
		<line class="st15" x1="558.7" y1="1237.4" x2="567.5" y2="1228.5"/>
		<line class="st15" x1="608.5" y1="1259.1" x2="599.6" y2="1250.3"/>
		<line class="st15" x1="646.3" y1="1244.5" x2="633.8" y2="1243.3"/>
	</g>
	<rect x="411.4" y="1116" class="st16" width="260.6" height="152"/>
	<rect x="429" y="1169.3" style="fill:none;" width="233.4" height="110.7"/>
	
		<text transform="matrix(1 0 0 1 429.0211 1211.5958)" style="fill:none;stroke:#E2A99C;stroke-width:3;stroke-miterlimit:10; font-family:'Kollektif-BoldItalic'; font-size:58px; letter-spacing:3;">ENJOY!</text>
	<g>
		<line class="st28" x1="56" y1="50.7" x2="25" y2="36"/>
		<line class="st28" x1="19.1" y1="213" x2="36.1" y2="182"/>
		<line class="st28" x1="12.1" y1="113" x2="43.1" y2="127.2"/>
		<line class="st28" x1="188.8" y1="245.7" x2="158.8" y2="258.8"/>
		<line class="st28" x1="432.6" y1="234" x2="404.4" y2="217.7"/>
		<line class="st28" x1="451.8" y1="112.6" x2="449.9" y2="143.6"/>
		<line class="st28" x1="60.7" y1="252.3" x2="95.3" y2="269.2"/>
		<line class="st28" x1="139.2" y1="12.2" x2="102.2" y2="23.9"/>
		<line class="st28" x1="395.8" y1="39.8" x2="413" y2="8.8"/>
		<line class="st28" x1="336.9" y1="271.6" x2="315.5" y2="241.2"/>
		<line class="st28" x1="331.4" y1="36.8" x2="300.4" y2="11.6"/>
	</g>
</g>
</svg>
